G04 EAGLE Gerber RS-274X export*
G75*
%MOMM*%
%FSLAX34Y34*%
%LPD*%
%INSoldermask Bottom*%
%IPPOS*%
%AMOC8*
5,1,8,0,0,1.08239X$1,22.5*%
G01*
%ADD10C,1.003200*%
%ADD11C,0.853200*%
%ADD12C,1.203200*%
%ADD13C,2.082800*%
%ADD14C,0.965200*%


D10*
X154780Y288290D03*
D11*
X49050Y219400D03*
X49050Y161600D03*
D12*
X222758Y298704D03*
X222758Y311404D03*
X222758Y324104D03*
X222758Y336804D03*
X222758Y286004D03*
X210058Y298704D03*
X210058Y311404D03*
X210058Y324104D03*
X210058Y336804D03*
X210058Y286004D03*
X44450Y76200D03*
X44450Y88900D03*
X44450Y101600D03*
X44450Y114300D03*
X44450Y63500D03*
X31750Y76200D03*
X31750Y88900D03*
X31750Y101600D03*
X31750Y114300D03*
X31750Y63500D03*
D13*
X920750Y330200D03*
X920750Y304800D03*
X920750Y279400D03*
X920750Y254000D03*
X920750Y228600D03*
X920750Y203200D03*
X920750Y177800D03*
X920750Y152400D03*
X901700Y330200D03*
X901700Y304800D03*
X901700Y279400D03*
X901700Y254000D03*
X901700Y228600D03*
X901700Y203200D03*
X901700Y177800D03*
X901700Y152400D03*
X787400Y38100D03*
X762000Y38100D03*
X736600Y38100D03*
X711200Y38100D03*
X685800Y38100D03*
X660400Y38100D03*
X635000Y38100D03*
X609600Y38100D03*
X584200Y38100D03*
X558800Y38100D03*
X533400Y38100D03*
X508000Y38100D03*
X508000Y342900D03*
X533400Y342900D03*
X558800Y342900D03*
X584200Y342900D03*
X609600Y342900D03*
X635000Y342900D03*
X660400Y342900D03*
X685800Y342900D03*
X711200Y342900D03*
X736600Y342900D03*
X762000Y342900D03*
X787400Y342900D03*
X787400Y12700D03*
X762000Y12700D03*
X736600Y12700D03*
X711200Y12700D03*
X685800Y12700D03*
X660400Y12700D03*
X635000Y12700D03*
X609600Y12700D03*
X584200Y12700D03*
X558800Y12700D03*
X533400Y12700D03*
X508000Y12700D03*
X508000Y368300D03*
X533400Y368300D03*
X558800Y368300D03*
X584200Y368300D03*
X609600Y368300D03*
X635000Y368300D03*
X660400Y368300D03*
X685800Y368300D03*
X711200Y368300D03*
X736600Y368300D03*
X762000Y368300D03*
X787400Y368300D03*
X787400Y57150D03*
X762000Y57150D03*
X736600Y57150D03*
X711200Y57150D03*
X685800Y57150D03*
X660400Y57150D03*
X635000Y57150D03*
X609600Y57150D03*
X584200Y57150D03*
X558800Y57150D03*
X533400Y57150D03*
X508000Y57150D03*
X508000Y323850D03*
X533400Y323850D03*
X558800Y323850D03*
X584200Y323850D03*
X609600Y323850D03*
X635000Y323850D03*
X660400Y323850D03*
X685800Y323850D03*
X711200Y323850D03*
X736600Y323850D03*
X762000Y323850D03*
X787400Y323850D03*
D12*
X12700Y368300D03*
X927100Y12700D03*
D14*
X88900Y76200D03*
X63500Y101600D03*
D10*
X154780Y674395D03*
D11*
X49050Y605505D03*
X49050Y547705D03*
D12*
X222758Y684809D03*
X222758Y697509D03*
X222758Y710209D03*
X222758Y722909D03*
X222758Y672109D03*
X210058Y684809D03*
X210058Y697509D03*
X210058Y710209D03*
X210058Y722909D03*
X210058Y672109D03*
X44450Y462305D03*
X44450Y475005D03*
X44450Y487705D03*
X44450Y500405D03*
X44450Y449605D03*
X31750Y462305D03*
X31750Y475005D03*
X31750Y487705D03*
X31750Y500405D03*
X31750Y449605D03*
D13*
X920750Y716305D03*
X920750Y690905D03*
X920750Y665505D03*
X920750Y640105D03*
X920750Y614705D03*
X920750Y589305D03*
X920750Y563905D03*
X920750Y538505D03*
X901700Y716305D03*
X901700Y690905D03*
X901700Y665505D03*
X901700Y640105D03*
X901700Y614705D03*
X901700Y589305D03*
X901700Y563905D03*
X901700Y538505D03*
X787400Y424205D03*
X762000Y424205D03*
X736600Y424205D03*
X711200Y424205D03*
X685800Y424205D03*
X660400Y424205D03*
X635000Y424205D03*
X609600Y424205D03*
X584200Y424205D03*
X558800Y424205D03*
X533400Y424205D03*
X508000Y424205D03*
X508000Y729005D03*
X533400Y729005D03*
X558800Y729005D03*
X584200Y729005D03*
X609600Y729005D03*
X635000Y729005D03*
X660400Y729005D03*
X685800Y729005D03*
X711200Y729005D03*
X736600Y729005D03*
X762000Y729005D03*
X787400Y729005D03*
X787400Y398805D03*
X762000Y398805D03*
X736600Y398805D03*
X711200Y398805D03*
X685800Y398805D03*
X660400Y398805D03*
X635000Y398805D03*
X609600Y398805D03*
X584200Y398805D03*
X558800Y398805D03*
X533400Y398805D03*
X508000Y398805D03*
X508000Y754405D03*
X533400Y754405D03*
X558800Y754405D03*
X584200Y754405D03*
X609600Y754405D03*
X635000Y754405D03*
X660400Y754405D03*
X685800Y754405D03*
X711200Y754405D03*
X736600Y754405D03*
X762000Y754405D03*
X787400Y754405D03*
X787400Y443255D03*
X762000Y443255D03*
X736600Y443255D03*
X711200Y443255D03*
X685800Y443255D03*
X660400Y443255D03*
X635000Y443255D03*
X609600Y443255D03*
X584200Y443255D03*
X558800Y443255D03*
X533400Y443255D03*
X508000Y443255D03*
X508000Y709955D03*
X533400Y709955D03*
X558800Y709955D03*
X584200Y709955D03*
X609600Y709955D03*
X635000Y709955D03*
X660400Y709955D03*
X685800Y709955D03*
X711200Y709955D03*
X736600Y709955D03*
X762000Y709955D03*
X787400Y709955D03*
D12*
X12700Y754405D03*
X927100Y398805D03*
D14*
X88900Y462305D03*
X63500Y487705D03*
D10*
X154780Y1060501D03*
D11*
X49050Y991611D03*
X49050Y933811D03*
D12*
X222758Y1070915D03*
X222758Y1083615D03*
X222758Y1096315D03*
X222758Y1109015D03*
X222758Y1058215D03*
X210058Y1070915D03*
X210058Y1083615D03*
X210058Y1096315D03*
X210058Y1109015D03*
X210058Y1058215D03*
X44450Y848411D03*
X44450Y861111D03*
X44450Y873811D03*
X44450Y886511D03*
X44450Y835711D03*
X31750Y848411D03*
X31750Y861111D03*
X31750Y873811D03*
X31750Y886511D03*
X31750Y835711D03*
D13*
X920750Y1102411D03*
X920750Y1077011D03*
X920750Y1051611D03*
X920750Y1026211D03*
X920750Y1000811D03*
X920750Y975411D03*
X920750Y950011D03*
X920750Y924611D03*
X901700Y1102411D03*
X901700Y1077011D03*
X901700Y1051611D03*
X901700Y1026211D03*
X901700Y1000811D03*
X901700Y975411D03*
X901700Y950011D03*
X901700Y924611D03*
X787400Y810311D03*
X762000Y810311D03*
X736600Y810311D03*
X711200Y810311D03*
X685800Y810311D03*
X660400Y810311D03*
X635000Y810311D03*
X609600Y810311D03*
X584200Y810311D03*
X558800Y810311D03*
X533400Y810311D03*
X508000Y810311D03*
X508000Y1115111D03*
X533400Y1115111D03*
X558800Y1115111D03*
X584200Y1115111D03*
X609600Y1115111D03*
X635000Y1115111D03*
X660400Y1115111D03*
X685800Y1115111D03*
X711200Y1115111D03*
X736600Y1115111D03*
X762000Y1115111D03*
X787400Y1115111D03*
X787400Y784911D03*
X762000Y784911D03*
X736600Y784911D03*
X711200Y784911D03*
X685800Y784911D03*
X660400Y784911D03*
X635000Y784911D03*
X609600Y784911D03*
X584200Y784911D03*
X558800Y784911D03*
X533400Y784911D03*
X508000Y784911D03*
X508000Y1140511D03*
X533400Y1140511D03*
X558800Y1140511D03*
X584200Y1140511D03*
X609600Y1140511D03*
X635000Y1140511D03*
X660400Y1140511D03*
X685800Y1140511D03*
X711200Y1140511D03*
X736600Y1140511D03*
X762000Y1140511D03*
X787400Y1140511D03*
X787400Y829361D03*
X762000Y829361D03*
X736600Y829361D03*
X711200Y829361D03*
X685800Y829361D03*
X660400Y829361D03*
X635000Y829361D03*
X609600Y829361D03*
X584200Y829361D03*
X558800Y829361D03*
X533400Y829361D03*
X508000Y829361D03*
X508000Y1096061D03*
X533400Y1096061D03*
X558800Y1096061D03*
X584200Y1096061D03*
X609600Y1096061D03*
X635000Y1096061D03*
X660400Y1096061D03*
X685800Y1096061D03*
X711200Y1096061D03*
X736600Y1096061D03*
X762000Y1096061D03*
X787400Y1096061D03*
D12*
X12700Y1140511D03*
X927100Y784911D03*
D14*
X88900Y848411D03*
X63500Y873811D03*
D10*
X154780Y1446581D03*
D11*
X49050Y1377691D03*
X49050Y1319891D03*
D12*
X222758Y1456995D03*
X222758Y1469695D03*
X222758Y1482395D03*
X222758Y1495095D03*
X222758Y1444295D03*
X210058Y1456995D03*
X210058Y1469695D03*
X210058Y1482395D03*
X210058Y1495095D03*
X210058Y1444295D03*
X44450Y1234491D03*
X44450Y1247191D03*
X44450Y1259891D03*
X44450Y1272591D03*
X44450Y1221791D03*
X31750Y1234491D03*
X31750Y1247191D03*
X31750Y1259891D03*
X31750Y1272591D03*
X31750Y1221791D03*
D13*
X920750Y1488491D03*
X920750Y1463091D03*
X920750Y1437691D03*
X920750Y1412291D03*
X920750Y1386891D03*
X920750Y1361491D03*
X920750Y1336091D03*
X920750Y1310691D03*
X901700Y1488491D03*
X901700Y1463091D03*
X901700Y1437691D03*
X901700Y1412291D03*
X901700Y1386891D03*
X901700Y1361491D03*
X901700Y1336091D03*
X901700Y1310691D03*
X787400Y1196391D03*
X762000Y1196391D03*
X736600Y1196391D03*
X711200Y1196391D03*
X685800Y1196391D03*
X660400Y1196391D03*
X635000Y1196391D03*
X609600Y1196391D03*
X584200Y1196391D03*
X558800Y1196391D03*
X533400Y1196391D03*
X508000Y1196391D03*
X508000Y1501191D03*
X533400Y1501191D03*
X558800Y1501191D03*
X584200Y1501191D03*
X609600Y1501191D03*
X635000Y1501191D03*
X660400Y1501191D03*
X685800Y1501191D03*
X711200Y1501191D03*
X736600Y1501191D03*
X762000Y1501191D03*
X787400Y1501191D03*
X787400Y1170991D03*
X762000Y1170991D03*
X736600Y1170991D03*
X711200Y1170991D03*
X685800Y1170991D03*
X660400Y1170991D03*
X635000Y1170991D03*
X609600Y1170991D03*
X584200Y1170991D03*
X558800Y1170991D03*
X533400Y1170991D03*
X508000Y1170991D03*
X508000Y1526591D03*
X533400Y1526591D03*
X558800Y1526591D03*
X584200Y1526591D03*
X609600Y1526591D03*
X635000Y1526591D03*
X660400Y1526591D03*
X685800Y1526591D03*
X711200Y1526591D03*
X736600Y1526591D03*
X762000Y1526591D03*
X787400Y1526591D03*
X787400Y1215441D03*
X762000Y1215441D03*
X736600Y1215441D03*
X711200Y1215441D03*
X685800Y1215441D03*
X660400Y1215441D03*
X635000Y1215441D03*
X609600Y1215441D03*
X584200Y1215441D03*
X558800Y1215441D03*
X533400Y1215441D03*
X508000Y1215441D03*
X508000Y1482141D03*
X533400Y1482141D03*
X558800Y1482141D03*
X584200Y1482141D03*
X609600Y1482141D03*
X635000Y1482141D03*
X660400Y1482141D03*
X685800Y1482141D03*
X711200Y1482141D03*
X736600Y1482141D03*
X762000Y1482141D03*
X787400Y1482141D03*
D12*
X12700Y1526591D03*
X927100Y1170991D03*
D14*
X88900Y1234491D03*
X63500Y1259891D03*
D12*
X94005Y1560271D03*
X921436Y1560271D03*
M02*
