M48
;GenerationSoftware,Autodesk,EAGLE,9.6.0*%
;CreationDate,2020-07-10T20:59:33Z*%
FMAT,2
ICI,OFF
METRIC,TZ,000.000
T5C0.381
T4C0.508
T3C0.650
T2C0.800
T1C1.016
%
G90
M71
T1
X53340Y81031
X71120Y150119
X73660Y150119
X76200Y150119
X78740Y150119
X78740Y117099
X76200Y117099
X73660Y117099
X71120Y117099
X68580Y117099
X66040Y117099
X63500Y117099
X60960Y117099
X58420Y117099
X55880Y117099
X53340Y117099
X50800Y117099
X50800Y152659
X53340Y152659
X55880Y152659
X58420Y152659
X60960Y152659
X63500Y152659
X66040Y152659
X68580Y152659
X71120Y152659
X73660Y152659
X76200Y152659
X78740Y152659
X78740Y121544
X76200Y121544
X73660Y121544
X71120Y121544
X92075Y33020
X92075Y30480
X92075Y27940
X92075Y25400
X92075Y22860
X92075Y20320
X92075Y17780
X92075Y15240
X90170Y33020
X90170Y30480
X90170Y27940
X90170Y25400
X90170Y22860
X90170Y20320
X90170Y17780
X90170Y15240
X78740Y3810
X76200Y3810
X73660Y3810
X71120Y3810
X68580Y3810
X66040Y3810
X63500Y3810
X60960Y3810
X58420Y3810
X55880Y3810
X53340Y3810
X50800Y3810
X50800Y34290
X53340Y34290
X55880Y34290
X58420Y34290
X60960Y34290
X63500Y34290
X66040Y34290
X68580Y34290
X71120Y34290
X73660Y34290
X76200Y34290
X78740Y34290
X78740Y1270
X76200Y1270
X73660Y1270
X71120Y1270
X68580Y1270
X66040Y1270
X63500Y1270
X60960Y1270
X58420Y1270
X55880Y1270
X53340Y1270
X50800Y1270
X50800Y36830
X53340Y36830
X55880Y36830
X58420Y36830
X60960Y36830
X63500Y36830
X66040Y36830
X68580Y36830
X71120Y36830
X73660Y36830
X76200Y36830
X78740Y36830
X78740Y5715
X76200Y5715
X73660Y5715
X71120Y5715
X68580Y5715
X66040Y5715
X63500Y5715
X60960Y5715
X58420Y5715
X55880Y5715
X53340Y5715
X50800Y5715
X50800Y32385
X53340Y32385
X55880Y32385
X58420Y32385
X60960Y32385
X63500Y32385
X66040Y32385
X68580Y32385
X71120Y32385
X73660Y32385
X76200Y32385
X78740Y32385
X68580Y121544
X66040Y121544
X63500Y121544
X60960Y121544
X58420Y121544
X55880Y121544
X53340Y121544
X50800Y121544
X50800Y148214
X53340Y148214
X55880Y148214
X58420Y148214
X60960Y148214
X63500Y148214
X66040Y148214
X68580Y148214
X71120Y148214
X73660Y148214
X76200Y148214
X78740Y148214
X92075Y71631
X92075Y69091
X92075Y66551
X92075Y64011
X92075Y61471
X92075Y58931
X92075Y56391
X92075Y53851
X90170Y71631
X90170Y69091
X90170Y66551
X90170Y64011
X90170Y61471
X90170Y58931
X90170Y56391
X90170Y53851
X78740Y42421
X76200Y42421
X73660Y42421
X71120Y42421
X68580Y42421
X66040Y42421
X63500Y42421
X60960Y42421
X58420Y42421
X55880Y42421
X53340Y42421
X50800Y42421
X50800Y72901
X53340Y72901
X55880Y72901
X58420Y72901
X60960Y72901
X63500Y72901
X66040Y72901
X68580Y72901
X71120Y72901
X73660Y72901
X76200Y72901
X78740Y72901
X78740Y39881
X76200Y39881
X73660Y39881
X71120Y39881
X68580Y39881
X66040Y39881
X63500Y39881
X60960Y39881
X58420Y39881
X55880Y39881
X53340Y39881
X50800Y39881
X50800Y75441
X53340Y75441
X55880Y75441
X58420Y75441
X60960Y75441
X63500Y75441
X66040Y75441
X68580Y75441
X71120Y75441
X73660Y75441
X76200Y75441
X78740Y75441
X78740Y44326
X76200Y44326
X73660Y44326
X71120Y44326
X68580Y44326
X66040Y44326
X63500Y44326
X60960Y44326
X58420Y44326
X55880Y44326
X53340Y44326
X50800Y44326
X50800Y70996
X53340Y70996
X55880Y70996
X58420Y70996
X60960Y70996
X63500Y70996
X66040Y70996
X68580Y70996
X71120Y70996
X73660Y70996
X76200Y70996
X78740Y70996
X92075Y110241
X92075Y107701
X92075Y105161
X92075Y102621
X92075Y100081
X92075Y97541
X92075Y95001
X92075Y92461
X90170Y110241
X90170Y107701
X90170Y105161
X90170Y102621
X90170Y100081
X90170Y97541
X90170Y95001
X90170Y92461
X78740Y81031
X76200Y81031
X73660Y81031
X71120Y81031
X68580Y81031
X66040Y81031
X63500Y81031
X60960Y81031
X58420Y81031
X55880Y81031
X50800Y81031
X50800Y111511
X53340Y111511
X55880Y111511
X58420Y111511
X60960Y111511
X63500Y111511
X66040Y111511
X68580Y111511
X71120Y111511
X73660Y111511
X76200Y111511
X78740Y111511
X78740Y78491
X76200Y78491
X73660Y78491
X71120Y78491
X68580Y78491
X66040Y78491
X63500Y78491
X60960Y78491
X58420Y78491
X55880Y78491
X53340Y78491
X50800Y78491
X50800Y114051
X53340Y114051
X55880Y114051
X58420Y114051
X60960Y114051
X63500Y114051
X66040Y114051
X68580Y114051
X71120Y114051
X73660Y114051
X76200Y114051
X78740Y114051
X78740Y82936
X76200Y82936
X73660Y82936
X71120Y82936
X68580Y82936
X66040Y82936
X63500Y82936
X60960Y82936
X58420Y82936
X55880Y82936
X53340Y82936
X50800Y82936
X50800Y109606
X53340Y109606
X55880Y109606
X58420Y109606
X60960Y109606
X63500Y109606
X66040Y109606
X68580Y109606
X71120Y109606
X73660Y109606
X76200Y109606
X78740Y109606
X92075Y148849
X92075Y146309
X92075Y143769
X92075Y141229
X92075Y138689
X92075Y136149
X92075Y133609
X92075Y131069
X90170Y148849
X90170Y146309
X90170Y143769
X90170Y141229
X90170Y138689
X90170Y136149
X90170Y133609
X90170Y131069
X78740Y119639
X76200Y119639
X73660Y119639
X71120Y119639
X68580Y119639
X66040Y119639
X63500Y119639
X60960Y119639
X58420Y119639
X55880Y119639
X53340Y119639
X50800Y119639
X50800Y150119
X53340Y150119
X55880Y150119
X58420Y150119
X60960Y150119
X63500Y150119
X66040Y150119
X68580Y150119
T2
X15478Y28829
X15478Y67440
X15478Y106050
X15478Y144658
T3
X4905Y21940
X4905Y16160
X4905Y60551
X4905Y54771
X4905Y99161
X4905Y93381
X4905Y137769
X4905Y131989
T4
X22276Y29870
X22276Y31140
X22276Y32410
X22276Y33680
X22276Y28600
X21006Y29870
X21006Y31140
X21006Y32410
X21006Y33680
X21006Y28600
X4445Y7620
X4445Y8890
X4445Y10160
X4445Y11430
X4445Y6350
X3175Y7620
X3175Y8890
X3175Y10160
X3175Y11430
X3175Y6350
X22276Y68481
X22276Y69751
X22276Y71021
X22276Y72291
X22276Y67211
X21006Y68481
X21006Y69751
X21006Y71021
X21006Y72291
X21006Y67211
X4445Y46231
X4445Y47501
X4445Y48771
X4445Y50041
X4445Y44961
X3175Y46231
X3175Y47501
X3175Y48771
X3175Y50041
X3175Y44961
X3175Y84841
X3175Y86111
X3175Y87381
X3175Y88651
X3175Y83571
X22276Y107091
X22276Y108361
X22276Y109631
X22276Y110901
X22276Y105821
X21006Y107091
X21006Y108361
X22276Y145699
X22276Y146969
X22276Y148239
X22276Y149509
X22276Y144429
X21006Y145699
X21006Y146969
X21006Y148239
X21006Y149509
X21006Y144429
X4445Y123449
X4445Y124719
X4445Y125989
X4445Y127259
X4445Y122179
X3175Y123449
X3175Y124719
X3175Y125989
X3175Y127259
X3175Y122179
X21006Y109631
X21006Y110901
X21006Y105821
X4445Y84841
X4445Y86111
X4445Y87381
X4445Y88651
X4445Y83571
T5
X10731Y57661
X7112Y55212
X82931Y64011
X14732Y57661
X14732Y61471
X14732Y53851
X18012Y42653
X16171Y46272
X25400Y42167
X81280Y50803
X7747Y96271
X8382Y81793
X16129Y104780
X33655Y97541
X42545Y97541
X13843Y110876
X12370Y107295
X16891Y93096
X17018Y95382
X20574Y92461
X47371Y86619
X48514Y87762
X49784Y84206
X47752Y82047
X2286Y113099
X762Y103129
X7620Y103891
X8255Y113416
X26035Y113416
X40132Y104018
X11811Y93731
X13589Y93731
X32131Y92969
X32131Y91953
X11684Y98811
X13716Y98811
X11684Y102621
X17780Y103256
X19304Y101605
X18669Y99319
X16129Y100716
X3429Y110495
X44069Y109733
X7620Y89413
X7239Y98303
X91440Y112781
X80137Y93223
X79502Y92588
X31115Y82682
X29083Y110749
X46609Y110495
X52451Y91318
X50038Y101732
X52451Y101224
X54991Y100843
X60071Y100081
X57531Y100462
X62611Y99700
X65151Y99319
X67691Y98938
X70231Y98557
X72771Y98176
X75311Y97795
X77851Y97414
X78740Y96271
X54991Y91699
X60071Y92461
X57531Y92080
X62611Y92842
X65151Y93223
X67691Y93604
X70231Y93985
X72771Y94366
X75311Y94747
X77851Y95128
X81280Y112781
X83820Y111511
X86360Y112781
X81280Y110241
X83820Y108971
X81280Y107701
X83820Y106431
X81280Y105161
X83820Y103891
X81280Y102621
X83820Y101351
X81280Y100081
X86360Y89921
X91440Y89921
X88900Y88651
X88582Y86429
X91440Y79761
X84773Y82619
X82550Y82301
X83820Y79761
X81280Y79761
X81280Y84841
X9525Y98303
X762Y93223
X762Y99319
X21590Y94874
X81280Y95001
X88900Y91191
X88900Y96271
X88900Y101351
X88900Y103891
X88900Y106431
X83820Y98811
X88900Y98811
X88900Y108971
X83820Y114051
X88900Y114051
X88900Y111511
X1016Y78237
X10795Y86746
X15875Y78186
X46990Y78491
X1270Y89921
X31750Y96652
X43815Y77856
X41656Y87508
X36195Y80650
X42291Y89159
X46609Y89413
X8636Y109479
X8636Y106558
X12446Y103891
X41529Y94874
X39370Y94874
X12573Y91064
X40640Y93096
X82169Y97541
X81317Y88360
X17272Y84841
X9017Y87635
X38862Y79253
X15494Y94620
X16129Y93223
X8636Y86238
X6236Y86151
X10172Y84726
X25209Y108107
X25387Y81666
X31394Y108107
X25400Y82682
X23654Y89699
X23546Y91350
X23851Y108920
X22619Y92175
X21971Y83444
X25273Y106304
X37846Y108336
X15240Y83444
X11430Y84714
X13843Y107955
X13843Y109373
X27940Y105288
X26162Y103904
X29012Y84135
X32360Y107523
X25781Y104780
X27940Y83825
X36713Y108323
X39815Y86810
X39878Y108336
X37084Y89032
X32258Y102621
X37465Y85336
X29858Y104132
X28448Y85616
X30101Y100564
X30480Y86746
X32283Y103612
X37379Y84308
X29210Y99319
X39929Y85120
X38227Y104145
X34417Y88951
X45720Y87381
X81090Y92461
X39751Y80650
X32893Y88537
X36387Y104386
X38862Y108336
X36449Y87762
X35784Y107604
X37338Y87000
X31369Y101351
X40005Y84206
X31242Y106431
X34798Y84460
X37363Y104551
X35814Y88930
X40767Y108311
X46101Y105542
X40894Y109098
X45979Y106558
X37842Y102338
X44958Y96652
X32258Y90741
X73660Y90683
X35001Y96665
X48755Y91458
X36322Y97287
X47843Y91839
X38481Y101656
X44196Y97287
X32766Y97160
X49403Y90810
X39103Y100983
X43434Y96652
X39452Y97160
X46019Y92601
X37719Y101008
X45107Y92982
X40229Y100307
X45085Y93985
X37859Y97655
X46931Y92220
X38484Y105977
X46482Y96652
X37389Y106003
X45720Y97287
X24663Y108666
X22784Y80472
X6363Y90062
X16002Y79634
X10731Y96271
X7112Y93823
X82931Y102621
X14732Y96271
X14732Y100081
X81090Y15240
X18012Y81263
X16171Y84883
X25400Y80777
X81280Y89413
X7747Y134879
X8382Y120401
X16129Y143388
X33655Y136149
X42545Y136149
X13843Y149484
X12370Y145903
X16891Y131704
X17018Y133990
X20574Y131069
X47371Y125227
X48514Y126370
X49784Y122814
X47752Y120655
X2286Y151707
X762Y141737
X7620Y142499
X8255Y152024
X26035Y152024
X40132Y142626
X11811Y132339
X13589Y132339
X32131Y131577
X32131Y130561
X11684Y137419
X13716Y137419
X11684Y141229
X17780Y141864
X19304Y140213
X18669Y137927
X16129Y139324
X3429Y149103
X44069Y148341
X7620Y128021
X7239Y136911
X91440Y151389
X80137Y131831
X79502Y131196
X31115Y121290
X29083Y149357
X46609Y149103
X52451Y129926
X50038Y140340
X52451Y139832
X54991Y139451
X60071Y138689
X57531Y139070
X62611Y138308
X65151Y137927
X67691Y137546
X70231Y137165
X72771Y136784
X75311Y136403
X77851Y136022
X78740Y134879
X54991Y130307
X60071Y131069
X57531Y130688
X62611Y131450
X65151Y131831
X67691Y132212
X70231Y132593
X72771Y132974
X75311Y133355
X77851Y133736
X81280Y151389
X83820Y150119
X86360Y151389
X81280Y148849
X83820Y147579
X81280Y146309
X83820Y145039
X81280Y143769
X83820Y142499
X81280Y141229
X83820Y139959
X81280Y138689
X86360Y128529
X91440Y128529
X88900Y127259
X88582Y125037
X91440Y118369
X84773Y121227
X82550Y120909
X83820Y118369
X81280Y118369
X81280Y123449
X9525Y136911
X762Y131831
X762Y137927
X21590Y133482
X81280Y133609
X88900Y129799
X88900Y134879
X88900Y139959
X88900Y142499
X88900Y145039
X83820Y137419
X88900Y137419
X88900Y147579
X83820Y152659
X88900Y152659
X88900Y150119
X1016Y116845
X10795Y125354
X15875Y116794
X46990Y117099
X1270Y128529
X31750Y135260
X43815Y116464
X41656Y126116
X36195Y119258
X42291Y127767
X46609Y128021
X8636Y148087
X8636Y145166
X12446Y142499
X41529Y133482
X39370Y133482
X12573Y129672
X40640Y131704
X82169Y136149
X81317Y126968
X17272Y123449
X9017Y126243
X38862Y117861
X15494Y133228
X16129Y131831
X8636Y124846
X6236Y124759
X10172Y123334
X25209Y146715
X25387Y120274
X31394Y146715
X25400Y121290
X23654Y128307
X23546Y129958
X23851Y147528
X22619Y130783
X21971Y122052
X25273Y144912
X37846Y146944
X15240Y122052
X11430Y123322
X13843Y146563
X13843Y147981
X27940Y143896
X26162Y142512
X29012Y122743
X32360Y146131
X25781Y143388
X27940Y122433
X36713Y146931
X39815Y125418
X39878Y146944
X37084Y127640
X32258Y141229
X37465Y123944
X29858Y142740
X28448Y124224
X30101Y139172
X30480Y125354
X32283Y142220
X37379Y122916
X29210Y137927
X39929Y123728
X38227Y142753
X34417Y127559
X45720Y125989
X81090Y131069
X39751Y119258
X32893Y127145
X36387Y142994
X38862Y146944
X36449Y126370
X35784Y146212
X37338Y125608
X31369Y139959
X40005Y122814
X31242Y145039
X34798Y123068
X37363Y143159
X35814Y127538
X40767Y146919
X46101Y144150
X40894Y147706
X45979Y145166
X37842Y140946
X44958Y135260
X32258Y129349
X73660Y129291
X35001Y135273
X48755Y130066
X36322Y135895
X47843Y130447
X38481Y140264
X44196Y135895
X32766Y135768
X49403Y129418
X39103Y139591
X43434Y135260
X39452Y135768
X46019Y131209
X37719Y139616
X45107Y131590
X40229Y138915
X45085Y132593
X37859Y136263
X46931Y130828
X38484Y144585
X46482Y135260
X37389Y144611
X45720Y135895
X24663Y147274
X22784Y119080
X6363Y128670
X16002Y118242
X10731Y134879
X7112Y132431
X82931Y141229
X14732Y134879
X14732Y138689
X14732Y131069
X18012Y119871
X16171Y123491
X25400Y119385
X81280Y128021
X7747Y19050
X8382Y4572
X16129Y27559
X33655Y20320
X42545Y20320
X13843Y33655
X12370Y30074
X16891Y15875
X17018Y18161
X20574Y15240
X47371Y9398
X48514Y10541
X49784Y6985
X47752Y4826
X2286Y35878
X762Y25908
X7620Y26670
X8255Y36195
X26035Y36195
X40132Y26797
X11811Y16510
X13589Y16510
X32131Y15748
X32131Y14732
X11684Y21590
X13716Y21590
X11684Y25400
X17780Y26035
X19304Y24384
X18669Y22098
X16129Y23495
X3429Y33274
X44069Y32512
X7620Y12192
X7239Y21082
X91440Y35560
X80137Y16002
X79502Y15367
X31115Y5461
X29083Y33528
X46609Y33274
X52451Y14097
X50038Y24511
X52451Y24003
X54991Y23622
X60071Y22860
X57531Y23241
X62611Y22479
X65151Y22098
X67691Y21717
X70231Y21336
X72771Y20955
X75311Y20574
X77851Y20193
X78740Y19050
X54991Y14478
X60071Y15240
X57531Y14859
X62611Y15621
X65151Y16002
X67691Y16383
X70231Y16764
X72771Y17145
X75311Y17526
X77851Y17907
X81280Y35560
X83820Y34290
X86360Y35560
X81280Y33020
X83820Y31750
X81280Y30480
X83820Y29210
X81280Y27940
X83820Y26670
X81280Y25400
X83820Y24130
X81280Y22860
X86360Y12700
X91440Y12700
X88900Y11430
X88582Y9208
X91440Y2540
X84773Y5398
X82550Y5080
X83820Y2540
X81280Y2540
X81280Y7620
X9525Y21082
X762Y16002
X762Y22098
X21590Y17653
X81280Y17780
X88900Y13970
X88900Y19050
X88900Y24130
X88900Y26670
X88900Y29210
X83820Y21590
X88900Y21590
X88900Y31750
X83820Y36830
X88900Y36830
X88900Y34290
X1016Y1016
X10795Y9525
X15875Y965
X46990Y1270
X1270Y12700
X31750Y19431
X43815Y635
X41656Y10287
X36195Y3429
X42291Y11938
X46609Y12192
X8636Y32258
X8636Y29337
X12446Y26670
X41529Y17653
X39370Y17653
X12573Y13843
X40640Y15875
X82169Y20320
X81317Y11139
X17272Y7620
X9017Y10414
X38862Y2032
X15494Y17399
X16129Y16002
X8636Y9017
X6236Y8930
X10172Y7505
X25209Y30886
X25387Y4445
X31394Y30886
X25400Y5461
X23654Y12478
X23546Y14129
X23851Y31699
X22619Y14954
X21971Y6223
X25273Y29083
X37846Y31115
X15240Y6223
X11430Y7493
X13843Y30734
X13843Y32152
X27940Y28067
X26162Y26683
X29012Y6914
X32360Y30302
X25781Y27559
X27940Y6604
X36713Y31102
X39815Y9589
X39878Y31115
X37084Y11811
X32258Y25400
X37465Y8115
X29858Y26911
X28448Y8395
X30101Y23343
X30480Y9525
X32283Y26391
X37379Y7087
X29210Y22098
X39929Y7899
X38227Y26924
X34417Y11730
X45720Y10160
X39751Y3429
X32893Y11316
X36387Y27165
X38862Y31115
X36449Y10541
X35784Y30383
X37338Y9779
X31369Y24130
X40005Y6985
X31242Y29210
X34798Y7239
X37363Y27330
X35814Y11709
X40767Y31090
X46101Y28321
X40894Y31877
X45979Y29337
X37842Y25117
X44958Y19431
X32258Y13520
X73660Y13462
X35001Y19444
X48755Y14237
X36322Y20066
X47843Y14618
X38481Y24435
X44196Y20066
X32766Y19939
X49403Y13589
X39103Y23762
X43434Y19431
X39452Y19939
X46019Y15380
X37719Y23787
X45107Y15761
X40229Y23086
X45085Y16764
X37859Y20434
X46931Y14999
X38484Y28756
X46482Y19431
X37389Y28781
X45720Y20066
X24663Y31445
X22784Y3251
X6363Y12840
X16002Y2413
X10731Y19050
X7112Y16602
X82931Y25400
X14732Y19050
X14732Y22860
X14732Y15240
X18012Y4042
X16171Y7662
X25400Y3556
X81280Y12192
X7747Y57661
X8382Y43183
X16129Y66170
X33655Y58931
X42545Y58931
X13843Y72266
X12370Y68684
X16891Y54486
X17018Y56772
X20574Y53851
X47371Y48009
X48514Y49152
X49784Y45596
X47752Y43437
X2286Y74488
X762Y64519
X7620Y65281
X8255Y74806
X26035Y74806
X40132Y65408
X11811Y55121
X13589Y55121
X32131Y54359
X32131Y53343
X11684Y60201
X13716Y60201
X11684Y64011
X17780Y64646
X19304Y62995
X18669Y60709
X16129Y62106
X3429Y71885
X44069Y71123
X7620Y50803
X7239Y59693
X91440Y74171
X80137Y54613
X79502Y53978
X31115Y44072
X29083Y72139
X46609Y71885
X52451Y52708
X50038Y63122
X52451Y62614
X54991Y62233
X60071Y61471
X57531Y61852
X62611Y61090
X14732Y92461
X65151Y60709
X67691Y60328
X70231Y59947
X72771Y59566
X75311Y59185
X77851Y58804
X78740Y57661
X54991Y53089
X60071Y53851
X57531Y53470
X62611Y54232
X65151Y54613
X67691Y54994
X70231Y55375
X72771Y55756
X75311Y56137
X77851Y56518
X81280Y74171
X83820Y72901
X86360Y74171
X81280Y71631
X83820Y70361
X81280Y69091
X83820Y67821
X81280Y66551
X83820Y65281
X81280Y64011
X83820Y62741
X81280Y61471
X86360Y51311
X91440Y51311
X88900Y50041
X88582Y47818
X91440Y41151
X84773Y44008
X82550Y43691
X83820Y41151
X81280Y41151
X81280Y46231
X9525Y59693
X762Y54613
X762Y60709
X21590Y56264
X81280Y56391
X88900Y52581
X88900Y57661
X88900Y62741
X88900Y65281
X88900Y67821
X83820Y60201
X88900Y60201
X88900Y70361
X83820Y75441
X88900Y75441
X88900Y72901
X1016Y39627
X10795Y48136
X15875Y39576
X46990Y39881
X1270Y51311
X31750Y58042
X43815Y39246
X41656Y48898
X36195Y42040
X42291Y50549
X46609Y50803
X8636Y70869
X8636Y67948
X12446Y65281
X41529Y56264
X39370Y56264
X12573Y52454
X40640Y54486
X82169Y58931
X81317Y49749
X17272Y46231
X9017Y49025
X38862Y40643
X15494Y56010
X16129Y54613
X8636Y47628
X6236Y47540
X10172Y46116
X25209Y69497
X25387Y43056
X31394Y69497
X25400Y44072
X23654Y51088
X23546Y52739
X23851Y70310
X22619Y53565
X21971Y44834
X25273Y67694
X37846Y69726
X15240Y44834
X11430Y46104
X13843Y69345
X13843Y70762
X27940Y66678
X26162Y65293
X29012Y45525
X32360Y68913
X25781Y66170
X27940Y45215
X36713Y69713
X39815Y48199
X39878Y69726
X37084Y50422
X32258Y64011
X37465Y46726
X29858Y65521
X28448Y47005
X30101Y61953
X30480Y48136
X32283Y65001
X37379Y45697
X29210Y60709
X39929Y46510
X38227Y65535
X34417Y50340
X45720Y48771
X81090Y53851
X39751Y42040
X32893Y49926
X36387Y65776
X38862Y69726
X36449Y49152
X35784Y68994
X37338Y48390
X31369Y62741
X40005Y45596
X31242Y67821
X34798Y45850
X37363Y65941
X35814Y50320
X40767Y69700
X46101Y66932
X40894Y70488
X45979Y67948
X37842Y63728
X44958Y58042
X32258Y52131
X73660Y52073
X35001Y58054
X48755Y52847
X36322Y58677
X47843Y53228
X38481Y63045
X44196Y58677
X32766Y58550
X49403Y52200
X39103Y62372
X43434Y58042
X39452Y58550
X46019Y53990
X37719Y62398
X45107Y54371
X40229Y61697
X45085Y55375
X37859Y59044
X46931Y53609
X38484Y67366
X46482Y58042
X37389Y67392
X45720Y58677
X24663Y70056
X22784Y41862
X6363Y51451
X16002Y41024
M30