G75*
%MOIN*%
%OFA0B0*%
%FSLAX25Y25*%
%IPPOS*%
%LPD*%
%AMOC8*
5,1,8,0,0,1.08239X$1,22.5*
%
%ADD10C,0.00800*%
%ADD11C,0.00050*%
D10*
X0286586Y0029840D02*
X0286586Y0036152D01*
X0289736Y0036152D01*
X0289736Y0040376D01*
X0286586Y0029840D02*
X0356284Y0029840D01*
X0356284Y0036152D01*
X0353134Y0036152D01*
X0353134Y0040376D01*
X0356284Y0156848D02*
X0286586Y0156848D01*
X0286586Y0163160D01*
X0289736Y0163160D01*
X0289736Y0167384D01*
X0353134Y0167384D02*
X0353134Y0163160D01*
X0356284Y0163160D01*
X0356284Y0156848D01*
X0356284Y0283856D02*
X0286586Y0283856D01*
X0286586Y0290168D01*
X0289736Y0290168D01*
X0289736Y0294391D01*
X0353134Y0294391D02*
X0353134Y0290168D01*
X0356284Y0290168D01*
X0356284Y0283856D01*
X0356284Y0410864D02*
X0286586Y0410864D01*
X0286586Y0417176D01*
X0289736Y0417176D01*
X0289736Y0421399D01*
X0353134Y0421399D02*
X0353134Y0417176D01*
X0356284Y0417176D01*
X0356284Y0410864D01*
D11*
X0238586Y0032523D02*
X0238628Y0032108D01*
X0238677Y0031906D01*
X0238739Y0031707D01*
X0238811Y0031512D01*
X0239010Y0031146D01*
X0239272Y0030822D01*
X0239421Y0030677D01*
X0239747Y0030419D01*
X0240114Y0030220D01*
X0240510Y0030090D01*
X0240713Y0030046D01*
X0241128Y0030005D01*
X0250017Y0030004D01*
X0250020Y0030079D01*
X0250028Y0033882D01*
X0249821Y0033893D01*
X0249829Y0033893D01*
X0249834Y0033893D02*
X0250031Y0033893D01*
X0250031Y0033880D02*
X0249816Y0033894D01*
X0249857Y0034002D01*
X0248883Y0034002D01*
X0248855Y0033907D01*
X0248324Y0032107D01*
X0248266Y0032115D01*
X0247734Y0033998D01*
X0247598Y0034002D01*
X0246972Y0034002D01*
X0246796Y0034003D01*
X0246259Y0032171D01*
X0246220Y0032031D01*
X0245669Y0033851D01*
X0245624Y0034002D01*
X0244789Y0034002D01*
X0244520Y0033994D01*
X0244372Y0034002D01*
X0243606Y0034002D01*
X0243611Y0033955D01*
X0243407Y0033921D01*
X0243409Y0034002D01*
X0242444Y0034002D01*
X0242445Y0033859D01*
X0241871Y0033573D01*
X0241760Y0033680D01*
X0241408Y0033904D01*
X0241209Y0033955D01*
X0240798Y0034027D01*
X0240560Y0034027D01*
X0240562Y0033845D01*
X0240562Y0033219D01*
X0240720Y0033234D01*
X0240923Y0033189D01*
X0241093Y0033072D01*
X0241209Y0032903D01*
X0241273Y0032708D01*
X0241297Y0032502D01*
X0241267Y0032295D01*
X0241190Y0032104D01*
X0241061Y0031946D01*
X0240883Y0031846D01*
X0240679Y0031811D01*
X0240562Y0031793D01*
X0240562Y0031007D01*
X0240699Y0031028D01*
X0240906Y0031051D01*
X0241317Y0031122D01*
X0241502Y0031210D01*
X0241855Y0031433D01*
X0242084Y0031781D01*
X0242176Y0031964D01*
X0242249Y0032375D01*
X0242263Y0032580D01*
X0242190Y0032991D01*
X0242133Y0033188D01*
X0241874Y0033568D01*
X0242448Y0033866D01*
X0242448Y0031059D01*
X0242494Y0031059D01*
X0243328Y0031059D01*
X0243411Y0031065D01*
X0243407Y0033925D01*
X0243610Y0033959D01*
X0243607Y0031062D01*
X0243748Y0031059D01*
X0244374Y0031059D01*
X0244569Y0031072D01*
X0244569Y0033994D01*
X0244684Y0033993D01*
X0244729Y0033864D01*
X0245742Y0031062D01*
X0245889Y0031059D01*
X0246514Y0031059D01*
X0246716Y0031069D01*
X0247269Y0032863D01*
X0247331Y0032691D01*
X0247837Y0031068D01*
X0248007Y0031059D01*
X0248633Y0031059D01*
X0248792Y0031061D01*
X0249821Y0033893D01*
X0249834Y0033941D02*
X0250030Y0033941D01*
X0250029Y0033990D02*
X0249852Y0033990D01*
X0249804Y0033844D02*
X0250028Y0033844D01*
X0250031Y0033880D02*
X0250029Y0034002D01*
X0250983Y0034002D01*
X0250989Y0033889D01*
X0250989Y0033651D01*
X0251085Y0033723D01*
X0251246Y0033855D01*
X0251431Y0033950D01*
X0251630Y0034010D01*
X0251837Y0034033D01*
X0252045Y0034020D01*
X0252249Y0033984D01*
X0252448Y0033920D01*
X0252630Y0033819D01*
X0252791Y0033687D01*
X0252928Y0033532D01*
X0253041Y0033358D01*
X0253128Y0033168D01*
X0253180Y0032967D01*
X0253213Y0032761D01*
X0253229Y0032553D01*
X0253215Y0032345D01*
X0253186Y0032140D01*
X0253136Y0031937D01*
X0253053Y0031746D01*
X0252947Y0031568D01*
X0252817Y0031406D01*
X0252662Y0031267D01*
X0252481Y0031163D01*
X0252287Y0031089D01*
X0252085Y0031042D01*
X0251877Y0031023D01*
X0251669Y0031037D01*
X0251467Y0031085D01*
X0251279Y0031174D01*
X0251114Y0031301D01*
X0250989Y0031419D01*
X0250989Y0030168D01*
X0250993Y0030004D01*
X0251659Y0030004D01*
X0251867Y0030013D01*
X0252282Y0030055D01*
X0252681Y0030176D01*
X0252871Y0030258D01*
X0253234Y0030463D01*
X0253556Y0030729D01*
X0253826Y0031046D01*
X0253943Y0031217D01*
X0254137Y0031586D01*
X0254261Y0031984D01*
X0254294Y0032189D01*
X0254315Y0032397D01*
X0254326Y0032604D01*
X0254284Y0033019D01*
X0254233Y0033220D01*
X0254171Y0033420D01*
X0254096Y0033613D01*
X0253897Y0033980D01*
X0253632Y0034302D01*
X0253482Y0034445D01*
X0253321Y0034578D01*
X0253154Y0034701D01*
X0252787Y0034900D01*
X0252390Y0035027D01*
X0252187Y0035068D01*
X0251772Y0035109D01*
X0241136Y0035109D01*
X0241061Y0035102D01*
X0240646Y0035060D01*
X0240247Y0034941D01*
X0240055Y0034861D01*
X0239691Y0034659D01*
X0239369Y0034393D01*
X0239230Y0034239D01*
X0239097Y0034078D01*
X0238978Y0033908D01*
X0238781Y0033541D01*
X0238657Y0033143D01*
X0238621Y0032938D01*
X0238586Y0032523D01*
X0238587Y0032534D02*
X0241293Y0032534D01*
X0241295Y0032486D02*
X0238590Y0032486D01*
X0238595Y0032437D02*
X0241288Y0032437D01*
X0241280Y0032389D02*
X0238600Y0032389D01*
X0238605Y0032340D02*
X0241273Y0032340D01*
X0241265Y0032292D02*
X0238609Y0032292D01*
X0238614Y0032243D02*
X0241246Y0032243D01*
X0241226Y0032195D02*
X0238619Y0032195D01*
X0238624Y0032146D02*
X0241207Y0032146D01*
X0241185Y0032098D02*
X0238631Y0032098D01*
X0238642Y0032049D02*
X0241145Y0032049D01*
X0241106Y0032001D02*
X0238654Y0032001D01*
X0238666Y0031952D02*
X0241066Y0031952D01*
X0240986Y0031904D02*
X0238678Y0031904D01*
X0238693Y0031855D02*
X0240899Y0031855D01*
X0240652Y0031807D02*
X0238708Y0031807D01*
X0238723Y0031758D02*
X0240562Y0031758D01*
X0240562Y0031710D02*
X0238738Y0031710D01*
X0238756Y0031661D02*
X0240562Y0031661D01*
X0240562Y0031613D02*
X0238774Y0031613D01*
X0238792Y0031564D02*
X0240562Y0031564D01*
X0240562Y0031516D02*
X0238810Y0031516D01*
X0238835Y0031467D02*
X0240562Y0031467D01*
X0240562Y0031419D02*
X0238862Y0031419D01*
X0238888Y0031370D02*
X0240562Y0031370D01*
X0240562Y0031322D02*
X0238914Y0031322D01*
X0238941Y0031273D02*
X0240562Y0031273D01*
X0240562Y0031225D02*
X0238967Y0031225D01*
X0238993Y0031176D02*
X0240562Y0031176D01*
X0240562Y0031128D02*
X0239025Y0031128D01*
X0239064Y0031079D02*
X0240562Y0031079D01*
X0240562Y0031030D02*
X0239103Y0031030D01*
X0239143Y0030982D02*
X0250022Y0030982D01*
X0250022Y0031030D02*
X0240721Y0031030D01*
X0241067Y0031079D02*
X0242448Y0031079D01*
X0242448Y0031128D02*
X0241328Y0031128D01*
X0241431Y0031176D02*
X0242448Y0031176D01*
X0242448Y0031225D02*
X0241526Y0031225D01*
X0241602Y0031273D02*
X0242448Y0031273D01*
X0242448Y0031322D02*
X0241679Y0031322D01*
X0241756Y0031370D02*
X0242448Y0031370D01*
X0242448Y0031419D02*
X0241832Y0031419D01*
X0241877Y0031467D02*
X0242448Y0031467D01*
X0242448Y0031516D02*
X0241909Y0031516D01*
X0241941Y0031564D02*
X0242448Y0031564D01*
X0242448Y0031613D02*
X0241973Y0031613D01*
X0242005Y0031661D02*
X0242448Y0031661D01*
X0242448Y0031710D02*
X0242037Y0031710D01*
X0242069Y0031758D02*
X0242448Y0031758D01*
X0242448Y0031807D02*
X0242097Y0031807D01*
X0242121Y0031855D02*
X0242448Y0031855D01*
X0242448Y0031904D02*
X0242145Y0031904D01*
X0242170Y0031952D02*
X0242448Y0031952D01*
X0242448Y0032001D02*
X0242182Y0032001D01*
X0242191Y0032049D02*
X0242448Y0032049D01*
X0242448Y0032098D02*
X0242199Y0032098D01*
X0242208Y0032146D02*
X0242448Y0032146D01*
X0242448Y0032195D02*
X0242217Y0032195D01*
X0242225Y0032243D02*
X0242448Y0032243D01*
X0242448Y0032292D02*
X0242234Y0032292D01*
X0242242Y0032340D02*
X0242448Y0032340D01*
X0242448Y0032389D02*
X0242250Y0032389D01*
X0242253Y0032437D02*
X0242448Y0032437D01*
X0242448Y0032486D02*
X0242256Y0032486D01*
X0242260Y0032534D02*
X0242448Y0032534D01*
X0242448Y0032583D02*
X0242262Y0032583D01*
X0242254Y0032631D02*
X0242448Y0032631D01*
X0242448Y0032680D02*
X0242245Y0032680D01*
X0242237Y0032728D02*
X0242448Y0032728D01*
X0242448Y0032777D02*
X0242228Y0032777D01*
X0242220Y0032825D02*
X0242448Y0032825D01*
X0242448Y0032874D02*
X0242211Y0032874D01*
X0242203Y0032922D02*
X0242448Y0032922D01*
X0242448Y0032971D02*
X0242194Y0032971D01*
X0242182Y0033019D02*
X0242448Y0033019D01*
X0242448Y0033068D02*
X0242168Y0033068D01*
X0242154Y0033116D02*
X0242448Y0033116D01*
X0242448Y0033165D02*
X0242140Y0033165D01*
X0242116Y0033213D02*
X0242448Y0033213D01*
X0242448Y0033262D02*
X0242083Y0033262D01*
X0242050Y0033311D02*
X0242448Y0033311D01*
X0242448Y0033359D02*
X0242017Y0033359D01*
X0241984Y0033408D02*
X0242448Y0033408D01*
X0242448Y0033456D02*
X0241951Y0033456D01*
X0241918Y0033505D02*
X0242448Y0033505D01*
X0242448Y0033553D02*
X0241885Y0033553D01*
X0241841Y0033602D02*
X0241929Y0033602D01*
X0241939Y0033602D02*
X0242448Y0033602D01*
X0242448Y0033650D02*
X0242033Y0033650D01*
X0242027Y0033650D02*
X0241790Y0033650D01*
X0241730Y0033699D02*
X0242124Y0033699D01*
X0242126Y0033699D02*
X0242448Y0033699D01*
X0242448Y0033747D02*
X0242221Y0033747D01*
X0242220Y0033747D02*
X0241654Y0033747D01*
X0241578Y0033796D02*
X0242313Y0033796D01*
X0242318Y0033796D02*
X0242448Y0033796D01*
X0242448Y0033844D02*
X0242415Y0033844D01*
X0242407Y0033844D02*
X0241502Y0033844D01*
X0241427Y0033893D02*
X0242445Y0033893D01*
X0242445Y0033941D02*
X0241263Y0033941D01*
X0241010Y0033990D02*
X0242444Y0033990D01*
X0243408Y0033990D02*
X0243607Y0033990D01*
X0243610Y0033941D02*
X0243527Y0033941D01*
X0243503Y0033941D02*
X0243407Y0033941D01*
X0243407Y0033893D02*
X0243610Y0033893D01*
X0243610Y0033844D02*
X0243407Y0033844D01*
X0243407Y0033796D02*
X0243610Y0033796D01*
X0243610Y0033747D02*
X0243407Y0033747D01*
X0243407Y0033699D02*
X0243610Y0033699D01*
X0243610Y0033650D02*
X0243407Y0033650D01*
X0243407Y0033602D02*
X0243610Y0033602D01*
X0243610Y0033553D02*
X0243407Y0033553D01*
X0243407Y0033505D02*
X0243610Y0033505D01*
X0243610Y0033456D02*
X0243407Y0033456D01*
X0243408Y0033408D02*
X0243610Y0033408D01*
X0243610Y0033359D02*
X0243408Y0033359D01*
X0243408Y0033311D02*
X0243610Y0033311D01*
X0243610Y0033262D02*
X0243408Y0033262D01*
X0243408Y0033213D02*
X0243609Y0033213D01*
X0243609Y0033165D02*
X0243408Y0033165D01*
X0243408Y0033116D02*
X0243609Y0033116D01*
X0243609Y0033068D02*
X0243408Y0033068D01*
X0243408Y0033019D02*
X0243609Y0033019D01*
X0243609Y0032971D02*
X0243408Y0032971D01*
X0243408Y0032922D02*
X0243609Y0032922D01*
X0243609Y0032874D02*
X0243408Y0032874D01*
X0243408Y0032825D02*
X0243609Y0032825D01*
X0243609Y0032777D02*
X0243408Y0032777D01*
X0243408Y0032728D02*
X0243609Y0032728D01*
X0243609Y0032680D02*
X0243409Y0032680D01*
X0243409Y0032631D02*
X0243609Y0032631D01*
X0243609Y0032583D02*
X0243409Y0032583D01*
X0243409Y0032534D02*
X0243609Y0032534D01*
X0243608Y0032486D02*
X0243409Y0032486D01*
X0243409Y0032437D02*
X0243608Y0032437D01*
X0243608Y0032389D02*
X0243409Y0032389D01*
X0243409Y0032340D02*
X0243608Y0032340D01*
X0243608Y0032292D02*
X0243409Y0032292D01*
X0243409Y0032243D02*
X0243608Y0032243D01*
X0243608Y0032195D02*
X0243409Y0032195D01*
X0243409Y0032146D02*
X0243608Y0032146D01*
X0243608Y0032098D02*
X0243409Y0032098D01*
X0243409Y0032049D02*
X0243608Y0032049D01*
X0243608Y0032001D02*
X0243409Y0032001D01*
X0243410Y0031952D02*
X0243608Y0031952D01*
X0243608Y0031904D02*
X0243410Y0031904D01*
X0243410Y0031855D02*
X0243608Y0031855D01*
X0243608Y0031807D02*
X0243410Y0031807D01*
X0243410Y0031758D02*
X0243607Y0031758D01*
X0243607Y0031710D02*
X0243410Y0031710D01*
X0243410Y0031661D02*
X0243607Y0031661D01*
X0243607Y0031613D02*
X0243410Y0031613D01*
X0243410Y0031564D02*
X0243607Y0031564D01*
X0243607Y0031516D02*
X0243410Y0031516D01*
X0243410Y0031467D02*
X0243607Y0031467D01*
X0243607Y0031419D02*
X0243410Y0031419D01*
X0243410Y0031370D02*
X0243607Y0031370D01*
X0243607Y0031322D02*
X0243410Y0031322D01*
X0243410Y0031273D02*
X0243607Y0031273D01*
X0243607Y0031225D02*
X0243411Y0031225D01*
X0243411Y0031176D02*
X0243607Y0031176D01*
X0243607Y0031128D02*
X0243411Y0031128D01*
X0243411Y0031079D02*
X0243607Y0031079D01*
X0244569Y0031079D02*
X0245736Y0031079D01*
X0245719Y0031128D02*
X0244569Y0031128D01*
X0244569Y0031176D02*
X0245701Y0031176D01*
X0245683Y0031225D02*
X0244569Y0031225D01*
X0244569Y0031273D02*
X0245666Y0031273D01*
X0245648Y0031322D02*
X0244569Y0031322D01*
X0244569Y0031370D02*
X0245631Y0031370D01*
X0245613Y0031419D02*
X0244569Y0031419D01*
X0244569Y0031467D02*
X0245596Y0031467D01*
X0245578Y0031516D02*
X0244569Y0031516D01*
X0244569Y0031564D02*
X0245561Y0031564D01*
X0245543Y0031613D02*
X0244569Y0031613D01*
X0244569Y0031661D02*
X0245526Y0031661D01*
X0245508Y0031710D02*
X0244569Y0031710D01*
X0244569Y0031758D02*
X0245490Y0031758D01*
X0245473Y0031807D02*
X0244569Y0031807D01*
X0244569Y0031855D02*
X0245455Y0031855D01*
X0245438Y0031904D02*
X0244569Y0031904D01*
X0244569Y0031952D02*
X0245420Y0031952D01*
X0245403Y0032001D02*
X0244569Y0032001D01*
X0244569Y0032049D02*
X0245385Y0032049D01*
X0245368Y0032098D02*
X0244569Y0032098D01*
X0244569Y0032146D02*
X0245350Y0032146D01*
X0245333Y0032195D02*
X0244569Y0032195D01*
X0244569Y0032243D02*
X0245315Y0032243D01*
X0245297Y0032292D02*
X0244569Y0032292D01*
X0244569Y0032340D02*
X0245280Y0032340D01*
X0245262Y0032389D02*
X0244569Y0032389D01*
X0244569Y0032437D02*
X0245245Y0032437D01*
X0245227Y0032486D02*
X0244569Y0032486D01*
X0244569Y0032534D02*
X0245210Y0032534D01*
X0245192Y0032583D02*
X0244569Y0032583D01*
X0244569Y0032631D02*
X0245175Y0032631D01*
X0245157Y0032680D02*
X0244569Y0032680D01*
X0244569Y0032728D02*
X0245140Y0032728D01*
X0245122Y0032777D02*
X0244569Y0032777D01*
X0244569Y0032825D02*
X0245104Y0032825D01*
X0245087Y0032874D02*
X0244569Y0032874D01*
X0244569Y0032922D02*
X0245069Y0032922D01*
X0245052Y0032971D02*
X0244569Y0032971D01*
X0244569Y0033019D02*
X0245034Y0033019D01*
X0245017Y0033068D02*
X0244569Y0033068D01*
X0244569Y0033116D02*
X0244999Y0033116D01*
X0244982Y0033165D02*
X0244569Y0033165D01*
X0244569Y0033213D02*
X0244964Y0033213D01*
X0244946Y0033262D02*
X0244569Y0033262D01*
X0244569Y0033311D02*
X0244929Y0033311D01*
X0244911Y0033359D02*
X0244569Y0033359D01*
X0244569Y0033408D02*
X0244894Y0033408D01*
X0244876Y0033456D02*
X0244569Y0033456D01*
X0244569Y0033505D02*
X0244859Y0033505D01*
X0244841Y0033553D02*
X0244569Y0033553D01*
X0244569Y0033602D02*
X0244824Y0033602D01*
X0244806Y0033650D02*
X0244569Y0033650D01*
X0244569Y0033699D02*
X0244789Y0033699D01*
X0244771Y0033747D02*
X0244569Y0033747D01*
X0244569Y0033796D02*
X0244753Y0033796D01*
X0244736Y0033844D02*
X0244569Y0033844D01*
X0244569Y0033893D02*
X0244719Y0033893D01*
X0244702Y0033941D02*
X0244569Y0033941D01*
X0244569Y0033990D02*
X0244685Y0033990D01*
X0245627Y0033990D02*
X0246792Y0033990D01*
X0246778Y0033941D02*
X0245642Y0033941D01*
X0245657Y0033893D02*
X0246763Y0033893D01*
X0246749Y0033844D02*
X0245671Y0033844D01*
X0245686Y0033796D02*
X0246735Y0033796D01*
X0246721Y0033747D02*
X0245701Y0033747D01*
X0245716Y0033699D02*
X0246707Y0033699D01*
X0246692Y0033650D02*
X0245730Y0033650D01*
X0245745Y0033602D02*
X0246678Y0033602D01*
X0246664Y0033553D02*
X0245760Y0033553D01*
X0245774Y0033505D02*
X0246650Y0033505D01*
X0246636Y0033456D02*
X0245789Y0033456D01*
X0245804Y0033408D02*
X0246621Y0033408D01*
X0246607Y0033359D02*
X0245818Y0033359D01*
X0245833Y0033311D02*
X0246593Y0033311D01*
X0246579Y0033262D02*
X0245848Y0033262D01*
X0245862Y0033213D02*
X0246564Y0033213D01*
X0246550Y0033165D02*
X0245877Y0033165D01*
X0245892Y0033116D02*
X0246536Y0033116D01*
X0246522Y0033068D02*
X0245906Y0033068D01*
X0245921Y0033019D02*
X0246508Y0033019D01*
X0246493Y0032971D02*
X0245936Y0032971D01*
X0245951Y0032922D02*
X0246479Y0032922D01*
X0246465Y0032874D02*
X0245965Y0032874D01*
X0245980Y0032825D02*
X0246451Y0032825D01*
X0246437Y0032777D02*
X0245995Y0032777D01*
X0246009Y0032728D02*
X0246422Y0032728D01*
X0246408Y0032680D02*
X0246024Y0032680D01*
X0246039Y0032631D02*
X0246394Y0032631D01*
X0246380Y0032583D02*
X0246053Y0032583D01*
X0246068Y0032534D02*
X0246365Y0032534D01*
X0246351Y0032486D02*
X0246083Y0032486D01*
X0246097Y0032437D02*
X0246337Y0032437D01*
X0246323Y0032389D02*
X0246112Y0032389D01*
X0246127Y0032340D02*
X0246309Y0032340D01*
X0246294Y0032292D02*
X0246142Y0032292D01*
X0246156Y0032243D02*
X0246280Y0032243D01*
X0246266Y0032195D02*
X0246171Y0032195D01*
X0246186Y0032146D02*
X0246252Y0032146D01*
X0246239Y0032098D02*
X0246200Y0032098D01*
X0246215Y0032049D02*
X0246226Y0032049D01*
X0246943Y0031807D02*
X0247606Y0031807D01*
X0247591Y0031855D02*
X0246958Y0031855D01*
X0246973Y0031904D02*
X0247576Y0031904D01*
X0247561Y0031952D02*
X0246988Y0031952D01*
X0247003Y0032001D02*
X0247546Y0032001D01*
X0247531Y0032049D02*
X0247018Y0032049D01*
X0247033Y0032098D02*
X0247516Y0032098D01*
X0247501Y0032146D02*
X0247048Y0032146D01*
X0247063Y0032195D02*
X0247485Y0032195D01*
X0247470Y0032243D02*
X0247078Y0032243D01*
X0247093Y0032292D02*
X0247455Y0032292D01*
X0247440Y0032340D02*
X0247108Y0032340D01*
X0247123Y0032389D02*
X0247425Y0032389D01*
X0247410Y0032437D02*
X0247138Y0032437D01*
X0247153Y0032486D02*
X0247395Y0032486D01*
X0247380Y0032534D02*
X0247168Y0032534D01*
X0247183Y0032583D02*
X0247364Y0032583D01*
X0247349Y0032631D02*
X0247198Y0032631D01*
X0247213Y0032680D02*
X0247334Y0032680D01*
X0247317Y0032728D02*
X0247228Y0032728D01*
X0247242Y0032777D02*
X0247300Y0032777D01*
X0247282Y0032825D02*
X0247257Y0032825D01*
X0248010Y0033019D02*
X0248593Y0033019D01*
X0248579Y0032971D02*
X0248024Y0032971D01*
X0248038Y0032922D02*
X0248565Y0032922D01*
X0248550Y0032874D02*
X0248051Y0032874D01*
X0248065Y0032825D02*
X0248536Y0032825D01*
X0248522Y0032777D02*
X0248079Y0032777D01*
X0248092Y0032728D02*
X0248508Y0032728D01*
X0248493Y0032680D02*
X0248106Y0032680D01*
X0248120Y0032631D02*
X0248479Y0032631D01*
X0248465Y0032583D02*
X0248134Y0032583D01*
X0248147Y0032534D02*
X0248450Y0032534D01*
X0248436Y0032486D02*
X0248161Y0032486D01*
X0248175Y0032437D02*
X0248422Y0032437D01*
X0248407Y0032389D02*
X0248188Y0032389D01*
X0248202Y0032340D02*
X0248393Y0032340D01*
X0248379Y0032292D02*
X0248216Y0032292D01*
X0248230Y0032243D02*
X0248364Y0032243D01*
X0248350Y0032195D02*
X0248243Y0032195D01*
X0248257Y0032146D02*
X0248336Y0032146D01*
X0249080Y0031855D02*
X0250024Y0031855D01*
X0250024Y0031807D02*
X0249063Y0031807D01*
X0249045Y0031758D02*
X0250024Y0031758D01*
X0250024Y0031710D02*
X0249027Y0031710D01*
X0249010Y0031661D02*
X0250024Y0031661D01*
X0250024Y0031613D02*
X0248992Y0031613D01*
X0248975Y0031564D02*
X0250023Y0031564D01*
X0250023Y0031516D02*
X0248957Y0031516D01*
X0248939Y0031467D02*
X0250023Y0031467D01*
X0250023Y0031419D02*
X0248922Y0031419D01*
X0248904Y0031370D02*
X0250023Y0031370D01*
X0250023Y0031322D02*
X0248886Y0031322D01*
X0248869Y0031273D02*
X0250023Y0031273D01*
X0250023Y0031225D02*
X0248851Y0031225D01*
X0248833Y0031176D02*
X0250023Y0031176D01*
X0250023Y0031128D02*
X0248816Y0031128D01*
X0248798Y0031079D02*
X0250022Y0031079D01*
X0250022Y0030933D02*
X0239182Y0030933D01*
X0239221Y0030885D02*
X0250022Y0030885D01*
X0250022Y0030836D02*
X0239261Y0030836D01*
X0239307Y0030788D02*
X0250022Y0030788D01*
X0250022Y0030739D02*
X0239357Y0030739D01*
X0239406Y0030691D02*
X0250022Y0030691D01*
X0250022Y0030642D02*
X0239464Y0030642D01*
X0239526Y0030594D02*
X0250021Y0030594D01*
X0250021Y0030545D02*
X0239587Y0030545D01*
X0239648Y0030497D02*
X0250021Y0030497D01*
X0250021Y0030448D02*
X0239710Y0030448D01*
X0239782Y0030400D02*
X0250021Y0030400D01*
X0250021Y0030351D02*
X0239871Y0030351D01*
X0239961Y0030303D02*
X0250021Y0030303D01*
X0250021Y0030254D02*
X0240050Y0030254D01*
X0240156Y0030206D02*
X0250021Y0030206D01*
X0250021Y0030157D02*
X0240304Y0030157D01*
X0240453Y0030109D02*
X0250020Y0030109D01*
X0250019Y0030060D02*
X0240648Y0030060D01*
X0241056Y0030012D02*
X0250017Y0030012D01*
X0250992Y0030060D02*
X0252301Y0030060D01*
X0252460Y0030109D02*
X0250990Y0030109D01*
X0250989Y0030157D02*
X0252619Y0030157D01*
X0252750Y0030206D02*
X0250989Y0030206D01*
X0250989Y0030254D02*
X0252862Y0030254D01*
X0252950Y0030303D02*
X0250989Y0030303D01*
X0250989Y0030351D02*
X0253036Y0030351D01*
X0253122Y0030400D02*
X0250989Y0030400D01*
X0250989Y0030448D02*
X0253207Y0030448D01*
X0253275Y0030497D02*
X0250989Y0030497D01*
X0250989Y0030545D02*
X0253333Y0030545D01*
X0253392Y0030594D02*
X0250989Y0030594D01*
X0250989Y0030642D02*
X0253451Y0030642D01*
X0253510Y0030691D02*
X0250989Y0030691D01*
X0250989Y0030739D02*
X0253565Y0030739D01*
X0253606Y0030788D02*
X0250989Y0030788D01*
X0250989Y0030836D02*
X0253648Y0030836D01*
X0253689Y0030885D02*
X0250989Y0030885D01*
X0250989Y0030933D02*
X0253730Y0030933D01*
X0253772Y0030982D02*
X0250989Y0030982D01*
X0250989Y0031030D02*
X0251760Y0031030D01*
X0251960Y0031030D02*
X0253813Y0031030D01*
X0253849Y0031079D02*
X0252243Y0031079D01*
X0252387Y0031128D02*
X0253882Y0031128D01*
X0253915Y0031176D02*
X0252503Y0031176D01*
X0252588Y0031225D02*
X0253947Y0031225D01*
X0253972Y0031273D02*
X0252669Y0031273D01*
X0252723Y0031322D02*
X0253998Y0031322D01*
X0254023Y0031370D02*
X0252777Y0031370D01*
X0252827Y0031419D02*
X0254049Y0031419D01*
X0254075Y0031467D02*
X0252866Y0031467D01*
X0252905Y0031516D02*
X0254100Y0031516D01*
X0254126Y0031564D02*
X0252944Y0031564D01*
X0252974Y0031613D02*
X0254146Y0031613D01*
X0254161Y0031661D02*
X0253003Y0031661D01*
X0253031Y0031710D02*
X0254176Y0031710D01*
X0254191Y0031758D02*
X0253058Y0031758D01*
X0253079Y0031807D02*
X0254206Y0031807D01*
X0254221Y0031855D02*
X0253101Y0031855D01*
X0253122Y0031904D02*
X0254236Y0031904D01*
X0254251Y0031952D02*
X0253140Y0031952D01*
X0253152Y0032001D02*
X0254264Y0032001D01*
X0254271Y0032049D02*
X0253164Y0032049D01*
X0253176Y0032098D02*
X0254279Y0032098D01*
X0254287Y0032146D02*
X0253187Y0032146D01*
X0253194Y0032195D02*
X0254294Y0032195D01*
X0254299Y0032243D02*
X0253201Y0032243D01*
X0253207Y0032292D02*
X0254304Y0032292D01*
X0254309Y0032340D02*
X0253214Y0032340D01*
X0253218Y0032389D02*
X0254314Y0032389D01*
X0254317Y0032437D02*
X0253221Y0032437D01*
X0253225Y0032486D02*
X0254320Y0032486D01*
X0254322Y0032534D02*
X0253228Y0032534D01*
X0253227Y0032583D02*
X0254325Y0032583D01*
X0254323Y0032631D02*
X0253223Y0032631D01*
X0253220Y0032680D02*
X0254318Y0032680D01*
X0254313Y0032728D02*
X0253216Y0032728D01*
X0253211Y0032777D02*
X0254309Y0032777D01*
X0254304Y0032825D02*
X0253203Y0032825D01*
X0253195Y0032874D02*
X0254299Y0032874D01*
X0254294Y0032922D02*
X0253187Y0032922D01*
X0253179Y0032971D02*
X0254289Y0032971D01*
X0254284Y0033019D02*
X0253167Y0033019D01*
X0253154Y0033068D02*
X0254272Y0033068D01*
X0254259Y0033116D02*
X0253141Y0033116D01*
X0253129Y0033165D02*
X0254247Y0033165D01*
X0254234Y0033213D02*
X0253107Y0033213D01*
X0253085Y0033262D02*
X0254220Y0033262D01*
X0254205Y0033311D02*
X0253063Y0033311D01*
X0253040Y0033359D02*
X0254190Y0033359D01*
X0254174Y0033408D02*
X0253009Y0033408D01*
X0252977Y0033456D02*
X0254157Y0033456D01*
X0254138Y0033505D02*
X0252946Y0033505D01*
X0252910Y0033553D02*
X0254119Y0033553D01*
X0254100Y0033602D02*
X0252867Y0033602D01*
X0252824Y0033650D02*
X0254076Y0033650D01*
X0254050Y0033699D02*
X0252777Y0033699D01*
X0252718Y0033747D02*
X0254023Y0033747D01*
X0253997Y0033796D02*
X0252658Y0033796D01*
X0252585Y0033844D02*
X0253971Y0033844D01*
X0253944Y0033893D02*
X0252498Y0033893D01*
X0252383Y0033941D02*
X0253918Y0033941D01*
X0253889Y0033990D02*
X0252217Y0033990D01*
X0251562Y0033990D02*
X0250984Y0033990D01*
X0250986Y0033941D02*
X0251413Y0033941D01*
X0251319Y0033893D02*
X0250989Y0033893D01*
X0250989Y0033844D02*
X0251233Y0033844D01*
X0251174Y0033796D02*
X0250989Y0033796D01*
X0250989Y0033747D02*
X0251114Y0033747D01*
X0251052Y0033699D02*
X0250989Y0033699D01*
X0251377Y0033202D02*
X0251578Y0033243D01*
X0251780Y0033218D01*
X0251964Y0033135D01*
X0252110Y0032995D01*
X0252210Y0032815D01*
X0252242Y0032612D01*
X0252239Y0032408D01*
X0252203Y0032206D01*
X0252103Y0032026D01*
X0251952Y0031890D01*
X0251766Y0031813D01*
X0251564Y0031794D01*
X0251362Y0031837D01*
X0251198Y0031961D01*
X0251084Y0032129D01*
X0251019Y0032321D01*
X0250990Y0032525D01*
X0251021Y0032729D01*
X0251091Y0032919D01*
X0251209Y0033084D01*
X0251377Y0033202D01*
X0251435Y0033213D02*
X0251791Y0033213D01*
X0251898Y0033165D02*
X0251325Y0033165D01*
X0251256Y0033116D02*
X0251983Y0033116D01*
X0252034Y0033068D02*
X0251198Y0033068D01*
X0251163Y0033019D02*
X0252085Y0033019D01*
X0252124Y0032971D02*
X0251128Y0032971D01*
X0251093Y0032922D02*
X0252151Y0032922D01*
X0252178Y0032874D02*
X0251074Y0032874D01*
X0251056Y0032825D02*
X0252205Y0032825D01*
X0252216Y0032777D02*
X0251039Y0032777D01*
X0251021Y0032728D02*
X0252224Y0032728D01*
X0252231Y0032680D02*
X0251013Y0032680D01*
X0251006Y0032631D02*
X0252239Y0032631D01*
X0252241Y0032583D02*
X0250999Y0032583D01*
X0250991Y0032534D02*
X0252241Y0032534D01*
X0252240Y0032486D02*
X0250995Y0032486D01*
X0251002Y0032437D02*
X0252240Y0032437D01*
X0252236Y0032389D02*
X0251009Y0032389D01*
X0251016Y0032340D02*
X0252227Y0032340D01*
X0252219Y0032292D02*
X0251029Y0032292D01*
X0251045Y0032243D02*
X0252210Y0032243D01*
X0252197Y0032195D02*
X0251062Y0032195D01*
X0251078Y0032146D02*
X0252170Y0032146D01*
X0252143Y0032098D02*
X0251105Y0032098D01*
X0251138Y0032049D02*
X0252116Y0032049D01*
X0252075Y0032001D02*
X0251171Y0032001D01*
X0251209Y0031952D02*
X0252021Y0031952D01*
X0251967Y0031904D02*
X0251273Y0031904D01*
X0251338Y0031855D02*
X0251868Y0031855D01*
X0251699Y0031807D02*
X0251505Y0031807D01*
X0251092Y0031322D02*
X0250989Y0031322D01*
X0250989Y0031370D02*
X0251041Y0031370D01*
X0250989Y0031419D02*
X0250989Y0031419D01*
X0250989Y0031273D02*
X0251150Y0031273D01*
X0251214Y0031225D02*
X0250989Y0031225D01*
X0250989Y0031176D02*
X0251277Y0031176D01*
X0251377Y0031128D02*
X0250989Y0031128D01*
X0250989Y0031079D02*
X0251491Y0031079D01*
X0251845Y0030012D02*
X0250993Y0030012D01*
X0250024Y0031904D02*
X0249098Y0031904D01*
X0249116Y0031952D02*
X0250024Y0031952D01*
X0250024Y0032001D02*
X0249133Y0032001D01*
X0249151Y0032049D02*
X0250024Y0032049D01*
X0250025Y0032098D02*
X0249169Y0032098D01*
X0249186Y0032146D02*
X0250025Y0032146D01*
X0250025Y0032195D02*
X0249204Y0032195D01*
X0249222Y0032243D02*
X0250025Y0032243D01*
X0250025Y0032292D02*
X0249239Y0032292D01*
X0249257Y0032340D02*
X0250025Y0032340D01*
X0250025Y0032389D02*
X0249274Y0032389D01*
X0249292Y0032437D02*
X0250025Y0032437D01*
X0250025Y0032486D02*
X0249310Y0032486D01*
X0249327Y0032534D02*
X0250025Y0032534D01*
X0250026Y0032583D02*
X0249345Y0032583D01*
X0249363Y0032631D02*
X0250026Y0032631D01*
X0250026Y0032680D02*
X0249380Y0032680D01*
X0249398Y0032728D02*
X0250026Y0032728D01*
X0250026Y0032777D02*
X0249416Y0032777D01*
X0249433Y0032825D02*
X0250026Y0032825D01*
X0250026Y0032874D02*
X0249451Y0032874D01*
X0249468Y0032922D02*
X0250026Y0032922D01*
X0250026Y0032971D02*
X0249486Y0032971D01*
X0249504Y0033019D02*
X0250026Y0033019D01*
X0250027Y0033068D02*
X0249521Y0033068D01*
X0249539Y0033116D02*
X0250027Y0033116D01*
X0250027Y0033165D02*
X0249557Y0033165D01*
X0249574Y0033213D02*
X0250027Y0033213D01*
X0250027Y0033262D02*
X0249592Y0033262D01*
X0249610Y0033311D02*
X0250027Y0033311D01*
X0250027Y0033359D02*
X0249627Y0033359D01*
X0249645Y0033408D02*
X0250027Y0033408D01*
X0250027Y0033456D02*
X0249663Y0033456D01*
X0249680Y0033505D02*
X0250027Y0033505D01*
X0250028Y0033553D02*
X0249698Y0033553D01*
X0249715Y0033602D02*
X0250028Y0033602D01*
X0250028Y0033650D02*
X0249733Y0033650D01*
X0249751Y0033699D02*
X0250028Y0033699D01*
X0250028Y0033747D02*
X0249768Y0033747D01*
X0249786Y0033796D02*
X0250028Y0033796D01*
X0248879Y0033990D02*
X0247736Y0033990D01*
X0247750Y0033941D02*
X0248865Y0033941D01*
X0248851Y0033893D02*
X0247763Y0033893D01*
X0247777Y0033844D02*
X0248837Y0033844D01*
X0248822Y0033796D02*
X0247791Y0033796D01*
X0247805Y0033747D02*
X0248808Y0033747D01*
X0248794Y0033699D02*
X0247818Y0033699D01*
X0247832Y0033650D02*
X0248779Y0033650D01*
X0248765Y0033602D02*
X0247846Y0033602D01*
X0247859Y0033553D02*
X0248751Y0033553D01*
X0248737Y0033505D02*
X0247873Y0033505D01*
X0247887Y0033456D02*
X0248722Y0033456D01*
X0248708Y0033408D02*
X0247901Y0033408D01*
X0247914Y0033359D02*
X0248694Y0033359D01*
X0248679Y0033311D02*
X0247928Y0033311D01*
X0247942Y0033262D02*
X0248665Y0033262D01*
X0248651Y0033213D02*
X0247955Y0033213D01*
X0247969Y0033165D02*
X0248636Y0033165D01*
X0248622Y0033116D02*
X0247983Y0033116D01*
X0247996Y0033068D02*
X0248608Y0033068D01*
X0247622Y0031758D02*
X0246928Y0031758D01*
X0246913Y0031710D02*
X0247637Y0031710D01*
X0247652Y0031661D02*
X0246898Y0031661D01*
X0246883Y0031613D02*
X0247667Y0031613D01*
X0247682Y0031564D02*
X0246868Y0031564D01*
X0246854Y0031516D02*
X0247697Y0031516D01*
X0247712Y0031467D02*
X0246839Y0031467D01*
X0246824Y0031419D02*
X0247727Y0031419D01*
X0247743Y0031370D02*
X0246809Y0031370D01*
X0246794Y0031322D02*
X0247758Y0031322D01*
X0247773Y0031273D02*
X0246779Y0031273D01*
X0246764Y0031225D02*
X0247788Y0031225D01*
X0247803Y0031176D02*
X0246749Y0031176D01*
X0246734Y0031128D02*
X0247818Y0031128D01*
X0247833Y0031079D02*
X0246719Y0031079D01*
X0241287Y0032583D02*
X0238591Y0032583D01*
X0238595Y0032631D02*
X0241282Y0032631D01*
X0241276Y0032680D02*
X0238599Y0032680D01*
X0238604Y0032728D02*
X0241266Y0032728D01*
X0241250Y0032777D02*
X0238608Y0032777D01*
X0238612Y0032825D02*
X0241234Y0032825D01*
X0241218Y0032874D02*
X0238616Y0032874D01*
X0238620Y0032922D02*
X0241196Y0032922D01*
X0241162Y0032971D02*
X0238627Y0032971D01*
X0238635Y0033019D02*
X0241129Y0033019D01*
X0241096Y0033068D02*
X0238644Y0033068D01*
X0238652Y0033116D02*
X0241029Y0033116D01*
X0240959Y0033165D02*
X0238664Y0033165D01*
X0238679Y0033213D02*
X0240813Y0033213D01*
X0240562Y0033262D02*
X0238694Y0033262D01*
X0238709Y0033311D02*
X0240562Y0033311D01*
X0240562Y0033359D02*
X0238724Y0033359D01*
X0238739Y0033408D02*
X0240562Y0033408D01*
X0240562Y0033456D02*
X0238754Y0033456D01*
X0238769Y0033505D02*
X0240562Y0033505D01*
X0240562Y0033553D02*
X0238787Y0033553D01*
X0238813Y0033602D02*
X0240562Y0033602D01*
X0240562Y0033650D02*
X0238839Y0033650D01*
X0238865Y0033699D02*
X0240562Y0033699D01*
X0240562Y0033747D02*
X0238891Y0033747D01*
X0238917Y0033796D02*
X0240562Y0033796D01*
X0240562Y0033844D02*
X0238943Y0033844D01*
X0238969Y0033893D02*
X0240562Y0033893D01*
X0240561Y0033941D02*
X0239001Y0033941D01*
X0239035Y0033990D02*
X0240561Y0033990D01*
X0240175Y0034911D02*
X0252752Y0034911D01*
X0252856Y0034863D02*
X0240058Y0034863D01*
X0239970Y0034814D02*
X0252945Y0034814D01*
X0253035Y0034766D02*
X0239883Y0034766D01*
X0239796Y0034717D02*
X0253124Y0034717D01*
X0253198Y0034669D02*
X0239709Y0034669D01*
X0239644Y0034620D02*
X0253263Y0034620D01*
X0253328Y0034572D02*
X0239585Y0034572D01*
X0239527Y0034523D02*
X0253387Y0034523D01*
X0253446Y0034475D02*
X0239468Y0034475D01*
X0239409Y0034426D02*
X0253502Y0034426D01*
X0253553Y0034378D02*
X0239355Y0034378D01*
X0239311Y0034329D02*
X0253604Y0034329D01*
X0253650Y0034281D02*
X0239267Y0034281D01*
X0239224Y0034232D02*
X0253690Y0034232D01*
X0253729Y0034184D02*
X0239184Y0034184D01*
X0239144Y0034135D02*
X0253769Y0034135D01*
X0253809Y0034087D02*
X0239104Y0034087D01*
X0239069Y0034038D02*
X0253849Y0034038D01*
X0252600Y0034960D02*
X0240310Y0034960D01*
X0240473Y0035008D02*
X0252448Y0035008D01*
X0252242Y0035057D02*
X0240636Y0035057D01*
X0241098Y0035105D02*
X0251809Y0035105D01*
X0251659Y0157012D02*
X0250993Y0157012D01*
X0250989Y0157175D01*
X0250989Y0158427D01*
X0251114Y0158309D01*
X0251279Y0158182D01*
X0251467Y0158093D01*
X0251669Y0158044D01*
X0251877Y0158031D01*
X0252085Y0158050D01*
X0252287Y0158097D01*
X0252481Y0158171D01*
X0252662Y0158275D01*
X0252817Y0158414D01*
X0252947Y0158576D01*
X0253053Y0158754D01*
X0253136Y0158945D01*
X0253186Y0159147D01*
X0253215Y0159353D01*
X0253229Y0159561D01*
X0253213Y0159769D01*
X0253180Y0159974D01*
X0253128Y0160176D01*
X0253041Y0160366D01*
X0252928Y0160540D01*
X0252791Y0160695D01*
X0252630Y0160827D01*
X0252448Y0160928D01*
X0252249Y0160992D01*
X0252045Y0161027D01*
X0251837Y0161041D01*
X0251630Y0161018D01*
X0251431Y0160958D01*
X0251246Y0160863D01*
X0251085Y0160731D01*
X0250989Y0160658D01*
X0250989Y0160897D01*
X0250983Y0161010D01*
X0250029Y0161010D01*
X0250031Y0160888D01*
X0249816Y0160902D01*
X0249857Y0161010D01*
X0248883Y0161010D01*
X0248855Y0160915D01*
X0248324Y0159115D01*
X0248266Y0159123D01*
X0247734Y0161006D01*
X0247598Y0161010D01*
X0246972Y0161010D01*
X0246796Y0161011D01*
X0246259Y0159179D01*
X0246220Y0159039D01*
X0245669Y0160859D01*
X0245624Y0161010D01*
X0244789Y0161010D01*
X0244520Y0161002D01*
X0244372Y0161010D01*
X0243606Y0161010D01*
X0243611Y0160963D01*
X0243407Y0160929D01*
X0243409Y0161010D01*
X0242444Y0161010D01*
X0242445Y0160867D01*
X0241871Y0160580D01*
X0241760Y0160687D01*
X0241408Y0160912D01*
X0241209Y0160963D01*
X0240798Y0161035D01*
X0240560Y0161035D01*
X0240562Y0160853D01*
X0240562Y0160227D01*
X0240720Y0160242D01*
X0240923Y0160197D01*
X0241093Y0160080D01*
X0241209Y0159911D01*
X0241273Y0159716D01*
X0241297Y0159509D01*
X0241267Y0159303D01*
X0241190Y0159112D01*
X0241061Y0158954D01*
X0240883Y0158854D01*
X0240679Y0158819D01*
X0240562Y0158801D01*
X0240562Y0158015D01*
X0240699Y0158036D01*
X0240906Y0158059D01*
X0241317Y0158130D01*
X0241502Y0158218D01*
X0241855Y0158441D01*
X0242084Y0158789D01*
X0242176Y0158972D01*
X0242249Y0159383D01*
X0242263Y0159588D01*
X0242190Y0159999D01*
X0242133Y0160196D01*
X0241874Y0160576D01*
X0242448Y0160873D01*
X0242448Y0158067D01*
X0242494Y0158067D01*
X0243328Y0158067D01*
X0243411Y0158073D01*
X0243407Y0160933D01*
X0243610Y0160967D01*
X0243607Y0158070D01*
X0243748Y0158067D01*
X0244374Y0158067D01*
X0244569Y0158080D01*
X0244569Y0161001D01*
X0244684Y0161000D01*
X0244729Y0160872D01*
X0245742Y0158070D01*
X0245889Y0158067D01*
X0246514Y0158067D01*
X0246716Y0158077D01*
X0247269Y0159870D01*
X0247331Y0159699D01*
X0247837Y0158076D01*
X0248007Y0158067D01*
X0248633Y0158067D01*
X0248792Y0158069D01*
X0249821Y0160901D01*
X0250028Y0160890D01*
X0250020Y0157086D01*
X0250017Y0157012D01*
X0241128Y0157012D01*
X0240713Y0157054D01*
X0240510Y0157098D01*
X0240114Y0157227D01*
X0239747Y0157426D01*
X0239421Y0157685D01*
X0239272Y0157830D01*
X0239010Y0158154D01*
X0238811Y0158520D01*
X0238739Y0158715D01*
X0238677Y0158914D01*
X0238628Y0159116D01*
X0238586Y0159531D01*
X0238621Y0159946D01*
X0238657Y0160151D01*
X0238781Y0160549D01*
X0238978Y0160916D01*
X0239097Y0161086D01*
X0239230Y0161247D01*
X0239369Y0161401D01*
X0239691Y0161667D01*
X0240055Y0161869D01*
X0240247Y0161949D01*
X0240646Y0162068D01*
X0241061Y0162110D01*
X0241136Y0162117D01*
X0251772Y0162117D01*
X0252187Y0162076D01*
X0252390Y0162035D01*
X0252787Y0161908D01*
X0253154Y0161709D01*
X0253321Y0161586D01*
X0253482Y0161453D01*
X0253632Y0161310D01*
X0253897Y0160988D01*
X0254096Y0160621D01*
X0254171Y0160428D01*
X0254233Y0160228D01*
X0254284Y0160027D01*
X0254326Y0159612D01*
X0254315Y0159405D01*
X0254294Y0159197D01*
X0254261Y0158992D01*
X0254137Y0158594D01*
X0253943Y0158225D01*
X0253826Y0158054D01*
X0253556Y0157737D01*
X0253234Y0157471D01*
X0252871Y0157266D01*
X0252681Y0157184D01*
X0252282Y0157062D01*
X0251867Y0157021D01*
X0251659Y0157012D01*
X0251723Y0157014D02*
X0250993Y0157014D01*
X0250992Y0157063D02*
X0252284Y0157063D01*
X0252443Y0157111D02*
X0250991Y0157111D01*
X0250989Y0157160D02*
X0252602Y0157160D01*
X0252737Y0157208D02*
X0250989Y0157208D01*
X0250989Y0157257D02*
X0252850Y0157257D01*
X0252941Y0157305D02*
X0250989Y0157305D01*
X0250989Y0157354D02*
X0253026Y0157354D01*
X0253112Y0157402D02*
X0250989Y0157402D01*
X0250989Y0157451D02*
X0253198Y0157451D01*
X0253268Y0157499D02*
X0250989Y0157499D01*
X0250989Y0157548D02*
X0253327Y0157548D01*
X0253386Y0157597D02*
X0250989Y0157597D01*
X0250989Y0157645D02*
X0253445Y0157645D01*
X0253503Y0157694D02*
X0250989Y0157694D01*
X0250989Y0157742D02*
X0253560Y0157742D01*
X0253602Y0157791D02*
X0250989Y0157791D01*
X0250989Y0157839D02*
X0253643Y0157839D01*
X0253684Y0157888D02*
X0250989Y0157888D01*
X0250989Y0157936D02*
X0253726Y0157936D01*
X0253767Y0157985D02*
X0250989Y0157985D01*
X0250989Y0158033D02*
X0251839Y0158033D01*
X0251904Y0158033D02*
X0253809Y0158033D01*
X0253845Y0158082D02*
X0252220Y0158082D01*
X0252373Y0158130D02*
X0253878Y0158130D01*
X0253911Y0158179D02*
X0252494Y0158179D01*
X0252578Y0158227D02*
X0253944Y0158227D01*
X0253969Y0158276D02*
X0252663Y0158276D01*
X0252717Y0158324D02*
X0253995Y0158324D01*
X0254021Y0158373D02*
X0252771Y0158373D01*
X0252823Y0158421D02*
X0254046Y0158421D01*
X0254072Y0158470D02*
X0252862Y0158470D01*
X0252901Y0158518D02*
X0254098Y0158518D01*
X0254123Y0158567D02*
X0252940Y0158567D01*
X0252971Y0158615D02*
X0254144Y0158615D01*
X0254159Y0158664D02*
X0252999Y0158664D01*
X0253028Y0158712D02*
X0254174Y0158712D01*
X0254189Y0158761D02*
X0253056Y0158761D01*
X0253077Y0158809D02*
X0254204Y0158809D01*
X0254219Y0158858D02*
X0253098Y0158858D01*
X0253119Y0158906D02*
X0254234Y0158906D01*
X0254249Y0158955D02*
X0253139Y0158955D01*
X0253151Y0159003D02*
X0254263Y0159003D01*
X0254271Y0159052D02*
X0253163Y0159052D01*
X0253174Y0159100D02*
X0254278Y0159100D01*
X0254286Y0159149D02*
X0253186Y0159149D01*
X0253193Y0159197D02*
X0254294Y0159197D01*
X0254299Y0159246D02*
X0253200Y0159246D01*
X0253207Y0159294D02*
X0254304Y0159294D01*
X0254309Y0159343D02*
X0253213Y0159343D01*
X0253218Y0159391D02*
X0254313Y0159391D01*
X0254317Y0159440D02*
X0253221Y0159440D01*
X0253224Y0159488D02*
X0254319Y0159488D01*
X0254322Y0159537D02*
X0253228Y0159537D01*
X0253228Y0159585D02*
X0254325Y0159585D01*
X0254324Y0159634D02*
X0253224Y0159634D01*
X0253220Y0159683D02*
X0254319Y0159683D01*
X0254314Y0159731D02*
X0253216Y0159731D01*
X0253212Y0159780D02*
X0254309Y0159780D01*
X0254304Y0159828D02*
X0253204Y0159828D01*
X0253196Y0159877D02*
X0254299Y0159877D01*
X0254294Y0159925D02*
X0253188Y0159925D01*
X0253181Y0159974D02*
X0254290Y0159974D01*
X0254285Y0160022D02*
X0253168Y0160022D01*
X0253155Y0160071D02*
X0254273Y0160071D01*
X0254261Y0160119D02*
X0253143Y0160119D01*
X0253130Y0160168D02*
X0254248Y0160168D01*
X0254236Y0160216D02*
X0253109Y0160216D01*
X0253087Y0160265D02*
X0254221Y0160265D01*
X0254206Y0160313D02*
X0253065Y0160313D01*
X0253043Y0160362D02*
X0254191Y0160362D01*
X0254176Y0160410D02*
X0253012Y0160410D01*
X0252981Y0160459D02*
X0254159Y0160459D01*
X0254140Y0160507D02*
X0252949Y0160507D01*
X0252914Y0160556D02*
X0254121Y0160556D01*
X0254102Y0160604D02*
X0252871Y0160604D01*
X0252828Y0160653D02*
X0254079Y0160653D01*
X0254052Y0160701D02*
X0252783Y0160701D01*
X0252724Y0160750D02*
X0254026Y0160750D01*
X0254000Y0160798D02*
X0252665Y0160798D01*
X0252594Y0160847D02*
X0253973Y0160847D01*
X0253947Y0160895D02*
X0252507Y0160895D01*
X0252400Y0160944D02*
X0253921Y0160944D01*
X0253893Y0160992D02*
X0252248Y0160992D01*
X0251544Y0160992D02*
X0250984Y0160992D01*
X0250986Y0160944D02*
X0251403Y0160944D01*
X0251309Y0160895D02*
X0250989Y0160895D01*
X0250989Y0160847D02*
X0251227Y0160847D01*
X0251167Y0160798D02*
X0250989Y0160798D01*
X0250989Y0160750D02*
X0251107Y0160750D01*
X0251045Y0160701D02*
X0250989Y0160701D01*
X0251377Y0160209D02*
X0251578Y0160251D01*
X0251780Y0160226D01*
X0251964Y0160143D01*
X0252110Y0160003D01*
X0252210Y0159823D01*
X0252242Y0159620D01*
X0252239Y0159416D01*
X0252203Y0159214D01*
X0252103Y0159034D01*
X0251952Y0158898D01*
X0251766Y0158821D01*
X0251564Y0158802D01*
X0251362Y0158844D01*
X0251198Y0158969D01*
X0251084Y0159137D01*
X0251019Y0159329D01*
X0250990Y0159533D01*
X0251021Y0159737D01*
X0251091Y0159927D01*
X0251209Y0160092D01*
X0251377Y0160209D01*
X0251409Y0160216D02*
X0251803Y0160216D01*
X0251910Y0160168D02*
X0251317Y0160168D01*
X0251248Y0160119D02*
X0251989Y0160119D01*
X0252040Y0160071D02*
X0251194Y0160071D01*
X0251159Y0160022D02*
X0252090Y0160022D01*
X0252127Y0159974D02*
X0251124Y0159974D01*
X0251090Y0159925D02*
X0252154Y0159925D01*
X0252181Y0159877D02*
X0251072Y0159877D01*
X0251055Y0159828D02*
X0252208Y0159828D01*
X0252217Y0159780D02*
X0251037Y0159780D01*
X0251020Y0159731D02*
X0252225Y0159731D01*
X0252232Y0159683D02*
X0251013Y0159683D01*
X0251005Y0159634D02*
X0252240Y0159634D01*
X0252241Y0159585D02*
X0250998Y0159585D01*
X0250990Y0159537D02*
X0252241Y0159537D01*
X0252240Y0159488D02*
X0250996Y0159488D01*
X0251003Y0159440D02*
X0252240Y0159440D01*
X0252235Y0159391D02*
X0251010Y0159391D01*
X0251017Y0159343D02*
X0252226Y0159343D01*
X0252218Y0159294D02*
X0251031Y0159294D01*
X0251047Y0159246D02*
X0252209Y0159246D01*
X0252194Y0159197D02*
X0251064Y0159197D01*
X0251080Y0159149D02*
X0252167Y0159149D01*
X0252140Y0159100D02*
X0251109Y0159100D01*
X0251142Y0159052D02*
X0252113Y0159052D01*
X0252069Y0159003D02*
X0251174Y0159003D01*
X0251216Y0158955D02*
X0252015Y0158955D01*
X0251961Y0158906D02*
X0251280Y0158906D01*
X0251345Y0158858D02*
X0251855Y0158858D01*
X0251642Y0158809D02*
X0251530Y0158809D01*
X0251098Y0158324D02*
X0250989Y0158324D01*
X0250989Y0158276D02*
X0251157Y0158276D01*
X0251220Y0158227D02*
X0250989Y0158227D01*
X0250989Y0158179D02*
X0251287Y0158179D01*
X0251388Y0158130D02*
X0250989Y0158130D01*
X0250989Y0158082D02*
X0251514Y0158082D01*
X0251046Y0158373D02*
X0250989Y0158373D01*
X0250989Y0158421D02*
X0250995Y0158421D01*
X0250023Y0158421D02*
X0248920Y0158421D01*
X0248902Y0158373D02*
X0250023Y0158373D01*
X0250023Y0158324D02*
X0248884Y0158324D01*
X0248867Y0158276D02*
X0250023Y0158276D01*
X0250023Y0158227D02*
X0248849Y0158227D01*
X0248831Y0158179D02*
X0250023Y0158179D01*
X0250023Y0158130D02*
X0248814Y0158130D01*
X0248796Y0158082D02*
X0250022Y0158082D01*
X0250022Y0158033D02*
X0240681Y0158033D01*
X0240562Y0158033D02*
X0239108Y0158033D01*
X0239147Y0157985D02*
X0250022Y0157985D01*
X0250022Y0157936D02*
X0239186Y0157936D01*
X0239225Y0157888D02*
X0250022Y0157888D01*
X0250022Y0157839D02*
X0239265Y0157839D01*
X0239313Y0157791D02*
X0250022Y0157791D01*
X0250022Y0157742D02*
X0239362Y0157742D01*
X0239412Y0157694D02*
X0250022Y0157694D01*
X0250021Y0157645D02*
X0239471Y0157645D01*
X0239532Y0157597D02*
X0250021Y0157597D01*
X0250021Y0157548D02*
X0239594Y0157548D01*
X0239655Y0157499D02*
X0250021Y0157499D01*
X0250021Y0157451D02*
X0239716Y0157451D01*
X0239791Y0157402D02*
X0250021Y0157402D01*
X0250021Y0157354D02*
X0239881Y0157354D01*
X0239970Y0157305D02*
X0250021Y0157305D01*
X0250021Y0157257D02*
X0240060Y0157257D01*
X0240172Y0157208D02*
X0250021Y0157208D01*
X0250020Y0157160D02*
X0240321Y0157160D01*
X0240469Y0157111D02*
X0250020Y0157111D01*
X0250019Y0157063D02*
X0240673Y0157063D01*
X0241108Y0157014D02*
X0250017Y0157014D01*
X0250023Y0158470D02*
X0248937Y0158470D01*
X0248955Y0158518D02*
X0250023Y0158518D01*
X0250023Y0158567D02*
X0248973Y0158567D01*
X0248990Y0158615D02*
X0250024Y0158615D01*
X0250024Y0158664D02*
X0249008Y0158664D01*
X0249026Y0158712D02*
X0250024Y0158712D01*
X0250024Y0158761D02*
X0249043Y0158761D01*
X0249061Y0158809D02*
X0250024Y0158809D01*
X0250024Y0158858D02*
X0249078Y0158858D01*
X0249096Y0158906D02*
X0250024Y0158906D01*
X0250024Y0158955D02*
X0249114Y0158955D01*
X0249131Y0159003D02*
X0250024Y0159003D01*
X0250024Y0159052D02*
X0249149Y0159052D01*
X0249167Y0159100D02*
X0250025Y0159100D01*
X0250025Y0159149D02*
X0249184Y0159149D01*
X0249202Y0159197D02*
X0250025Y0159197D01*
X0250025Y0159246D02*
X0249220Y0159246D01*
X0249237Y0159294D02*
X0250025Y0159294D01*
X0250025Y0159343D02*
X0249255Y0159343D01*
X0249273Y0159391D02*
X0250025Y0159391D01*
X0250025Y0159440D02*
X0249290Y0159440D01*
X0249308Y0159488D02*
X0250025Y0159488D01*
X0250025Y0159537D02*
X0249325Y0159537D01*
X0249343Y0159585D02*
X0250026Y0159585D01*
X0250026Y0159634D02*
X0249361Y0159634D01*
X0249378Y0159683D02*
X0250026Y0159683D01*
X0250026Y0159731D02*
X0249396Y0159731D01*
X0249414Y0159780D02*
X0250026Y0159780D01*
X0250026Y0159828D02*
X0249431Y0159828D01*
X0249449Y0159877D02*
X0250026Y0159877D01*
X0250026Y0159925D02*
X0249467Y0159925D01*
X0249484Y0159974D02*
X0250026Y0159974D01*
X0250026Y0160022D02*
X0249502Y0160022D01*
X0249519Y0160071D02*
X0250027Y0160071D01*
X0250027Y0160119D02*
X0249537Y0160119D01*
X0249555Y0160168D02*
X0250027Y0160168D01*
X0250027Y0160216D02*
X0249572Y0160216D01*
X0249590Y0160265D02*
X0250027Y0160265D01*
X0250027Y0160313D02*
X0249608Y0160313D01*
X0249625Y0160362D02*
X0250027Y0160362D01*
X0250027Y0160410D02*
X0249643Y0160410D01*
X0249661Y0160459D02*
X0250027Y0160459D01*
X0250027Y0160507D02*
X0249678Y0160507D01*
X0249696Y0160556D02*
X0250028Y0160556D01*
X0250028Y0160604D02*
X0249714Y0160604D01*
X0249731Y0160653D02*
X0250028Y0160653D01*
X0250028Y0160701D02*
X0249749Y0160701D01*
X0249766Y0160750D02*
X0250028Y0160750D01*
X0250028Y0160798D02*
X0249784Y0160798D01*
X0249802Y0160847D02*
X0250028Y0160847D01*
X0250031Y0160895D02*
X0249925Y0160895D01*
X0249919Y0160895D02*
X0249819Y0160895D01*
X0249832Y0160944D02*
X0250030Y0160944D01*
X0250029Y0160992D02*
X0249850Y0160992D01*
X0248878Y0160992D02*
X0247737Y0160992D01*
X0247751Y0160944D02*
X0248864Y0160944D01*
X0248850Y0160895D02*
X0247765Y0160895D01*
X0247779Y0160847D02*
X0248835Y0160847D01*
X0248821Y0160798D02*
X0247792Y0160798D01*
X0247806Y0160750D02*
X0248807Y0160750D01*
X0248792Y0160701D02*
X0247820Y0160701D01*
X0247833Y0160653D02*
X0248778Y0160653D01*
X0248764Y0160604D02*
X0247847Y0160604D01*
X0247861Y0160556D02*
X0248749Y0160556D01*
X0248735Y0160507D02*
X0247875Y0160507D01*
X0247888Y0160459D02*
X0248721Y0160459D01*
X0248706Y0160410D02*
X0247902Y0160410D01*
X0247916Y0160362D02*
X0248692Y0160362D01*
X0248678Y0160313D02*
X0247929Y0160313D01*
X0247943Y0160265D02*
X0248663Y0160265D01*
X0248649Y0160216D02*
X0247957Y0160216D01*
X0247971Y0160168D02*
X0248635Y0160168D01*
X0248620Y0160119D02*
X0247984Y0160119D01*
X0247998Y0160071D02*
X0248606Y0160071D01*
X0248592Y0160022D02*
X0248012Y0160022D01*
X0248025Y0159974D02*
X0248578Y0159974D01*
X0248563Y0159925D02*
X0248039Y0159925D01*
X0248053Y0159877D02*
X0248549Y0159877D01*
X0248535Y0159828D02*
X0248067Y0159828D01*
X0248080Y0159780D02*
X0248520Y0159780D01*
X0248506Y0159731D02*
X0248094Y0159731D01*
X0248108Y0159683D02*
X0248492Y0159683D01*
X0248477Y0159634D02*
X0248121Y0159634D01*
X0248135Y0159585D02*
X0248463Y0159585D01*
X0248449Y0159537D02*
X0248149Y0159537D01*
X0248162Y0159488D02*
X0248434Y0159488D01*
X0248420Y0159440D02*
X0248176Y0159440D01*
X0248190Y0159391D02*
X0248406Y0159391D01*
X0248391Y0159343D02*
X0248204Y0159343D01*
X0248217Y0159294D02*
X0248377Y0159294D01*
X0248363Y0159246D02*
X0248231Y0159246D01*
X0248245Y0159197D02*
X0248349Y0159197D01*
X0248334Y0159149D02*
X0248258Y0159149D01*
X0247563Y0158955D02*
X0246987Y0158955D01*
X0247002Y0159003D02*
X0247548Y0159003D01*
X0247532Y0159052D02*
X0247016Y0159052D01*
X0247031Y0159100D02*
X0247517Y0159100D01*
X0247502Y0159149D02*
X0247046Y0159149D01*
X0247061Y0159197D02*
X0247487Y0159197D01*
X0247472Y0159246D02*
X0247076Y0159246D01*
X0247091Y0159294D02*
X0247457Y0159294D01*
X0247442Y0159343D02*
X0247106Y0159343D01*
X0247121Y0159391D02*
X0247427Y0159391D01*
X0247411Y0159440D02*
X0247136Y0159440D01*
X0247151Y0159488D02*
X0247396Y0159488D01*
X0247381Y0159537D02*
X0247166Y0159537D01*
X0247181Y0159585D02*
X0247366Y0159585D01*
X0247351Y0159634D02*
X0247196Y0159634D01*
X0247211Y0159683D02*
X0247336Y0159683D01*
X0247319Y0159731D02*
X0247226Y0159731D01*
X0247241Y0159780D02*
X0247302Y0159780D01*
X0247284Y0159828D02*
X0247256Y0159828D01*
X0246506Y0160022D02*
X0245923Y0160022D01*
X0245937Y0159974D02*
X0246492Y0159974D01*
X0246478Y0159925D02*
X0245952Y0159925D01*
X0245967Y0159877D02*
X0246463Y0159877D01*
X0246449Y0159828D02*
X0245982Y0159828D01*
X0245996Y0159780D02*
X0246435Y0159780D01*
X0246421Y0159731D02*
X0246011Y0159731D01*
X0246026Y0159683D02*
X0246407Y0159683D01*
X0246392Y0159634D02*
X0246040Y0159634D01*
X0246055Y0159585D02*
X0246378Y0159585D01*
X0246364Y0159537D02*
X0246070Y0159537D01*
X0246084Y0159488D02*
X0246350Y0159488D01*
X0246336Y0159440D02*
X0246099Y0159440D01*
X0246114Y0159391D02*
X0246321Y0159391D01*
X0246307Y0159343D02*
X0246128Y0159343D01*
X0246143Y0159294D02*
X0246293Y0159294D01*
X0246279Y0159246D02*
X0246158Y0159246D01*
X0246173Y0159197D02*
X0246264Y0159197D01*
X0246251Y0159149D02*
X0246187Y0159149D01*
X0246202Y0159100D02*
X0246237Y0159100D01*
X0246224Y0159052D02*
X0246217Y0159052D01*
X0246942Y0158809D02*
X0247608Y0158809D01*
X0247623Y0158761D02*
X0246927Y0158761D01*
X0246912Y0158712D02*
X0247638Y0158712D01*
X0247653Y0158664D02*
X0246897Y0158664D01*
X0246882Y0158615D02*
X0247669Y0158615D01*
X0247684Y0158567D02*
X0246867Y0158567D01*
X0246852Y0158518D02*
X0247699Y0158518D01*
X0247714Y0158470D02*
X0246837Y0158470D01*
X0246822Y0158421D02*
X0247729Y0158421D01*
X0247744Y0158373D02*
X0246807Y0158373D01*
X0246792Y0158324D02*
X0247759Y0158324D01*
X0247774Y0158276D02*
X0246777Y0158276D01*
X0246762Y0158227D02*
X0247790Y0158227D01*
X0247805Y0158179D02*
X0246747Y0158179D01*
X0246732Y0158130D02*
X0247820Y0158130D01*
X0247835Y0158082D02*
X0246717Y0158082D01*
X0246957Y0158858D02*
X0247593Y0158858D01*
X0247578Y0158906D02*
X0246972Y0158906D01*
X0246520Y0160071D02*
X0245908Y0160071D01*
X0245893Y0160119D02*
X0246535Y0160119D01*
X0246549Y0160168D02*
X0245879Y0160168D01*
X0245864Y0160216D02*
X0246563Y0160216D01*
X0246577Y0160265D02*
X0245849Y0160265D01*
X0245835Y0160313D02*
X0246591Y0160313D01*
X0246606Y0160362D02*
X0245820Y0160362D01*
X0245805Y0160410D02*
X0246620Y0160410D01*
X0246634Y0160459D02*
X0245791Y0160459D01*
X0245776Y0160507D02*
X0246648Y0160507D01*
X0246662Y0160556D02*
X0245761Y0160556D01*
X0245746Y0160604D02*
X0246677Y0160604D01*
X0246691Y0160653D02*
X0245732Y0160653D01*
X0245717Y0160701D02*
X0246705Y0160701D01*
X0246719Y0160750D02*
X0245702Y0160750D01*
X0245688Y0160798D02*
X0246734Y0160798D01*
X0246748Y0160847D02*
X0245673Y0160847D01*
X0245658Y0160895D02*
X0246762Y0160895D01*
X0246776Y0160944D02*
X0245644Y0160944D01*
X0245629Y0160992D02*
X0246790Y0160992D01*
X0244931Y0160313D02*
X0244569Y0160313D01*
X0244569Y0160265D02*
X0244948Y0160265D01*
X0244966Y0160216D02*
X0244569Y0160216D01*
X0244569Y0160168D02*
X0244983Y0160168D01*
X0245001Y0160119D02*
X0244569Y0160119D01*
X0244569Y0160071D02*
X0245019Y0160071D01*
X0245036Y0160022D02*
X0244569Y0160022D01*
X0244569Y0159974D02*
X0245054Y0159974D01*
X0245071Y0159925D02*
X0244569Y0159925D01*
X0244569Y0159877D02*
X0245089Y0159877D01*
X0245106Y0159828D02*
X0244569Y0159828D01*
X0244569Y0159780D02*
X0245124Y0159780D01*
X0245141Y0159731D02*
X0244569Y0159731D01*
X0244569Y0159683D02*
X0245159Y0159683D01*
X0245177Y0159634D02*
X0244569Y0159634D01*
X0244569Y0159585D02*
X0245194Y0159585D01*
X0245212Y0159537D02*
X0244569Y0159537D01*
X0244569Y0159488D02*
X0245229Y0159488D01*
X0245247Y0159440D02*
X0244569Y0159440D01*
X0244569Y0159391D02*
X0245264Y0159391D01*
X0245282Y0159343D02*
X0244569Y0159343D01*
X0244569Y0159294D02*
X0245299Y0159294D01*
X0245317Y0159246D02*
X0244569Y0159246D01*
X0244569Y0159197D02*
X0245334Y0159197D01*
X0245352Y0159149D02*
X0244569Y0159149D01*
X0244569Y0159100D02*
X0245370Y0159100D01*
X0245387Y0159052D02*
X0244569Y0159052D01*
X0244569Y0159003D02*
X0245405Y0159003D01*
X0245422Y0158955D02*
X0244569Y0158955D01*
X0244569Y0158906D02*
X0245440Y0158906D01*
X0245457Y0158858D02*
X0244569Y0158858D01*
X0244569Y0158809D02*
X0245475Y0158809D01*
X0245492Y0158761D02*
X0244569Y0158761D01*
X0244569Y0158712D02*
X0245510Y0158712D01*
X0245527Y0158664D02*
X0244569Y0158664D01*
X0244569Y0158615D02*
X0245545Y0158615D01*
X0245563Y0158567D02*
X0244569Y0158567D01*
X0244569Y0158518D02*
X0245580Y0158518D01*
X0245598Y0158470D02*
X0244569Y0158470D01*
X0244569Y0158421D02*
X0245615Y0158421D01*
X0245633Y0158373D02*
X0244569Y0158373D01*
X0244569Y0158324D02*
X0245650Y0158324D01*
X0245668Y0158276D02*
X0244569Y0158276D01*
X0244569Y0158227D02*
X0245685Y0158227D01*
X0245703Y0158179D02*
X0244569Y0158179D01*
X0244569Y0158130D02*
X0245720Y0158130D01*
X0245738Y0158082D02*
X0244569Y0158082D01*
X0243607Y0158082D02*
X0243411Y0158082D01*
X0243411Y0158130D02*
X0243607Y0158130D01*
X0243607Y0158179D02*
X0243411Y0158179D01*
X0243411Y0158227D02*
X0243607Y0158227D01*
X0243607Y0158276D02*
X0243410Y0158276D01*
X0243410Y0158324D02*
X0243607Y0158324D01*
X0243607Y0158373D02*
X0243410Y0158373D01*
X0243410Y0158421D02*
X0243607Y0158421D01*
X0243607Y0158470D02*
X0243410Y0158470D01*
X0243410Y0158518D02*
X0243607Y0158518D01*
X0243607Y0158567D02*
X0243410Y0158567D01*
X0243410Y0158615D02*
X0243607Y0158615D01*
X0243607Y0158664D02*
X0243410Y0158664D01*
X0243410Y0158712D02*
X0243607Y0158712D01*
X0243607Y0158761D02*
X0243410Y0158761D01*
X0243410Y0158809D02*
X0243608Y0158809D01*
X0243608Y0158858D02*
X0243410Y0158858D01*
X0243410Y0158906D02*
X0243608Y0158906D01*
X0243608Y0158955D02*
X0243410Y0158955D01*
X0243409Y0159003D02*
X0243608Y0159003D01*
X0243608Y0159052D02*
X0243409Y0159052D01*
X0243409Y0159100D02*
X0243608Y0159100D01*
X0243608Y0159149D02*
X0243409Y0159149D01*
X0243409Y0159197D02*
X0243608Y0159197D01*
X0243608Y0159246D02*
X0243409Y0159246D01*
X0243409Y0159294D02*
X0243608Y0159294D01*
X0243608Y0159343D02*
X0243409Y0159343D01*
X0243409Y0159391D02*
X0243608Y0159391D01*
X0243608Y0159440D02*
X0243409Y0159440D01*
X0243409Y0159488D02*
X0243608Y0159488D01*
X0243609Y0159537D02*
X0243409Y0159537D01*
X0243409Y0159585D02*
X0243609Y0159585D01*
X0243609Y0159634D02*
X0243409Y0159634D01*
X0243409Y0159683D02*
X0243609Y0159683D01*
X0243609Y0159731D02*
X0243408Y0159731D01*
X0243408Y0159780D02*
X0243609Y0159780D01*
X0243609Y0159828D02*
X0243408Y0159828D01*
X0243408Y0159877D02*
X0243609Y0159877D01*
X0243609Y0159925D02*
X0243408Y0159925D01*
X0243408Y0159974D02*
X0243609Y0159974D01*
X0243609Y0160022D02*
X0243408Y0160022D01*
X0243408Y0160071D02*
X0243609Y0160071D01*
X0243609Y0160119D02*
X0243408Y0160119D01*
X0243408Y0160168D02*
X0243609Y0160168D01*
X0243609Y0160216D02*
X0243408Y0160216D01*
X0243408Y0160265D02*
X0243609Y0160265D01*
X0243610Y0160313D02*
X0243408Y0160313D01*
X0243408Y0160362D02*
X0243610Y0160362D01*
X0243610Y0160410D02*
X0243408Y0160410D01*
X0243407Y0160459D02*
X0243610Y0160459D01*
X0243610Y0160507D02*
X0243407Y0160507D01*
X0243407Y0160556D02*
X0243610Y0160556D01*
X0243610Y0160604D02*
X0243407Y0160604D01*
X0243407Y0160653D02*
X0243610Y0160653D01*
X0243610Y0160701D02*
X0243407Y0160701D01*
X0243407Y0160750D02*
X0243610Y0160750D01*
X0243610Y0160798D02*
X0243407Y0160798D01*
X0243407Y0160847D02*
X0243610Y0160847D01*
X0243610Y0160895D02*
X0243407Y0160895D01*
X0243407Y0160944D02*
X0243471Y0160944D01*
X0243495Y0160944D02*
X0243610Y0160944D01*
X0243608Y0160992D02*
X0243408Y0160992D01*
X0242445Y0160992D02*
X0241040Y0160992D01*
X0241284Y0160944D02*
X0242445Y0160944D01*
X0242445Y0160895D02*
X0241435Y0160895D01*
X0241511Y0160847D02*
X0242396Y0160847D01*
X0242405Y0160847D02*
X0242448Y0160847D01*
X0242448Y0160798D02*
X0242308Y0160798D01*
X0242303Y0160798D02*
X0241587Y0160798D01*
X0241662Y0160750D02*
X0242209Y0160750D01*
X0242210Y0160750D02*
X0242448Y0160750D01*
X0242448Y0160701D02*
X0242116Y0160701D01*
X0242113Y0160701D02*
X0241738Y0160701D01*
X0241796Y0160653D02*
X0242016Y0160653D01*
X0242023Y0160653D02*
X0242448Y0160653D01*
X0242448Y0160604D02*
X0241929Y0160604D01*
X0241919Y0160604D02*
X0241846Y0160604D01*
X0241888Y0160556D02*
X0242448Y0160556D01*
X0242448Y0160507D02*
X0241921Y0160507D01*
X0241954Y0160459D02*
X0242448Y0160459D01*
X0242448Y0160410D02*
X0241987Y0160410D01*
X0242020Y0160362D02*
X0242448Y0160362D01*
X0242448Y0160313D02*
X0242053Y0160313D01*
X0242086Y0160265D02*
X0242448Y0160265D01*
X0242448Y0160216D02*
X0242119Y0160216D01*
X0242141Y0160168D02*
X0242448Y0160168D01*
X0242448Y0160119D02*
X0242155Y0160119D01*
X0242170Y0160071D02*
X0242448Y0160071D01*
X0242448Y0160022D02*
X0242184Y0160022D01*
X0242195Y0159974D02*
X0242448Y0159974D01*
X0242448Y0159925D02*
X0242203Y0159925D01*
X0242212Y0159877D02*
X0242448Y0159877D01*
X0242448Y0159828D02*
X0242221Y0159828D01*
X0242229Y0159780D02*
X0242448Y0159780D01*
X0242448Y0159731D02*
X0242238Y0159731D01*
X0242246Y0159683D02*
X0242448Y0159683D01*
X0242448Y0159634D02*
X0242255Y0159634D01*
X0242263Y0159585D02*
X0242448Y0159585D01*
X0242448Y0159537D02*
X0242259Y0159537D01*
X0242256Y0159488D02*
X0242448Y0159488D01*
X0242448Y0159440D02*
X0242253Y0159440D01*
X0242249Y0159391D02*
X0242448Y0159391D01*
X0242448Y0159343D02*
X0242242Y0159343D01*
X0242233Y0159294D02*
X0242448Y0159294D01*
X0242448Y0159246D02*
X0242224Y0159246D01*
X0242216Y0159197D02*
X0242448Y0159197D01*
X0242448Y0159149D02*
X0242207Y0159149D01*
X0242198Y0159100D02*
X0242448Y0159100D01*
X0242448Y0159052D02*
X0242190Y0159052D01*
X0242181Y0159003D02*
X0242448Y0159003D01*
X0242448Y0158955D02*
X0242167Y0158955D01*
X0242143Y0158906D02*
X0242448Y0158906D01*
X0242448Y0158858D02*
X0242119Y0158858D01*
X0242094Y0158809D02*
X0242448Y0158809D01*
X0242448Y0158761D02*
X0242066Y0158761D01*
X0242034Y0158712D02*
X0242448Y0158712D01*
X0242448Y0158664D02*
X0242002Y0158664D01*
X0241970Y0158615D02*
X0242448Y0158615D01*
X0242448Y0158567D02*
X0241938Y0158567D01*
X0241906Y0158518D02*
X0242448Y0158518D01*
X0242448Y0158470D02*
X0241874Y0158470D01*
X0241824Y0158421D02*
X0242448Y0158421D01*
X0242448Y0158373D02*
X0241747Y0158373D01*
X0241671Y0158324D02*
X0242448Y0158324D01*
X0242448Y0158276D02*
X0241594Y0158276D01*
X0241517Y0158227D02*
X0242448Y0158227D01*
X0242448Y0158179D02*
X0241420Y0158179D01*
X0241317Y0158130D02*
X0242448Y0158130D01*
X0242448Y0158082D02*
X0241036Y0158082D01*
X0240562Y0158082D02*
X0239068Y0158082D01*
X0239029Y0158130D02*
X0240562Y0158130D01*
X0240562Y0158179D02*
X0238996Y0158179D01*
X0238970Y0158227D02*
X0240562Y0158227D01*
X0240562Y0158276D02*
X0238944Y0158276D01*
X0238917Y0158324D02*
X0240562Y0158324D01*
X0240562Y0158373D02*
X0238891Y0158373D01*
X0238865Y0158421D02*
X0240562Y0158421D01*
X0240562Y0158470D02*
X0238838Y0158470D01*
X0238812Y0158518D02*
X0240562Y0158518D01*
X0240562Y0158567D02*
X0238794Y0158567D01*
X0238776Y0158615D02*
X0240562Y0158615D01*
X0240562Y0158664D02*
X0238758Y0158664D01*
X0238740Y0158712D02*
X0240562Y0158712D01*
X0240562Y0158761D02*
X0238724Y0158761D01*
X0238709Y0158809D02*
X0240618Y0158809D01*
X0240890Y0158858D02*
X0238694Y0158858D01*
X0238679Y0158906D02*
X0240976Y0158906D01*
X0241062Y0158955D02*
X0238667Y0158955D01*
X0238655Y0159003D02*
X0241101Y0159003D01*
X0241141Y0159052D02*
X0238644Y0159052D01*
X0238632Y0159100D02*
X0241180Y0159100D01*
X0241205Y0159149D02*
X0238625Y0159149D01*
X0238620Y0159197D02*
X0241224Y0159197D01*
X0241244Y0159246D02*
X0238615Y0159246D01*
X0238610Y0159294D02*
X0241263Y0159294D01*
X0241273Y0159343D02*
X0238605Y0159343D01*
X0238600Y0159391D02*
X0241280Y0159391D01*
X0241287Y0159440D02*
X0238595Y0159440D01*
X0238590Y0159488D02*
X0241294Y0159488D01*
X0241294Y0159537D02*
X0238587Y0159537D01*
X0238591Y0159585D02*
X0241288Y0159585D01*
X0241282Y0159634D02*
X0238595Y0159634D01*
X0238599Y0159683D02*
X0241277Y0159683D01*
X0241268Y0159731D02*
X0238603Y0159731D01*
X0238607Y0159780D02*
X0241252Y0159780D01*
X0241236Y0159828D02*
X0238611Y0159828D01*
X0238615Y0159877D02*
X0241220Y0159877D01*
X0241199Y0159925D02*
X0238620Y0159925D01*
X0238626Y0159974D02*
X0241166Y0159974D01*
X0241133Y0160022D02*
X0238635Y0160022D01*
X0238643Y0160071D02*
X0241100Y0160071D01*
X0241037Y0160119D02*
X0238651Y0160119D01*
X0238662Y0160168D02*
X0240966Y0160168D01*
X0240837Y0160216D02*
X0238677Y0160216D01*
X0238692Y0160265D02*
X0240562Y0160265D01*
X0240562Y0160313D02*
X0238707Y0160313D01*
X0238722Y0160362D02*
X0240562Y0160362D01*
X0240562Y0160410D02*
X0238738Y0160410D01*
X0238753Y0160459D02*
X0240562Y0160459D01*
X0240562Y0160507D02*
X0238768Y0160507D01*
X0238784Y0160556D02*
X0240562Y0160556D01*
X0240562Y0160604D02*
X0238810Y0160604D01*
X0238836Y0160653D02*
X0240562Y0160653D01*
X0240562Y0160701D02*
X0238862Y0160701D01*
X0238888Y0160750D02*
X0240562Y0160750D01*
X0240562Y0160798D02*
X0238914Y0160798D01*
X0238941Y0160847D02*
X0240562Y0160847D01*
X0240562Y0160895D02*
X0238967Y0160895D01*
X0238997Y0160944D02*
X0240561Y0160944D01*
X0240561Y0160992D02*
X0239031Y0160992D01*
X0239065Y0161041D02*
X0253853Y0161041D01*
X0253814Y0161089D02*
X0239099Y0161089D01*
X0239139Y0161138D02*
X0253774Y0161138D01*
X0253734Y0161186D02*
X0239179Y0161186D01*
X0239219Y0161235D02*
X0253694Y0161235D01*
X0253654Y0161283D02*
X0239262Y0161283D01*
X0239306Y0161332D02*
X0253609Y0161332D01*
X0253558Y0161380D02*
X0239350Y0161380D01*
X0239403Y0161429D02*
X0253507Y0161429D01*
X0253452Y0161477D02*
X0239461Y0161477D01*
X0239520Y0161526D02*
X0253393Y0161526D01*
X0253335Y0161574D02*
X0239579Y0161574D01*
X0239638Y0161623D02*
X0253271Y0161623D01*
X0253205Y0161671D02*
X0239699Y0161671D01*
X0239787Y0161720D02*
X0253134Y0161720D01*
X0253044Y0161768D02*
X0239874Y0161768D01*
X0239961Y0161817D02*
X0252955Y0161817D01*
X0252866Y0161866D02*
X0240048Y0161866D01*
X0240162Y0161914D02*
X0252769Y0161914D01*
X0252617Y0161963D02*
X0240292Y0161963D01*
X0240455Y0162011D02*
X0252465Y0162011D01*
X0252268Y0162060D02*
X0240618Y0162060D01*
X0241046Y0162108D02*
X0251862Y0162108D01*
X0244913Y0160362D02*
X0244569Y0160362D01*
X0244569Y0160410D02*
X0244896Y0160410D01*
X0244878Y0160459D02*
X0244569Y0160459D01*
X0244569Y0160507D02*
X0244861Y0160507D01*
X0244843Y0160556D02*
X0244569Y0160556D01*
X0244569Y0160604D02*
X0244826Y0160604D01*
X0244808Y0160653D02*
X0244569Y0160653D01*
X0244569Y0160701D02*
X0244790Y0160701D01*
X0244773Y0160750D02*
X0244569Y0160750D01*
X0244569Y0160798D02*
X0244755Y0160798D01*
X0244738Y0160847D02*
X0244569Y0160847D01*
X0244569Y0160895D02*
X0244721Y0160895D01*
X0244704Y0160944D02*
X0244569Y0160944D01*
X0244569Y0160992D02*
X0244687Y0160992D01*
X0241128Y0284020D02*
X0240713Y0284062D01*
X0240510Y0284106D01*
X0240114Y0284235D01*
X0239747Y0284434D01*
X0239421Y0284693D01*
X0239272Y0284838D01*
X0239010Y0285161D01*
X0238811Y0285528D01*
X0238739Y0285723D01*
X0238677Y0285922D01*
X0238628Y0286124D01*
X0238586Y0286539D01*
X0238621Y0286954D01*
X0238657Y0287158D01*
X0238781Y0287557D01*
X0238978Y0287924D01*
X0239097Y0288094D01*
X0239230Y0288255D01*
X0239369Y0288409D01*
X0239691Y0288675D01*
X0240055Y0288877D01*
X0240247Y0288957D01*
X0240646Y0289076D01*
X0241061Y0289117D01*
X0241136Y0289125D01*
X0251772Y0289125D01*
X0252187Y0289084D01*
X0252390Y0289043D01*
X0252787Y0288916D01*
X0253154Y0288717D01*
X0253321Y0288594D01*
X0253482Y0288461D01*
X0253632Y0288318D01*
X0253897Y0287996D01*
X0254096Y0287629D01*
X0254171Y0287435D01*
X0254233Y0287236D01*
X0254284Y0287035D01*
X0254326Y0286620D01*
X0254315Y0286412D01*
X0254294Y0286205D01*
X0254261Y0286000D01*
X0254137Y0285602D01*
X0253943Y0285233D01*
X0253826Y0285061D01*
X0253556Y0284745D01*
X0250989Y0284745D01*
X0250989Y0284793D02*
X0253597Y0284793D01*
X0253556Y0284745D02*
X0253234Y0284479D01*
X0252871Y0284274D01*
X0252681Y0284192D01*
X0252282Y0284070D01*
X0251867Y0284028D01*
X0251659Y0284019D01*
X0250993Y0284019D01*
X0250989Y0284183D01*
X0250989Y0285435D01*
X0251114Y0285317D01*
X0251279Y0285190D01*
X0251467Y0285101D01*
X0251669Y0285052D01*
X0251877Y0285038D01*
X0252085Y0285058D01*
X0252287Y0285105D01*
X0252481Y0285179D01*
X0252662Y0285282D01*
X0252817Y0285422D01*
X0252947Y0285583D01*
X0253053Y0285762D01*
X0253136Y0285953D01*
X0253186Y0286155D01*
X0253215Y0286361D01*
X0253229Y0286569D01*
X0253213Y0286777D01*
X0253180Y0286982D01*
X0253128Y0287184D01*
X0253041Y0287373D01*
X0252928Y0287548D01*
X0252791Y0287703D01*
X0252630Y0287835D01*
X0252448Y0287936D01*
X0252249Y0288000D01*
X0252045Y0288035D01*
X0251837Y0288048D01*
X0251630Y0288026D01*
X0251431Y0287966D01*
X0251246Y0287870D01*
X0251085Y0287739D01*
X0250989Y0287666D01*
X0250989Y0287905D01*
X0250983Y0288018D01*
X0250029Y0288018D01*
X0250031Y0287896D01*
X0249816Y0287909D01*
X0249857Y0288018D01*
X0248883Y0288018D01*
X0248855Y0287923D01*
X0248324Y0286123D01*
X0248266Y0286131D01*
X0247734Y0288014D01*
X0247598Y0288018D01*
X0246972Y0288018D01*
X0246796Y0288019D01*
X0246259Y0286187D01*
X0246220Y0286047D01*
X0245669Y0287867D01*
X0245624Y0288018D01*
X0244789Y0288018D01*
X0244520Y0288010D01*
X0244372Y0288018D01*
X0243606Y0288018D01*
X0243611Y0287971D01*
X0243407Y0287937D01*
X0243409Y0288018D01*
X0242444Y0288018D01*
X0242445Y0287875D01*
X0241871Y0287588D01*
X0241760Y0287695D01*
X0241408Y0287920D01*
X0241209Y0287971D01*
X0240798Y0288042D01*
X0240560Y0288043D01*
X0240562Y0287860D01*
X0240562Y0287235D01*
X0240720Y0287249D01*
X0240923Y0287205D01*
X0241093Y0287088D01*
X0241209Y0286919D01*
X0241273Y0286724D01*
X0241297Y0286517D01*
X0241267Y0286311D01*
X0241190Y0286120D01*
X0241061Y0285962D01*
X0240883Y0285862D01*
X0240679Y0285826D01*
X0240562Y0285809D01*
X0240562Y0285023D01*
X0240699Y0285044D01*
X0240906Y0285067D01*
X0241317Y0285138D01*
X0241502Y0285225D01*
X0241855Y0285448D01*
X0242084Y0285796D01*
X0242176Y0285980D01*
X0242249Y0286391D01*
X0242263Y0286596D01*
X0242190Y0287007D01*
X0242133Y0287204D01*
X0241874Y0287584D01*
X0242448Y0287881D01*
X0242448Y0285075D01*
X0242494Y0285075D01*
X0243328Y0285075D01*
X0243411Y0285080D01*
X0243407Y0287941D01*
X0243610Y0287974D01*
X0243607Y0285078D01*
X0243748Y0285075D01*
X0244374Y0285075D01*
X0244569Y0285088D01*
X0244569Y0288009D01*
X0244684Y0288008D01*
X0244729Y0287880D01*
X0245742Y0285078D01*
X0245889Y0285075D01*
X0246514Y0285075D01*
X0246716Y0285085D01*
X0247269Y0286878D01*
X0247331Y0286706D01*
X0247837Y0285083D01*
X0248007Y0285075D01*
X0248633Y0285075D01*
X0248792Y0285077D01*
X0249821Y0287909D01*
X0250028Y0287897D01*
X0250020Y0284094D01*
X0250017Y0284019D01*
X0241128Y0284020D01*
X0240697Y0284066D02*
X0250019Y0284066D01*
X0250020Y0284114D02*
X0240485Y0284114D01*
X0240336Y0284163D02*
X0250020Y0284163D01*
X0250021Y0284211D02*
X0240188Y0284211D01*
X0240069Y0284260D02*
X0250021Y0284260D01*
X0250021Y0284308D02*
X0239980Y0284308D01*
X0239890Y0284357D02*
X0250021Y0284357D01*
X0250021Y0284405D02*
X0239801Y0284405D01*
X0239723Y0284454D02*
X0250021Y0284454D01*
X0250021Y0284502D02*
X0239662Y0284502D01*
X0239600Y0284551D02*
X0250021Y0284551D01*
X0250021Y0284599D02*
X0239539Y0284599D01*
X0239478Y0284648D02*
X0250021Y0284648D01*
X0250022Y0284696D02*
X0239417Y0284696D01*
X0239367Y0284745D02*
X0250022Y0284745D01*
X0250022Y0284793D02*
X0239318Y0284793D01*
X0239269Y0284842D02*
X0250022Y0284842D01*
X0250022Y0284890D02*
X0239230Y0284890D01*
X0239190Y0284939D02*
X0250022Y0284939D01*
X0250022Y0284987D02*
X0239151Y0284987D01*
X0239112Y0285036D02*
X0240562Y0285036D01*
X0240562Y0285084D02*
X0239072Y0285084D01*
X0239033Y0285133D02*
X0240562Y0285133D01*
X0240562Y0285181D02*
X0238999Y0285181D01*
X0238973Y0285230D02*
X0240562Y0285230D01*
X0240562Y0285278D02*
X0238946Y0285278D01*
X0238920Y0285327D02*
X0240562Y0285327D01*
X0240562Y0285375D02*
X0238894Y0285375D01*
X0238867Y0285424D02*
X0240562Y0285424D01*
X0240562Y0285472D02*
X0238841Y0285472D01*
X0238815Y0285521D02*
X0240562Y0285521D01*
X0240562Y0285569D02*
X0238796Y0285569D01*
X0238778Y0285618D02*
X0240562Y0285618D01*
X0240562Y0285666D02*
X0238760Y0285666D01*
X0238742Y0285715D02*
X0240562Y0285715D01*
X0240562Y0285763D02*
X0238726Y0285763D01*
X0238711Y0285812D02*
X0240584Y0285812D01*
X0240874Y0285860D02*
X0238696Y0285860D01*
X0238681Y0285909D02*
X0240967Y0285909D01*
X0241053Y0285957D02*
X0238668Y0285957D01*
X0238656Y0286006D02*
X0241097Y0286006D01*
X0241137Y0286054D02*
X0238645Y0286054D01*
X0238633Y0286103D02*
X0241176Y0286103D01*
X0241203Y0286152D02*
X0238625Y0286152D01*
X0238620Y0286200D02*
X0241222Y0286200D01*
X0241242Y0286249D02*
X0238615Y0286249D01*
X0238611Y0286297D02*
X0241261Y0286297D01*
X0241272Y0286346D02*
X0238606Y0286346D01*
X0238601Y0286394D02*
X0241279Y0286394D01*
X0241286Y0286443D02*
X0238596Y0286443D01*
X0238591Y0286491D02*
X0241293Y0286491D01*
X0241294Y0286540D02*
X0238586Y0286540D01*
X0238590Y0286588D02*
X0241289Y0286588D01*
X0241283Y0286637D02*
X0238594Y0286637D01*
X0238599Y0286685D02*
X0241277Y0286685D01*
X0241269Y0286734D02*
X0238603Y0286734D01*
X0238607Y0286782D02*
X0241254Y0286782D01*
X0241238Y0286831D02*
X0238611Y0286831D01*
X0238615Y0286879D02*
X0241222Y0286879D01*
X0241203Y0286928D02*
X0238619Y0286928D01*
X0238625Y0286976D02*
X0241170Y0286976D01*
X0241136Y0287025D02*
X0238634Y0287025D01*
X0238642Y0287073D02*
X0241103Y0287073D01*
X0241044Y0287122D02*
X0238651Y0287122D01*
X0238661Y0287170D02*
X0240974Y0287170D01*
X0240861Y0287219D02*
X0238676Y0287219D01*
X0238691Y0287267D02*
X0240562Y0287267D01*
X0240562Y0287316D02*
X0238706Y0287316D01*
X0238721Y0287364D02*
X0240562Y0287364D01*
X0240562Y0287413D02*
X0238736Y0287413D01*
X0238751Y0287461D02*
X0240562Y0287461D01*
X0240562Y0287510D02*
X0238766Y0287510D01*
X0238781Y0287558D02*
X0240562Y0287558D01*
X0240562Y0287607D02*
X0238808Y0287607D01*
X0238834Y0287655D02*
X0240562Y0287655D01*
X0240562Y0287704D02*
X0238860Y0287704D01*
X0238886Y0287752D02*
X0240562Y0287752D01*
X0240562Y0287801D02*
X0238912Y0287801D01*
X0238938Y0287849D02*
X0240562Y0287849D01*
X0240562Y0287898D02*
X0238964Y0287898D01*
X0238994Y0287946D02*
X0240561Y0287946D01*
X0240561Y0287995D02*
X0239027Y0287995D01*
X0239061Y0288043D02*
X0251792Y0288043D01*
X0251916Y0288043D02*
X0253858Y0288043D01*
X0253897Y0287995D02*
X0252265Y0287995D01*
X0252416Y0287946D02*
X0253924Y0287946D01*
X0253950Y0287898D02*
X0252516Y0287898D01*
X0252603Y0287849D02*
X0253976Y0287849D01*
X0254003Y0287801D02*
X0252671Y0287801D01*
X0252730Y0287752D02*
X0254029Y0287752D01*
X0254055Y0287704D02*
X0252790Y0287704D01*
X0252833Y0287655D02*
X0254082Y0287655D01*
X0254104Y0287607D02*
X0252876Y0287607D01*
X0252919Y0287558D02*
X0254123Y0287558D01*
X0254142Y0287510D02*
X0252953Y0287510D01*
X0252984Y0287461D02*
X0254161Y0287461D01*
X0254178Y0287413D02*
X0253016Y0287413D01*
X0253045Y0287364D02*
X0254193Y0287364D01*
X0254208Y0287316D02*
X0253067Y0287316D01*
X0253090Y0287267D02*
X0254223Y0287267D01*
X0254237Y0287219D02*
X0253112Y0287219D01*
X0253131Y0287170D02*
X0254249Y0287170D01*
X0254262Y0287122D02*
X0253144Y0287122D01*
X0253157Y0287073D02*
X0254274Y0287073D01*
X0254285Y0287025D02*
X0253169Y0287025D01*
X0253181Y0286976D02*
X0254290Y0286976D01*
X0254295Y0286928D02*
X0253189Y0286928D01*
X0253197Y0286879D02*
X0254300Y0286879D01*
X0254305Y0286831D02*
X0253205Y0286831D01*
X0253213Y0286782D02*
X0254310Y0286782D01*
X0254315Y0286734D02*
X0253217Y0286734D01*
X0253220Y0286685D02*
X0254319Y0286685D01*
X0254324Y0286637D02*
X0253224Y0286637D01*
X0253228Y0286588D02*
X0254324Y0286588D01*
X0254322Y0286540D02*
X0253227Y0286540D01*
X0253224Y0286491D02*
X0254319Y0286491D01*
X0254316Y0286443D02*
X0253221Y0286443D01*
X0253217Y0286394D02*
X0254313Y0286394D01*
X0254308Y0286346D02*
X0253213Y0286346D01*
X0253206Y0286297D02*
X0254303Y0286297D01*
X0254298Y0286249D02*
X0253199Y0286249D01*
X0253192Y0286200D02*
X0254293Y0286200D01*
X0254285Y0286152D02*
X0253185Y0286152D01*
X0253173Y0286103D02*
X0254278Y0286103D01*
X0254270Y0286054D02*
X0253161Y0286054D01*
X0253149Y0286006D02*
X0254262Y0286006D01*
X0254248Y0285957D02*
X0253137Y0285957D01*
X0253117Y0285909D02*
X0254233Y0285909D01*
X0254218Y0285860D02*
X0253096Y0285860D01*
X0253075Y0285812D02*
X0254203Y0285812D01*
X0254188Y0285763D02*
X0253054Y0285763D01*
X0253025Y0285715D02*
X0254173Y0285715D01*
X0254158Y0285666D02*
X0252996Y0285666D01*
X0252968Y0285618D02*
X0254142Y0285618D01*
X0254120Y0285569D02*
X0252936Y0285569D01*
X0252897Y0285521D02*
X0254095Y0285521D01*
X0254069Y0285472D02*
X0252858Y0285472D01*
X0252819Y0285424D02*
X0254044Y0285424D01*
X0254018Y0285375D02*
X0252765Y0285375D01*
X0252711Y0285327D02*
X0253992Y0285327D01*
X0253967Y0285278D02*
X0252654Y0285278D01*
X0252569Y0285230D02*
X0253941Y0285230D01*
X0253908Y0285181D02*
X0252485Y0285181D01*
X0252360Y0285133D02*
X0253875Y0285133D01*
X0253842Y0285084D02*
X0252198Y0285084D01*
X0251535Y0285084D02*
X0250989Y0285084D01*
X0250989Y0285036D02*
X0253804Y0285036D01*
X0253763Y0284987D02*
X0250989Y0284987D01*
X0250989Y0284939D02*
X0253721Y0284939D01*
X0253680Y0284890D02*
X0250989Y0284890D01*
X0250989Y0284842D02*
X0253639Y0284842D01*
X0253497Y0284696D02*
X0250989Y0284696D01*
X0250989Y0284648D02*
X0253438Y0284648D01*
X0253380Y0284599D02*
X0250989Y0284599D01*
X0250989Y0284551D02*
X0253321Y0284551D01*
X0253262Y0284502D02*
X0250989Y0284502D01*
X0250989Y0284454D02*
X0253189Y0284454D01*
X0253103Y0284405D02*
X0250989Y0284405D01*
X0250989Y0284357D02*
X0253017Y0284357D01*
X0252932Y0284308D02*
X0250989Y0284308D01*
X0250989Y0284260D02*
X0252838Y0284260D01*
X0252725Y0284211D02*
X0250989Y0284211D01*
X0250989Y0284163D02*
X0252585Y0284163D01*
X0252426Y0284114D02*
X0250991Y0284114D01*
X0250992Y0284066D02*
X0252235Y0284066D01*
X0251399Y0285133D02*
X0250989Y0285133D01*
X0250989Y0285181D02*
X0251297Y0285181D01*
X0251227Y0285230D02*
X0250989Y0285230D01*
X0250989Y0285278D02*
X0251164Y0285278D01*
X0251103Y0285327D02*
X0250989Y0285327D01*
X0250989Y0285375D02*
X0251052Y0285375D01*
X0251000Y0285424D02*
X0250989Y0285424D01*
X0251352Y0285860D02*
X0251843Y0285860D01*
X0251766Y0285828D02*
X0251564Y0285810D01*
X0251362Y0285852D01*
X0251198Y0285976D01*
X0251084Y0286145D01*
X0251019Y0286337D01*
X0250990Y0286541D01*
X0251021Y0286744D01*
X0251091Y0286935D01*
X0251209Y0287099D01*
X0251377Y0287217D01*
X0251578Y0287259D01*
X0251780Y0287234D01*
X0251964Y0287151D01*
X0252110Y0287011D01*
X0252210Y0286831D01*
X0252242Y0286627D01*
X0252239Y0286424D01*
X0252203Y0286222D01*
X0252103Y0286042D01*
X0251952Y0285906D01*
X0251766Y0285828D01*
X0251586Y0285812D02*
X0251555Y0285812D01*
X0251287Y0285909D02*
X0251955Y0285909D01*
X0252009Y0285957D02*
X0251223Y0285957D01*
X0251178Y0286006D02*
X0252063Y0286006D01*
X0252110Y0286054D02*
X0251145Y0286054D01*
X0251112Y0286103D02*
X0252137Y0286103D01*
X0252164Y0286152D02*
X0251082Y0286152D01*
X0251065Y0286200D02*
X0252191Y0286200D01*
X0252208Y0286249D02*
X0251049Y0286249D01*
X0251032Y0286297D02*
X0252217Y0286297D01*
X0252225Y0286346D02*
X0251018Y0286346D01*
X0251011Y0286394D02*
X0252234Y0286394D01*
X0252240Y0286443D02*
X0251004Y0286443D01*
X0250997Y0286491D02*
X0252240Y0286491D01*
X0252241Y0286540D02*
X0250990Y0286540D01*
X0250997Y0286588D02*
X0252241Y0286588D01*
X0252240Y0286637D02*
X0251004Y0286637D01*
X0251012Y0286685D02*
X0252233Y0286685D01*
X0252225Y0286734D02*
X0251019Y0286734D01*
X0251035Y0286782D02*
X0252218Y0286782D01*
X0252210Y0286831D02*
X0251053Y0286831D01*
X0251070Y0286879D02*
X0252184Y0286879D01*
X0252156Y0286928D02*
X0251088Y0286928D01*
X0251121Y0286976D02*
X0252129Y0286976D01*
X0252096Y0287025D02*
X0251155Y0287025D01*
X0251190Y0287073D02*
X0252045Y0287073D01*
X0251994Y0287122D02*
X0251241Y0287122D01*
X0251310Y0287170D02*
X0251921Y0287170D01*
X0251814Y0287219D02*
X0251384Y0287219D01*
X0251038Y0287704D02*
X0250989Y0287704D01*
X0250989Y0287752D02*
X0251101Y0287752D01*
X0251161Y0287801D02*
X0250989Y0287801D01*
X0250989Y0287849D02*
X0251220Y0287849D01*
X0251299Y0287898D02*
X0250989Y0287898D01*
X0250987Y0287946D02*
X0251393Y0287946D01*
X0251527Y0287995D02*
X0250984Y0287995D01*
X0250030Y0287995D02*
X0249848Y0287995D01*
X0249830Y0287946D02*
X0250030Y0287946D01*
X0250031Y0287898D02*
X0250019Y0287898D01*
X0250003Y0287898D02*
X0249818Y0287898D01*
X0249800Y0287849D02*
X0250028Y0287849D01*
X0250028Y0287801D02*
X0249782Y0287801D01*
X0249765Y0287752D02*
X0250028Y0287752D01*
X0250028Y0287704D02*
X0249747Y0287704D01*
X0249729Y0287655D02*
X0250028Y0287655D01*
X0250028Y0287607D02*
X0249712Y0287607D01*
X0249694Y0287558D02*
X0250028Y0287558D01*
X0250027Y0287510D02*
X0249676Y0287510D01*
X0249659Y0287461D02*
X0250027Y0287461D01*
X0250027Y0287413D02*
X0249641Y0287413D01*
X0249623Y0287364D02*
X0250027Y0287364D01*
X0250027Y0287316D02*
X0249606Y0287316D01*
X0249588Y0287267D02*
X0250027Y0287267D01*
X0250027Y0287219D02*
X0249571Y0287219D01*
X0249553Y0287170D02*
X0250027Y0287170D01*
X0250027Y0287122D02*
X0249535Y0287122D01*
X0249518Y0287073D02*
X0250027Y0287073D01*
X0250026Y0287025D02*
X0249500Y0287025D01*
X0249482Y0286976D02*
X0250026Y0286976D01*
X0250026Y0286928D02*
X0249465Y0286928D01*
X0249447Y0286879D02*
X0250026Y0286879D01*
X0250026Y0286831D02*
X0249429Y0286831D01*
X0249412Y0286782D02*
X0250026Y0286782D01*
X0250026Y0286734D02*
X0249394Y0286734D01*
X0249376Y0286685D02*
X0250026Y0286685D01*
X0250026Y0286637D02*
X0249359Y0286637D01*
X0249341Y0286588D02*
X0250026Y0286588D01*
X0250025Y0286540D02*
X0249324Y0286540D01*
X0249306Y0286491D02*
X0250025Y0286491D01*
X0250025Y0286443D02*
X0249288Y0286443D01*
X0249271Y0286394D02*
X0250025Y0286394D01*
X0250025Y0286346D02*
X0249253Y0286346D01*
X0249235Y0286297D02*
X0250025Y0286297D01*
X0250025Y0286249D02*
X0249218Y0286249D01*
X0249200Y0286200D02*
X0250025Y0286200D01*
X0250025Y0286152D02*
X0249182Y0286152D01*
X0249165Y0286103D02*
X0250025Y0286103D01*
X0250024Y0286054D02*
X0249147Y0286054D01*
X0249130Y0286006D02*
X0250024Y0286006D01*
X0250024Y0285957D02*
X0249112Y0285957D01*
X0249094Y0285909D02*
X0250024Y0285909D01*
X0250024Y0285860D02*
X0249077Y0285860D01*
X0249059Y0285812D02*
X0250024Y0285812D01*
X0250024Y0285763D02*
X0249041Y0285763D01*
X0249024Y0285715D02*
X0250024Y0285715D01*
X0250024Y0285666D02*
X0249006Y0285666D01*
X0248988Y0285618D02*
X0250023Y0285618D01*
X0250023Y0285569D02*
X0248971Y0285569D01*
X0248953Y0285521D02*
X0250023Y0285521D01*
X0250023Y0285472D02*
X0248935Y0285472D01*
X0248918Y0285424D02*
X0250023Y0285424D01*
X0250023Y0285375D02*
X0248900Y0285375D01*
X0248883Y0285327D02*
X0250023Y0285327D01*
X0250023Y0285278D02*
X0248865Y0285278D01*
X0248847Y0285230D02*
X0250023Y0285230D01*
X0250023Y0285181D02*
X0248830Y0285181D01*
X0248812Y0285133D02*
X0250022Y0285133D01*
X0250022Y0285084D02*
X0248794Y0285084D01*
X0247837Y0285084D02*
X0246708Y0285084D01*
X0246731Y0285133D02*
X0247821Y0285133D01*
X0247806Y0285181D02*
X0246746Y0285181D01*
X0246761Y0285230D02*
X0247791Y0285230D01*
X0247776Y0285278D02*
X0246776Y0285278D01*
X0246790Y0285327D02*
X0247761Y0285327D01*
X0247746Y0285375D02*
X0246805Y0285375D01*
X0246820Y0285424D02*
X0247731Y0285424D01*
X0247716Y0285472D02*
X0246835Y0285472D01*
X0246850Y0285521D02*
X0247700Y0285521D01*
X0247685Y0285569D02*
X0246865Y0285569D01*
X0246880Y0285618D02*
X0247670Y0285618D01*
X0247655Y0285666D02*
X0246895Y0285666D01*
X0246910Y0285715D02*
X0247640Y0285715D01*
X0247625Y0285763D02*
X0246925Y0285763D01*
X0246940Y0285812D02*
X0247610Y0285812D01*
X0247595Y0285860D02*
X0246955Y0285860D01*
X0246970Y0285909D02*
X0247579Y0285909D01*
X0247564Y0285957D02*
X0246985Y0285957D01*
X0247000Y0286006D02*
X0247549Y0286006D01*
X0247534Y0286054D02*
X0247015Y0286054D01*
X0247030Y0286103D02*
X0247519Y0286103D01*
X0247504Y0286152D02*
X0247045Y0286152D01*
X0247060Y0286200D02*
X0247489Y0286200D01*
X0247474Y0286249D02*
X0247075Y0286249D01*
X0247090Y0286297D02*
X0247458Y0286297D01*
X0247443Y0286346D02*
X0247105Y0286346D01*
X0247120Y0286394D02*
X0247428Y0286394D01*
X0247413Y0286443D02*
X0247135Y0286443D01*
X0247149Y0286491D02*
X0247398Y0286491D01*
X0247383Y0286540D02*
X0247164Y0286540D01*
X0247179Y0286588D02*
X0247368Y0286588D01*
X0247353Y0286637D02*
X0247194Y0286637D01*
X0247209Y0286685D02*
X0247337Y0286685D01*
X0247321Y0286734D02*
X0247224Y0286734D01*
X0247239Y0286782D02*
X0247304Y0286782D01*
X0247286Y0286831D02*
X0247254Y0286831D01*
X0246505Y0287025D02*
X0245924Y0287025D01*
X0245910Y0287073D02*
X0246519Y0287073D01*
X0246533Y0287122D02*
X0245895Y0287122D01*
X0245880Y0287170D02*
X0246547Y0287170D01*
X0246561Y0287219D02*
X0245866Y0287219D01*
X0245851Y0287267D02*
X0246576Y0287267D01*
X0246590Y0287316D02*
X0245836Y0287316D01*
X0245822Y0287364D02*
X0246604Y0287364D01*
X0246618Y0287413D02*
X0245807Y0287413D01*
X0245792Y0287461D02*
X0246632Y0287461D01*
X0246647Y0287510D02*
X0245777Y0287510D01*
X0245763Y0287558D02*
X0246661Y0287558D01*
X0246675Y0287607D02*
X0245748Y0287607D01*
X0245733Y0287655D02*
X0246689Y0287655D01*
X0246704Y0287704D02*
X0245719Y0287704D01*
X0245704Y0287752D02*
X0246718Y0287752D01*
X0246732Y0287801D02*
X0245689Y0287801D01*
X0245675Y0287849D02*
X0246746Y0287849D01*
X0246760Y0287898D02*
X0245660Y0287898D01*
X0245645Y0287946D02*
X0246775Y0287946D01*
X0246789Y0287995D02*
X0245631Y0287995D01*
X0244792Y0287704D02*
X0244569Y0287704D01*
X0244569Y0287752D02*
X0244775Y0287752D01*
X0244757Y0287801D02*
X0244569Y0287801D01*
X0244569Y0287849D02*
X0244740Y0287849D01*
X0244722Y0287898D02*
X0244569Y0287898D01*
X0244569Y0287946D02*
X0244706Y0287946D01*
X0244689Y0287995D02*
X0244569Y0287995D01*
X0244569Y0287655D02*
X0244810Y0287655D01*
X0244827Y0287607D02*
X0244569Y0287607D01*
X0244569Y0287558D02*
X0244845Y0287558D01*
X0244863Y0287510D02*
X0244569Y0287510D01*
X0244569Y0287461D02*
X0244880Y0287461D01*
X0244898Y0287413D02*
X0244569Y0287413D01*
X0244569Y0287364D02*
X0244915Y0287364D01*
X0244933Y0287316D02*
X0244569Y0287316D01*
X0244569Y0287267D02*
X0244950Y0287267D01*
X0244968Y0287219D02*
X0244569Y0287219D01*
X0244569Y0287170D02*
X0244985Y0287170D01*
X0245003Y0287122D02*
X0244569Y0287122D01*
X0244569Y0287073D02*
X0245020Y0287073D01*
X0245038Y0287025D02*
X0244569Y0287025D01*
X0244569Y0286976D02*
X0245056Y0286976D01*
X0245073Y0286928D02*
X0244569Y0286928D01*
X0244569Y0286879D02*
X0245091Y0286879D01*
X0245108Y0286831D02*
X0244569Y0286831D01*
X0244569Y0286782D02*
X0245126Y0286782D01*
X0245143Y0286734D02*
X0244569Y0286734D01*
X0244569Y0286685D02*
X0245161Y0286685D01*
X0245178Y0286637D02*
X0244569Y0286637D01*
X0244569Y0286588D02*
X0245196Y0286588D01*
X0245213Y0286540D02*
X0244569Y0286540D01*
X0244569Y0286491D02*
X0245231Y0286491D01*
X0245249Y0286443D02*
X0244569Y0286443D01*
X0244569Y0286394D02*
X0245266Y0286394D01*
X0245284Y0286346D02*
X0244569Y0286346D01*
X0244569Y0286297D02*
X0245301Y0286297D01*
X0245319Y0286249D02*
X0244569Y0286249D01*
X0244569Y0286200D02*
X0245336Y0286200D01*
X0245354Y0286152D02*
X0244569Y0286152D01*
X0244569Y0286103D02*
X0245371Y0286103D01*
X0245389Y0286054D02*
X0244569Y0286054D01*
X0244569Y0286006D02*
X0245406Y0286006D01*
X0245424Y0285957D02*
X0244569Y0285957D01*
X0244569Y0285909D02*
X0245442Y0285909D01*
X0245459Y0285860D02*
X0244569Y0285860D01*
X0244569Y0285812D02*
X0245477Y0285812D01*
X0245494Y0285763D02*
X0244569Y0285763D01*
X0244569Y0285715D02*
X0245512Y0285715D01*
X0245529Y0285666D02*
X0244569Y0285666D01*
X0244569Y0285618D02*
X0245547Y0285618D01*
X0245564Y0285569D02*
X0244569Y0285569D01*
X0244569Y0285521D02*
X0245582Y0285521D01*
X0245599Y0285472D02*
X0244569Y0285472D01*
X0244569Y0285424D02*
X0245617Y0285424D01*
X0245635Y0285375D02*
X0244569Y0285375D01*
X0244569Y0285327D02*
X0245652Y0285327D01*
X0245670Y0285278D02*
X0244569Y0285278D01*
X0244569Y0285230D02*
X0245687Y0285230D01*
X0245705Y0285181D02*
X0244569Y0285181D01*
X0244569Y0285133D02*
X0245722Y0285133D01*
X0245740Y0285084D02*
X0244518Y0285084D01*
X0243607Y0285084D02*
X0243411Y0285084D01*
X0243411Y0285133D02*
X0243607Y0285133D01*
X0243607Y0285181D02*
X0243411Y0285181D01*
X0243411Y0285230D02*
X0243607Y0285230D01*
X0243607Y0285278D02*
X0243410Y0285278D01*
X0243410Y0285327D02*
X0243607Y0285327D01*
X0243607Y0285375D02*
X0243410Y0285375D01*
X0243410Y0285424D02*
X0243607Y0285424D01*
X0243607Y0285472D02*
X0243410Y0285472D01*
X0243410Y0285521D02*
X0243607Y0285521D01*
X0243607Y0285569D02*
X0243410Y0285569D01*
X0243410Y0285618D02*
X0243607Y0285618D01*
X0243607Y0285666D02*
X0243410Y0285666D01*
X0243410Y0285715D02*
X0243607Y0285715D01*
X0243607Y0285763D02*
X0243410Y0285763D01*
X0243410Y0285812D02*
X0243608Y0285812D01*
X0243608Y0285860D02*
X0243410Y0285860D01*
X0243410Y0285909D02*
X0243608Y0285909D01*
X0243608Y0285957D02*
X0243410Y0285957D01*
X0243409Y0286006D02*
X0243608Y0286006D01*
X0243608Y0286054D02*
X0243409Y0286054D01*
X0243409Y0286103D02*
X0243608Y0286103D01*
X0243608Y0286152D02*
X0243409Y0286152D01*
X0243409Y0286200D02*
X0243608Y0286200D01*
X0243608Y0286249D02*
X0243409Y0286249D01*
X0243409Y0286297D02*
X0243608Y0286297D01*
X0243608Y0286346D02*
X0243409Y0286346D01*
X0243409Y0286394D02*
X0243608Y0286394D01*
X0243608Y0286443D02*
X0243409Y0286443D01*
X0243409Y0286491D02*
X0243608Y0286491D01*
X0243609Y0286540D02*
X0243409Y0286540D01*
X0243409Y0286588D02*
X0243609Y0286588D01*
X0243609Y0286637D02*
X0243409Y0286637D01*
X0243409Y0286685D02*
X0243609Y0286685D01*
X0243609Y0286734D02*
X0243409Y0286734D01*
X0243408Y0286782D02*
X0243609Y0286782D01*
X0243609Y0286831D02*
X0243408Y0286831D01*
X0243408Y0286879D02*
X0243609Y0286879D01*
X0243609Y0286928D02*
X0243408Y0286928D01*
X0243408Y0286976D02*
X0243609Y0286976D01*
X0243609Y0287025D02*
X0243408Y0287025D01*
X0243408Y0287073D02*
X0243609Y0287073D01*
X0243609Y0287122D02*
X0243408Y0287122D01*
X0243408Y0287170D02*
X0243609Y0287170D01*
X0243609Y0287219D02*
X0243408Y0287219D01*
X0243408Y0287267D02*
X0243609Y0287267D01*
X0243610Y0287316D02*
X0243408Y0287316D01*
X0243408Y0287364D02*
X0243610Y0287364D01*
X0243610Y0287413D02*
X0243408Y0287413D01*
X0243407Y0287461D02*
X0243610Y0287461D01*
X0243610Y0287510D02*
X0243407Y0287510D01*
X0243407Y0287558D02*
X0243610Y0287558D01*
X0243610Y0287607D02*
X0243407Y0287607D01*
X0243407Y0287655D02*
X0243610Y0287655D01*
X0243610Y0287704D02*
X0243407Y0287704D01*
X0243407Y0287752D02*
X0243610Y0287752D01*
X0243610Y0287801D02*
X0243407Y0287801D01*
X0243407Y0287849D02*
X0243610Y0287849D01*
X0243610Y0287898D02*
X0243407Y0287898D01*
X0243407Y0287946D02*
X0243440Y0287946D01*
X0243464Y0287946D02*
X0243610Y0287946D01*
X0243608Y0287995D02*
X0243408Y0287995D01*
X0242445Y0287995D02*
X0241070Y0287995D01*
X0241304Y0287946D02*
X0242445Y0287946D01*
X0242445Y0287898D02*
X0241443Y0287898D01*
X0241519Y0287849D02*
X0242386Y0287849D01*
X0242394Y0287849D02*
X0242448Y0287849D01*
X0242448Y0287801D02*
X0242297Y0287801D01*
X0242293Y0287801D02*
X0241595Y0287801D01*
X0241670Y0287752D02*
X0242199Y0287752D01*
X0242200Y0287752D02*
X0242448Y0287752D01*
X0242448Y0287704D02*
X0242106Y0287704D01*
X0242103Y0287704D02*
X0241746Y0287704D01*
X0241801Y0287655D02*
X0242006Y0287655D01*
X0242013Y0287655D02*
X0242448Y0287655D01*
X0242448Y0287607D02*
X0241919Y0287607D01*
X0241909Y0287607D02*
X0241852Y0287607D01*
X0241892Y0287558D02*
X0242448Y0287558D01*
X0242448Y0287510D02*
X0241925Y0287510D01*
X0241958Y0287461D02*
X0242448Y0287461D01*
X0242448Y0287413D02*
X0241991Y0287413D01*
X0242024Y0287364D02*
X0242448Y0287364D01*
X0242448Y0287316D02*
X0242057Y0287316D01*
X0242090Y0287267D02*
X0242448Y0287267D01*
X0242448Y0287219D02*
X0242123Y0287219D01*
X0242143Y0287170D02*
X0242448Y0287170D01*
X0242448Y0287122D02*
X0242157Y0287122D01*
X0242171Y0287073D02*
X0242448Y0287073D01*
X0242448Y0287025D02*
X0242185Y0287025D01*
X0242196Y0286976D02*
X0242448Y0286976D01*
X0242448Y0286928D02*
X0242204Y0286928D01*
X0242213Y0286879D02*
X0242448Y0286879D01*
X0242448Y0286831D02*
X0242221Y0286831D01*
X0242230Y0286782D02*
X0242448Y0286782D01*
X0242448Y0286734D02*
X0242238Y0286734D01*
X0242247Y0286685D02*
X0242448Y0286685D01*
X0242448Y0286637D02*
X0242256Y0286637D01*
X0242262Y0286588D02*
X0242448Y0286588D01*
X0242448Y0286540D02*
X0242259Y0286540D01*
X0242255Y0286491D02*
X0242448Y0286491D01*
X0242448Y0286443D02*
X0242252Y0286443D01*
X0242249Y0286394D02*
X0242448Y0286394D01*
X0242448Y0286346D02*
X0242241Y0286346D01*
X0242232Y0286297D02*
X0242448Y0286297D01*
X0242448Y0286249D02*
X0242223Y0286249D01*
X0242215Y0286200D02*
X0242448Y0286200D01*
X0242448Y0286152D02*
X0242206Y0286152D01*
X0242198Y0286103D02*
X0242448Y0286103D01*
X0242448Y0286054D02*
X0242189Y0286054D01*
X0242180Y0286006D02*
X0242448Y0286006D01*
X0242448Y0285957D02*
X0242164Y0285957D01*
X0242140Y0285909D02*
X0242448Y0285909D01*
X0242448Y0285860D02*
X0242116Y0285860D01*
X0242092Y0285812D02*
X0242448Y0285812D01*
X0242448Y0285763D02*
X0242062Y0285763D01*
X0242030Y0285715D02*
X0242448Y0285715D01*
X0242448Y0285666D02*
X0241998Y0285666D01*
X0241966Y0285618D02*
X0242448Y0285618D01*
X0242448Y0285569D02*
X0241934Y0285569D01*
X0241902Y0285521D02*
X0242448Y0285521D01*
X0242448Y0285472D02*
X0241870Y0285472D01*
X0241816Y0285424D02*
X0242448Y0285424D01*
X0242448Y0285375D02*
X0241739Y0285375D01*
X0241662Y0285327D02*
X0242448Y0285327D01*
X0242448Y0285278D02*
X0241586Y0285278D01*
X0241509Y0285230D02*
X0242448Y0285230D01*
X0242448Y0285181D02*
X0241409Y0285181D01*
X0241288Y0285133D02*
X0242448Y0285133D01*
X0242448Y0285084D02*
X0241006Y0285084D01*
X0240647Y0285036D02*
X0250022Y0285036D01*
X0248333Y0286152D02*
X0248260Y0286152D01*
X0248246Y0286200D02*
X0248347Y0286200D01*
X0248361Y0286249D02*
X0248233Y0286249D01*
X0248219Y0286297D02*
X0248376Y0286297D01*
X0248390Y0286346D02*
X0248205Y0286346D01*
X0248191Y0286394D02*
X0248404Y0286394D01*
X0248419Y0286443D02*
X0248178Y0286443D01*
X0248164Y0286491D02*
X0248433Y0286491D01*
X0248447Y0286540D02*
X0248150Y0286540D01*
X0248137Y0286588D02*
X0248462Y0286588D01*
X0248476Y0286637D02*
X0248123Y0286637D01*
X0248109Y0286685D02*
X0248490Y0286685D01*
X0248504Y0286734D02*
X0248095Y0286734D01*
X0248082Y0286782D02*
X0248519Y0286782D01*
X0248533Y0286831D02*
X0248068Y0286831D01*
X0248054Y0286879D02*
X0248547Y0286879D01*
X0248562Y0286928D02*
X0248041Y0286928D01*
X0248027Y0286976D02*
X0248576Y0286976D01*
X0248590Y0287025D02*
X0248013Y0287025D01*
X0247999Y0287073D02*
X0248605Y0287073D01*
X0248619Y0287122D02*
X0247986Y0287122D01*
X0247972Y0287170D02*
X0248633Y0287170D01*
X0248648Y0287219D02*
X0247958Y0287219D01*
X0247945Y0287267D02*
X0248662Y0287267D01*
X0248676Y0287316D02*
X0247931Y0287316D01*
X0247917Y0287364D02*
X0248691Y0287364D01*
X0248705Y0287413D02*
X0247903Y0287413D01*
X0247890Y0287461D02*
X0248719Y0287461D01*
X0248733Y0287510D02*
X0247876Y0287510D01*
X0247862Y0287558D02*
X0248748Y0287558D01*
X0248762Y0287607D02*
X0247849Y0287607D01*
X0247835Y0287655D02*
X0248776Y0287655D01*
X0248791Y0287704D02*
X0247821Y0287704D01*
X0247807Y0287752D02*
X0248805Y0287752D01*
X0248819Y0287801D02*
X0247794Y0287801D01*
X0247780Y0287849D02*
X0248834Y0287849D01*
X0248848Y0287898D02*
X0247766Y0287898D01*
X0247753Y0287946D02*
X0248862Y0287946D01*
X0248876Y0287995D02*
X0247739Y0287995D01*
X0246490Y0286976D02*
X0245939Y0286976D01*
X0245954Y0286928D02*
X0246476Y0286928D01*
X0246462Y0286879D02*
X0245968Y0286879D01*
X0245983Y0286831D02*
X0246448Y0286831D01*
X0246433Y0286782D02*
X0245998Y0286782D01*
X0246012Y0286734D02*
X0246419Y0286734D01*
X0246405Y0286685D02*
X0246027Y0286685D01*
X0246042Y0286637D02*
X0246391Y0286637D01*
X0246377Y0286588D02*
X0246057Y0286588D01*
X0246071Y0286540D02*
X0246362Y0286540D01*
X0246348Y0286491D02*
X0246086Y0286491D01*
X0246101Y0286443D02*
X0246334Y0286443D01*
X0246320Y0286394D02*
X0246115Y0286394D01*
X0246130Y0286346D02*
X0246306Y0286346D01*
X0246291Y0286297D02*
X0246145Y0286297D01*
X0246159Y0286249D02*
X0246277Y0286249D01*
X0246263Y0286200D02*
X0246174Y0286200D01*
X0246189Y0286152D02*
X0246249Y0286152D01*
X0246236Y0286103D02*
X0246203Y0286103D01*
X0246218Y0286054D02*
X0246223Y0286054D01*
X0240995Y0289111D02*
X0251915Y0289111D01*
X0252294Y0289062D02*
X0240601Y0289062D01*
X0240438Y0289014D02*
X0252481Y0289014D01*
X0252633Y0288965D02*
X0240275Y0288965D01*
X0240150Y0288917D02*
X0252785Y0288917D01*
X0252875Y0288868D02*
X0240039Y0288868D01*
X0239952Y0288820D02*
X0252965Y0288820D01*
X0253054Y0288771D02*
X0239864Y0288771D01*
X0239777Y0288723D02*
X0253143Y0288723D01*
X0253212Y0288674D02*
X0239690Y0288674D01*
X0239631Y0288626D02*
X0253278Y0288626D01*
X0253341Y0288577D02*
X0239573Y0288577D01*
X0239514Y0288529D02*
X0253400Y0288529D01*
X0253459Y0288480D02*
X0239455Y0288480D01*
X0239396Y0288432D02*
X0253513Y0288432D01*
X0253564Y0288383D02*
X0239345Y0288383D01*
X0239302Y0288335D02*
X0253615Y0288335D01*
X0253658Y0288286D02*
X0239258Y0288286D01*
X0239215Y0288238D02*
X0253698Y0288238D01*
X0253738Y0288189D02*
X0239175Y0288189D01*
X0239135Y0288140D02*
X0253778Y0288140D01*
X0253818Y0288092D02*
X0239095Y0288092D01*
X0241128Y0411028D02*
X0240713Y0411070D01*
X0240510Y0411114D01*
X0240114Y0411243D01*
X0239747Y0411442D01*
X0239421Y0411701D01*
X0239272Y0411846D01*
X0239010Y0412169D01*
X0238811Y0412536D01*
X0238739Y0412731D01*
X0238677Y0412930D01*
X0238628Y0413132D01*
X0238586Y0413547D01*
X0238621Y0413962D01*
X0238657Y0414166D01*
X0238781Y0414565D01*
X0238978Y0414932D01*
X0239097Y0415102D01*
X0239230Y0415263D01*
X0239369Y0415417D01*
X0239691Y0415682D01*
X0240055Y0415885D01*
X0240247Y0415965D01*
X0240646Y0416083D01*
X0241061Y0416125D01*
X0241136Y0416133D01*
X0251772Y0416133D01*
X0252187Y0416092D01*
X0252390Y0416051D01*
X0252787Y0415924D01*
X0253154Y0415725D01*
X0253321Y0415602D01*
X0253482Y0415469D01*
X0253632Y0415326D01*
X0253897Y0415004D01*
X0254096Y0414637D01*
X0254171Y0414443D01*
X0254233Y0414244D01*
X0254284Y0414043D01*
X0254326Y0413628D01*
X0254315Y0413420D01*
X0254294Y0413213D01*
X0254261Y0413008D01*
X0254137Y0412609D01*
X0253943Y0412241D01*
X0253826Y0412069D01*
X0253556Y0411752D01*
X0253234Y0411487D01*
X0252871Y0411282D01*
X0252681Y0411200D01*
X0252282Y0411078D01*
X0251867Y0411036D01*
X0251659Y0411027D01*
X0250993Y0411027D01*
X0250989Y0411191D01*
X0250989Y0412442D01*
X0251114Y0412325D01*
X0251279Y0412198D01*
X0251467Y0412108D01*
X0251669Y0412060D01*
X0251877Y0412046D01*
X0252085Y0412066D01*
X0252287Y0412113D01*
X0252481Y0412187D01*
X0252662Y0412290D01*
X0252817Y0412430D01*
X0252947Y0412591D01*
X0253053Y0412770D01*
X0253136Y0412961D01*
X0253186Y0413163D01*
X0253215Y0413369D01*
X0253229Y0413577D01*
X0253213Y0413785D01*
X0253180Y0413990D01*
X0253128Y0414192D01*
X0253041Y0414381D01*
X0252928Y0414556D01*
X0252791Y0414711D01*
X0252630Y0414843D01*
X0252448Y0414944D01*
X0252249Y0415008D01*
X0252045Y0415043D01*
X0251837Y0415056D01*
X0251630Y0415034D01*
X0251431Y0414974D01*
X0251246Y0414878D01*
X0251085Y0414747D01*
X0250989Y0414674D01*
X0250989Y0414913D01*
X0250983Y0415026D01*
X0250029Y0415026D01*
X0250031Y0414904D01*
X0249816Y0414917D01*
X0249857Y0415026D01*
X0248883Y0415026D01*
X0248855Y0414931D01*
X0248324Y0413131D01*
X0248266Y0413139D01*
X0247734Y0415022D01*
X0247598Y0415026D01*
X0246972Y0415026D01*
X0246796Y0415027D01*
X0246259Y0413195D01*
X0246220Y0413055D01*
X0245669Y0414875D01*
X0245624Y0415026D01*
X0244789Y0415026D01*
X0244520Y0415018D01*
X0244372Y0415026D01*
X0243606Y0415026D01*
X0243611Y0414979D01*
X0243407Y0414945D01*
X0243409Y0415026D01*
X0242444Y0415026D01*
X0242445Y0414883D01*
X0241871Y0414596D01*
X0241760Y0414703D01*
X0241408Y0414928D01*
X0241209Y0414979D01*
X0240798Y0415050D01*
X0240560Y0415051D01*
X0240562Y0414868D01*
X0240562Y0414243D01*
X0240720Y0414257D01*
X0240923Y0414213D01*
X0241093Y0414096D01*
X0241209Y0413927D01*
X0241273Y0413731D01*
X0241297Y0413525D01*
X0241267Y0413319D01*
X0241190Y0413128D01*
X0241061Y0412970D01*
X0240883Y0412870D01*
X0240679Y0412834D01*
X0240562Y0412817D01*
X0240562Y0412031D01*
X0240699Y0412052D01*
X0240906Y0412075D01*
X0241317Y0412146D01*
X0241502Y0412233D01*
X0241855Y0412456D01*
X0242084Y0412804D01*
X0242176Y0412988D01*
X0242249Y0413398D01*
X0242263Y0413604D01*
X0242190Y0414015D01*
X0242133Y0414212D01*
X0241874Y0414592D01*
X0242448Y0414889D01*
X0242448Y0412083D01*
X0242494Y0412083D01*
X0243328Y0412083D01*
X0243411Y0412088D01*
X0243407Y0414949D01*
X0243610Y0414982D01*
X0243607Y0412086D01*
X0243748Y0412083D01*
X0244374Y0412083D01*
X0244569Y0412095D01*
X0244569Y0415017D01*
X0244684Y0415016D01*
X0244729Y0414888D01*
X0245742Y0412086D01*
X0245889Y0412083D01*
X0246514Y0412083D01*
X0246716Y0412093D01*
X0247269Y0413886D01*
X0247331Y0413714D01*
X0247837Y0412091D01*
X0248007Y0412083D01*
X0248633Y0412083D01*
X0248792Y0412085D01*
X0249821Y0414917D01*
X0250028Y0414905D01*
X0250020Y0411102D01*
X0250017Y0411027D01*
X0241128Y0411028D01*
X0240731Y0411068D02*
X0250019Y0411068D01*
X0250020Y0411117D02*
X0240501Y0411117D01*
X0240352Y0411165D02*
X0250020Y0411165D01*
X0250021Y0411214D02*
X0240204Y0411214D01*
X0240079Y0411262D02*
X0250021Y0411262D01*
X0250021Y0411311D02*
X0239989Y0411311D01*
X0239900Y0411359D02*
X0250021Y0411359D01*
X0250021Y0411408D02*
X0239811Y0411408D01*
X0239729Y0411456D02*
X0250021Y0411456D01*
X0250021Y0411505D02*
X0239668Y0411505D01*
X0239607Y0411553D02*
X0250021Y0411553D01*
X0250021Y0411602D02*
X0239546Y0411602D01*
X0239484Y0411650D02*
X0250021Y0411650D01*
X0250022Y0411699D02*
X0239423Y0411699D01*
X0239373Y0411747D02*
X0250022Y0411747D01*
X0250022Y0411796D02*
X0239323Y0411796D01*
X0239274Y0411844D02*
X0250022Y0411844D01*
X0250022Y0411893D02*
X0239234Y0411893D01*
X0239195Y0411941D02*
X0250022Y0411941D01*
X0250022Y0411990D02*
X0239155Y0411990D01*
X0239116Y0412038D02*
X0240562Y0412038D01*
X0240562Y0412087D02*
X0239077Y0412087D01*
X0239037Y0412135D02*
X0240562Y0412135D01*
X0240562Y0412184D02*
X0239002Y0412184D01*
X0238976Y0412232D02*
X0240562Y0412232D01*
X0240562Y0412281D02*
X0238949Y0412281D01*
X0238923Y0412329D02*
X0240562Y0412329D01*
X0240562Y0412378D02*
X0238897Y0412378D01*
X0238870Y0412426D02*
X0240562Y0412426D01*
X0240562Y0412475D02*
X0238844Y0412475D01*
X0238818Y0412523D02*
X0240562Y0412523D01*
X0240562Y0412572D02*
X0238797Y0412572D01*
X0238779Y0412621D02*
X0240562Y0412621D01*
X0240562Y0412669D02*
X0238761Y0412669D01*
X0238744Y0412718D02*
X0240562Y0412718D01*
X0240562Y0412766D02*
X0238728Y0412766D01*
X0238713Y0412815D02*
X0240562Y0412815D01*
X0240844Y0412863D02*
X0238698Y0412863D01*
X0238682Y0412912D02*
X0240958Y0412912D01*
X0241044Y0412960D02*
X0238670Y0412960D01*
X0238658Y0413009D02*
X0241093Y0413009D01*
X0241132Y0413057D02*
X0238646Y0413057D01*
X0238634Y0413106D02*
X0241172Y0413106D01*
X0241201Y0413154D02*
X0238626Y0413154D01*
X0238621Y0413203D02*
X0241220Y0413203D01*
X0241240Y0413251D02*
X0238616Y0413251D01*
X0238611Y0413300D02*
X0241259Y0413300D01*
X0241271Y0413348D02*
X0238606Y0413348D01*
X0238601Y0413397D02*
X0241278Y0413397D01*
X0241285Y0413445D02*
X0238596Y0413445D01*
X0238592Y0413494D02*
X0241292Y0413494D01*
X0241295Y0413542D02*
X0238587Y0413542D01*
X0238590Y0413591D02*
X0241289Y0413591D01*
X0241284Y0413639D02*
X0238594Y0413639D01*
X0238598Y0413688D02*
X0241278Y0413688D01*
X0241271Y0413736D02*
X0238602Y0413736D01*
X0238606Y0413785D02*
X0241255Y0413785D01*
X0241239Y0413833D02*
X0238610Y0413833D01*
X0238615Y0413882D02*
X0241224Y0413882D01*
X0241206Y0413930D02*
X0238619Y0413930D01*
X0238624Y0413979D02*
X0241173Y0413979D01*
X0241140Y0414027D02*
X0238633Y0414027D01*
X0238641Y0414076D02*
X0241107Y0414076D01*
X0241052Y0414124D02*
X0238650Y0414124D01*
X0238659Y0414173D02*
X0240982Y0414173D01*
X0240885Y0414221D02*
X0238674Y0414221D01*
X0238689Y0414270D02*
X0240562Y0414270D01*
X0240562Y0414318D02*
X0238704Y0414318D01*
X0238719Y0414367D02*
X0240562Y0414367D01*
X0240562Y0414415D02*
X0238734Y0414415D01*
X0238749Y0414464D02*
X0240562Y0414464D01*
X0240562Y0414512D02*
X0238764Y0414512D01*
X0238779Y0414561D02*
X0240562Y0414561D01*
X0240562Y0414609D02*
X0238805Y0414609D01*
X0238831Y0414658D02*
X0240562Y0414658D01*
X0240562Y0414707D02*
X0238857Y0414707D01*
X0238883Y0414755D02*
X0240562Y0414755D01*
X0240562Y0414804D02*
X0238909Y0414804D01*
X0238935Y0414852D02*
X0240562Y0414852D01*
X0240562Y0414901D02*
X0238961Y0414901D01*
X0238990Y0414949D02*
X0240561Y0414949D01*
X0240561Y0414998D02*
X0239024Y0414998D01*
X0239058Y0415046D02*
X0240560Y0415046D01*
X0240822Y0415046D02*
X0251743Y0415046D01*
X0251510Y0414998D02*
X0250985Y0414998D01*
X0250987Y0414949D02*
X0251383Y0414949D01*
X0251289Y0414901D02*
X0250989Y0414901D01*
X0250989Y0414852D02*
X0251214Y0414852D01*
X0251154Y0414804D02*
X0250989Y0414804D01*
X0250989Y0414755D02*
X0251095Y0414755D01*
X0251031Y0414707D02*
X0250989Y0414707D01*
X0251371Y0414221D02*
X0251826Y0414221D01*
X0251780Y0414242D02*
X0251964Y0414159D01*
X0252110Y0414019D01*
X0252210Y0413839D01*
X0252242Y0413635D01*
X0252239Y0413432D01*
X0252203Y0413230D01*
X0252103Y0413050D01*
X0251952Y0412914D01*
X0251766Y0412836D01*
X0251564Y0412818D01*
X0251362Y0412860D01*
X0251198Y0412984D01*
X0251084Y0413153D01*
X0251019Y0413345D01*
X0250990Y0413549D01*
X0251021Y0413752D01*
X0251091Y0413943D01*
X0251209Y0414107D01*
X0251377Y0414225D01*
X0251578Y0414267D01*
X0251780Y0414242D01*
X0251933Y0414173D02*
X0251302Y0414173D01*
X0251233Y0414124D02*
X0252000Y0414124D01*
X0252050Y0414076D02*
X0251186Y0414076D01*
X0251152Y0414027D02*
X0252101Y0414027D01*
X0252132Y0413979D02*
X0251117Y0413979D01*
X0251086Y0413930D02*
X0252159Y0413930D01*
X0252186Y0413882D02*
X0251069Y0413882D01*
X0251051Y0413833D02*
X0252211Y0413833D01*
X0252219Y0413785D02*
X0251033Y0413785D01*
X0251018Y0413736D02*
X0252226Y0413736D01*
X0252234Y0413688D02*
X0251011Y0413688D01*
X0251004Y0413639D02*
X0252241Y0413639D01*
X0252241Y0413591D02*
X0250996Y0413591D01*
X0250991Y0413542D02*
X0252241Y0413542D01*
X0252240Y0413494D02*
X0250998Y0413494D01*
X0251005Y0413445D02*
X0252240Y0413445D01*
X0252233Y0413397D02*
X0251011Y0413397D01*
X0251018Y0413348D02*
X0252225Y0413348D01*
X0252216Y0413300D02*
X0251034Y0413300D01*
X0251051Y0413251D02*
X0252207Y0413251D01*
X0252188Y0413203D02*
X0251067Y0413203D01*
X0251084Y0413154D02*
X0252161Y0413154D01*
X0252134Y0413106D02*
X0251116Y0413106D01*
X0251149Y0413057D02*
X0252107Y0413057D01*
X0252057Y0413009D02*
X0251181Y0413009D01*
X0251230Y0412960D02*
X0252003Y0412960D01*
X0251947Y0412912D02*
X0251294Y0412912D01*
X0251358Y0412863D02*
X0251830Y0412863D01*
X0251557Y0412087D02*
X0250989Y0412087D01*
X0250989Y0412135D02*
X0251410Y0412135D01*
X0251309Y0412184D02*
X0250989Y0412184D01*
X0250989Y0412232D02*
X0251234Y0412232D01*
X0251171Y0412281D02*
X0250989Y0412281D01*
X0250989Y0412329D02*
X0251109Y0412329D01*
X0251057Y0412378D02*
X0250989Y0412378D01*
X0250989Y0412426D02*
X0251006Y0412426D01*
X0250989Y0412038D02*
X0253800Y0412038D01*
X0253838Y0412087D02*
X0252175Y0412087D01*
X0252346Y0412135D02*
X0253871Y0412135D01*
X0253904Y0412184D02*
X0252473Y0412184D01*
X0252560Y0412232D02*
X0253937Y0412232D01*
X0253964Y0412281D02*
X0252645Y0412281D01*
X0252705Y0412329D02*
X0253989Y0412329D01*
X0254015Y0412378D02*
X0252759Y0412378D01*
X0252813Y0412426D02*
X0254041Y0412426D01*
X0254066Y0412475D02*
X0252853Y0412475D01*
X0252892Y0412523D02*
X0254092Y0412523D01*
X0254118Y0412572D02*
X0252932Y0412572D01*
X0252964Y0412621D02*
X0254141Y0412621D01*
X0254156Y0412669D02*
X0252993Y0412669D01*
X0253022Y0412718D02*
X0254171Y0412718D01*
X0254186Y0412766D02*
X0253051Y0412766D01*
X0253073Y0412815D02*
X0254201Y0412815D01*
X0254216Y0412863D02*
X0253094Y0412863D01*
X0253115Y0412912D02*
X0254231Y0412912D01*
X0254246Y0412960D02*
X0253136Y0412960D01*
X0253148Y0413009D02*
X0254261Y0413009D01*
X0254269Y0413057D02*
X0253160Y0413057D01*
X0253172Y0413106D02*
X0254277Y0413106D01*
X0254284Y0413154D02*
X0253184Y0413154D01*
X0253192Y0413203D02*
X0254292Y0413203D01*
X0254298Y0413251D02*
X0253198Y0413251D01*
X0253205Y0413300D02*
X0254303Y0413300D01*
X0254307Y0413348D02*
X0253212Y0413348D01*
X0253217Y0413397D02*
X0254312Y0413397D01*
X0254316Y0413445D02*
X0253220Y0413445D01*
X0253224Y0413494D02*
X0254319Y0413494D01*
X0254321Y0413542D02*
X0253227Y0413542D01*
X0253228Y0413591D02*
X0254324Y0413591D01*
X0254325Y0413639D02*
X0253225Y0413639D01*
X0253221Y0413688D02*
X0254320Y0413688D01*
X0254315Y0413736D02*
X0253217Y0413736D01*
X0253213Y0413785D02*
X0254310Y0413785D01*
X0254305Y0413833D02*
X0253206Y0413833D01*
X0253198Y0413882D02*
X0254300Y0413882D01*
X0254296Y0413930D02*
X0253190Y0413930D01*
X0253182Y0413979D02*
X0254291Y0413979D01*
X0254286Y0414027D02*
X0253171Y0414027D01*
X0253158Y0414076D02*
X0254276Y0414076D01*
X0254263Y0414124D02*
X0253145Y0414124D01*
X0253133Y0414173D02*
X0254251Y0414173D01*
X0254238Y0414221D02*
X0253114Y0414221D01*
X0253092Y0414270D02*
X0254225Y0414270D01*
X0254209Y0414318D02*
X0253070Y0414318D01*
X0253048Y0414367D02*
X0254194Y0414367D01*
X0254179Y0414415D02*
X0253019Y0414415D01*
X0252988Y0414464D02*
X0254163Y0414464D01*
X0254144Y0414512D02*
X0252956Y0414512D01*
X0252923Y0414561D02*
X0254125Y0414561D01*
X0254107Y0414609D02*
X0252881Y0414609D01*
X0252838Y0414658D02*
X0254084Y0414658D01*
X0254058Y0414707D02*
X0252795Y0414707D01*
X0252737Y0414755D02*
X0254032Y0414755D01*
X0254005Y0414804D02*
X0252678Y0414804D01*
X0252613Y0414852D02*
X0253979Y0414852D01*
X0253953Y0414901D02*
X0252526Y0414901D01*
X0252432Y0414949D02*
X0253926Y0414949D01*
X0253900Y0414998D02*
X0252281Y0414998D01*
X0251999Y0415046D02*
X0253862Y0415046D01*
X0253822Y0415095D02*
X0239092Y0415095D01*
X0239131Y0415143D02*
X0253782Y0415143D01*
X0253742Y0415192D02*
X0239171Y0415192D01*
X0239211Y0415240D02*
X0253702Y0415240D01*
X0253663Y0415289D02*
X0239253Y0415289D01*
X0239297Y0415337D02*
X0253620Y0415337D01*
X0253569Y0415386D02*
X0239341Y0415386D01*
X0239390Y0415434D02*
X0253518Y0415434D01*
X0253465Y0415483D02*
X0239449Y0415483D01*
X0239508Y0415531D02*
X0253406Y0415531D01*
X0253347Y0415580D02*
X0239566Y0415580D01*
X0239625Y0415628D02*
X0253285Y0415628D01*
X0253219Y0415677D02*
X0239684Y0415677D01*
X0239768Y0415725D02*
X0253153Y0415725D01*
X0253064Y0415774D02*
X0239855Y0415774D01*
X0239942Y0415822D02*
X0252974Y0415822D01*
X0252885Y0415871D02*
X0240029Y0415871D01*
X0240137Y0415919D02*
X0252795Y0415919D01*
X0252650Y0415968D02*
X0240257Y0415968D01*
X0240420Y0416016D02*
X0252498Y0416016D01*
X0252320Y0416065D02*
X0240583Y0416065D01*
X0240942Y0416113D02*
X0251968Y0416113D01*
X0250030Y0414998D02*
X0249846Y0414998D01*
X0249828Y0414949D02*
X0250030Y0414949D01*
X0250028Y0414901D02*
X0249816Y0414901D01*
X0249798Y0414852D02*
X0250028Y0414852D01*
X0250028Y0414804D02*
X0249780Y0414804D01*
X0249763Y0414755D02*
X0250028Y0414755D01*
X0250028Y0414707D02*
X0249745Y0414707D01*
X0249727Y0414658D02*
X0250028Y0414658D01*
X0250028Y0414609D02*
X0249710Y0414609D01*
X0249692Y0414561D02*
X0250028Y0414561D01*
X0250027Y0414512D02*
X0249674Y0414512D01*
X0249657Y0414464D02*
X0250027Y0414464D01*
X0250027Y0414415D02*
X0249639Y0414415D01*
X0249622Y0414367D02*
X0250027Y0414367D01*
X0250027Y0414318D02*
X0249604Y0414318D01*
X0249586Y0414270D02*
X0250027Y0414270D01*
X0250027Y0414221D02*
X0249569Y0414221D01*
X0249551Y0414173D02*
X0250027Y0414173D01*
X0250027Y0414124D02*
X0249533Y0414124D01*
X0249516Y0414076D02*
X0250027Y0414076D01*
X0250026Y0414027D02*
X0249498Y0414027D01*
X0249480Y0413979D02*
X0250026Y0413979D01*
X0250026Y0413930D02*
X0249463Y0413930D01*
X0249445Y0413882D02*
X0250026Y0413882D01*
X0250026Y0413833D02*
X0249427Y0413833D01*
X0249410Y0413785D02*
X0250026Y0413785D01*
X0250026Y0413736D02*
X0249392Y0413736D01*
X0249375Y0413688D02*
X0250026Y0413688D01*
X0250026Y0413639D02*
X0249357Y0413639D01*
X0249339Y0413591D02*
X0250025Y0413591D01*
X0250025Y0413542D02*
X0249322Y0413542D01*
X0249304Y0413494D02*
X0250025Y0413494D01*
X0250025Y0413445D02*
X0249286Y0413445D01*
X0249269Y0413397D02*
X0250025Y0413397D01*
X0250025Y0413348D02*
X0249251Y0413348D01*
X0249233Y0413300D02*
X0250025Y0413300D01*
X0250025Y0413251D02*
X0249216Y0413251D01*
X0249198Y0413203D02*
X0250025Y0413203D01*
X0250025Y0413154D02*
X0249181Y0413154D01*
X0249163Y0413106D02*
X0250024Y0413106D01*
X0250024Y0413057D02*
X0249145Y0413057D01*
X0249128Y0413009D02*
X0250024Y0413009D01*
X0250024Y0412960D02*
X0249110Y0412960D01*
X0249092Y0412912D02*
X0250024Y0412912D01*
X0250024Y0412863D02*
X0249075Y0412863D01*
X0249057Y0412815D02*
X0250024Y0412815D01*
X0250024Y0412766D02*
X0249039Y0412766D01*
X0249022Y0412718D02*
X0250024Y0412718D01*
X0250024Y0412669D02*
X0249004Y0412669D01*
X0248986Y0412621D02*
X0250023Y0412621D01*
X0250023Y0412572D02*
X0248969Y0412572D01*
X0248951Y0412523D02*
X0250023Y0412523D01*
X0250023Y0412475D02*
X0248934Y0412475D01*
X0248916Y0412426D02*
X0250023Y0412426D01*
X0250023Y0412378D02*
X0248898Y0412378D01*
X0248881Y0412329D02*
X0250023Y0412329D01*
X0250023Y0412281D02*
X0248863Y0412281D01*
X0248845Y0412232D02*
X0250023Y0412232D01*
X0250023Y0412184D02*
X0248828Y0412184D01*
X0248810Y0412135D02*
X0250022Y0412135D01*
X0250022Y0412087D02*
X0248792Y0412087D01*
X0247924Y0412087D02*
X0246600Y0412087D01*
X0246729Y0412135D02*
X0247823Y0412135D01*
X0247808Y0412184D02*
X0246744Y0412184D01*
X0246759Y0412232D02*
X0247793Y0412232D01*
X0247778Y0412281D02*
X0246774Y0412281D01*
X0246789Y0412329D02*
X0247763Y0412329D01*
X0247747Y0412378D02*
X0246804Y0412378D01*
X0246819Y0412426D02*
X0247732Y0412426D01*
X0247717Y0412475D02*
X0246834Y0412475D01*
X0246849Y0412523D02*
X0247702Y0412523D01*
X0247687Y0412572D02*
X0246864Y0412572D01*
X0246879Y0412621D02*
X0247672Y0412621D01*
X0247657Y0412669D02*
X0246894Y0412669D01*
X0246909Y0412718D02*
X0247642Y0412718D01*
X0247626Y0412766D02*
X0246923Y0412766D01*
X0246938Y0412815D02*
X0247611Y0412815D01*
X0247596Y0412863D02*
X0246953Y0412863D01*
X0246968Y0412912D02*
X0247581Y0412912D01*
X0247566Y0412960D02*
X0246983Y0412960D01*
X0246998Y0413009D02*
X0247551Y0413009D01*
X0247536Y0413057D02*
X0247013Y0413057D01*
X0247028Y0413106D02*
X0247521Y0413106D01*
X0247505Y0413154D02*
X0247043Y0413154D01*
X0247058Y0413203D02*
X0247490Y0413203D01*
X0247475Y0413251D02*
X0247073Y0413251D01*
X0247088Y0413300D02*
X0247460Y0413300D01*
X0247445Y0413348D02*
X0247103Y0413348D01*
X0247118Y0413397D02*
X0247430Y0413397D01*
X0247415Y0413445D02*
X0247133Y0413445D01*
X0247148Y0413494D02*
X0247400Y0413494D01*
X0247384Y0413542D02*
X0247163Y0413542D01*
X0247178Y0413591D02*
X0247369Y0413591D01*
X0247354Y0413639D02*
X0247193Y0413639D01*
X0247208Y0413688D02*
X0247339Y0413688D01*
X0247323Y0413736D02*
X0247223Y0413736D01*
X0247238Y0413785D02*
X0247305Y0413785D01*
X0247288Y0413833D02*
X0247253Y0413833D01*
X0247268Y0413882D02*
X0247270Y0413882D01*
X0248001Y0414076D02*
X0248603Y0414076D01*
X0248617Y0414124D02*
X0247987Y0414124D01*
X0247973Y0414173D02*
X0248632Y0414173D01*
X0248646Y0414221D02*
X0247960Y0414221D01*
X0247946Y0414270D02*
X0248660Y0414270D01*
X0248675Y0414318D02*
X0247932Y0414318D01*
X0247919Y0414367D02*
X0248689Y0414367D01*
X0248703Y0414415D02*
X0247905Y0414415D01*
X0247891Y0414464D02*
X0248718Y0414464D01*
X0248732Y0414512D02*
X0247878Y0414512D01*
X0247864Y0414561D02*
X0248746Y0414561D01*
X0248761Y0414609D02*
X0247850Y0414609D01*
X0247836Y0414658D02*
X0248775Y0414658D01*
X0248789Y0414707D02*
X0247823Y0414707D01*
X0247809Y0414755D02*
X0248803Y0414755D01*
X0248818Y0414804D02*
X0247795Y0414804D01*
X0247782Y0414852D02*
X0248832Y0414852D01*
X0248846Y0414901D02*
X0247768Y0414901D01*
X0247754Y0414949D02*
X0248861Y0414949D01*
X0248875Y0414998D02*
X0247740Y0414998D01*
X0246787Y0414998D02*
X0245632Y0414998D01*
X0245647Y0414949D02*
X0246773Y0414949D01*
X0246759Y0414901D02*
X0245662Y0414901D01*
X0245676Y0414852D02*
X0246745Y0414852D01*
X0246730Y0414804D02*
X0245691Y0414804D01*
X0245706Y0414755D02*
X0246716Y0414755D01*
X0246702Y0414707D02*
X0245720Y0414707D01*
X0245735Y0414658D02*
X0246688Y0414658D01*
X0246674Y0414609D02*
X0245750Y0414609D01*
X0245764Y0414561D02*
X0246659Y0414561D01*
X0246645Y0414512D02*
X0245779Y0414512D01*
X0245794Y0414464D02*
X0246631Y0414464D01*
X0246617Y0414415D02*
X0245808Y0414415D01*
X0245823Y0414367D02*
X0246603Y0414367D01*
X0246588Y0414318D02*
X0245838Y0414318D01*
X0245852Y0414270D02*
X0246574Y0414270D01*
X0246560Y0414221D02*
X0245867Y0414221D01*
X0245882Y0414173D02*
X0246546Y0414173D01*
X0246531Y0414124D02*
X0245897Y0414124D01*
X0245911Y0414076D02*
X0246517Y0414076D01*
X0246503Y0414027D02*
X0245926Y0414027D01*
X0245941Y0413979D02*
X0246489Y0413979D01*
X0246475Y0413930D02*
X0245955Y0413930D01*
X0245970Y0413882D02*
X0246460Y0413882D01*
X0246446Y0413833D02*
X0245985Y0413833D01*
X0245999Y0413785D02*
X0246432Y0413785D01*
X0246418Y0413736D02*
X0246014Y0413736D01*
X0246029Y0413688D02*
X0246404Y0413688D01*
X0246389Y0413639D02*
X0246043Y0413639D01*
X0246058Y0413591D02*
X0246375Y0413591D01*
X0246361Y0413542D02*
X0246073Y0413542D01*
X0246088Y0413494D02*
X0246347Y0413494D01*
X0246332Y0413445D02*
X0246102Y0413445D01*
X0246117Y0413397D02*
X0246318Y0413397D01*
X0246304Y0413348D02*
X0246132Y0413348D01*
X0246146Y0413300D02*
X0246290Y0413300D01*
X0246276Y0413251D02*
X0246161Y0413251D01*
X0246176Y0413203D02*
X0246261Y0413203D01*
X0246248Y0413154D02*
X0246190Y0413154D01*
X0246205Y0413106D02*
X0246235Y0413106D01*
X0246221Y0413057D02*
X0246220Y0413057D01*
X0245479Y0412815D02*
X0244569Y0412815D01*
X0244569Y0412863D02*
X0245461Y0412863D01*
X0245443Y0412912D02*
X0244569Y0412912D01*
X0244569Y0412960D02*
X0245426Y0412960D01*
X0245408Y0413009D02*
X0244569Y0413009D01*
X0244569Y0413057D02*
X0245391Y0413057D01*
X0245373Y0413106D02*
X0244569Y0413106D01*
X0244569Y0413154D02*
X0245356Y0413154D01*
X0245338Y0413203D02*
X0244569Y0413203D01*
X0244569Y0413251D02*
X0245321Y0413251D01*
X0245303Y0413300D02*
X0244569Y0413300D01*
X0244569Y0413348D02*
X0245286Y0413348D01*
X0245268Y0413397D02*
X0244569Y0413397D01*
X0244569Y0413445D02*
X0245250Y0413445D01*
X0245233Y0413494D02*
X0244569Y0413494D01*
X0244569Y0413542D02*
X0245215Y0413542D01*
X0245198Y0413591D02*
X0244569Y0413591D01*
X0244569Y0413639D02*
X0245180Y0413639D01*
X0245163Y0413688D02*
X0244569Y0413688D01*
X0244569Y0413736D02*
X0245145Y0413736D01*
X0245128Y0413785D02*
X0244569Y0413785D01*
X0244569Y0413833D02*
X0245110Y0413833D01*
X0245093Y0413882D02*
X0244569Y0413882D01*
X0244569Y0413930D02*
X0245075Y0413930D01*
X0245057Y0413979D02*
X0244569Y0413979D01*
X0244569Y0414027D02*
X0245040Y0414027D01*
X0245022Y0414076D02*
X0244569Y0414076D01*
X0244569Y0414124D02*
X0245005Y0414124D01*
X0244987Y0414173D02*
X0244569Y0414173D01*
X0244569Y0414221D02*
X0244970Y0414221D01*
X0244952Y0414270D02*
X0244569Y0414270D01*
X0244569Y0414318D02*
X0244935Y0414318D01*
X0244917Y0414367D02*
X0244569Y0414367D01*
X0244569Y0414415D02*
X0244900Y0414415D01*
X0244882Y0414464D02*
X0244569Y0414464D01*
X0244569Y0414512D02*
X0244864Y0414512D01*
X0244847Y0414561D02*
X0244569Y0414561D01*
X0244569Y0414609D02*
X0244829Y0414609D01*
X0244812Y0414658D02*
X0244569Y0414658D01*
X0244569Y0414707D02*
X0244794Y0414707D01*
X0244777Y0414755D02*
X0244569Y0414755D01*
X0244569Y0414804D02*
X0244759Y0414804D01*
X0244742Y0414852D02*
X0244569Y0414852D01*
X0244569Y0414901D02*
X0244724Y0414901D01*
X0244708Y0414949D02*
X0244569Y0414949D01*
X0244569Y0414998D02*
X0244691Y0414998D01*
X0243610Y0414949D02*
X0243432Y0414949D01*
X0243407Y0414949D02*
X0243407Y0414949D01*
X0243407Y0414901D02*
X0243610Y0414901D01*
X0243610Y0414852D02*
X0243407Y0414852D01*
X0243407Y0414804D02*
X0243610Y0414804D01*
X0243610Y0414755D02*
X0243407Y0414755D01*
X0243407Y0414707D02*
X0243610Y0414707D01*
X0243610Y0414658D02*
X0243407Y0414658D01*
X0243407Y0414609D02*
X0243610Y0414609D01*
X0243610Y0414561D02*
X0243407Y0414561D01*
X0243407Y0414512D02*
X0243610Y0414512D01*
X0243610Y0414464D02*
X0243408Y0414464D01*
X0243408Y0414415D02*
X0243610Y0414415D01*
X0243610Y0414367D02*
X0243408Y0414367D01*
X0243408Y0414318D02*
X0243610Y0414318D01*
X0243609Y0414270D02*
X0243408Y0414270D01*
X0243408Y0414221D02*
X0243609Y0414221D01*
X0243609Y0414173D02*
X0243408Y0414173D01*
X0243408Y0414124D02*
X0243609Y0414124D01*
X0243609Y0414076D02*
X0243408Y0414076D01*
X0243408Y0414027D02*
X0243609Y0414027D01*
X0243609Y0413979D02*
X0243408Y0413979D01*
X0243408Y0413930D02*
X0243609Y0413930D01*
X0243609Y0413882D02*
X0243408Y0413882D01*
X0243408Y0413833D02*
X0243609Y0413833D01*
X0243609Y0413785D02*
X0243408Y0413785D01*
X0243409Y0413736D02*
X0243609Y0413736D01*
X0243609Y0413688D02*
X0243409Y0413688D01*
X0243409Y0413639D02*
X0243609Y0413639D01*
X0243609Y0413591D02*
X0243409Y0413591D01*
X0243409Y0413542D02*
X0243608Y0413542D01*
X0243608Y0413494D02*
X0243409Y0413494D01*
X0243409Y0413445D02*
X0243608Y0413445D01*
X0243608Y0413397D02*
X0243409Y0413397D01*
X0243409Y0413348D02*
X0243608Y0413348D01*
X0243608Y0413300D02*
X0243409Y0413300D01*
X0243409Y0413251D02*
X0243608Y0413251D01*
X0243608Y0413203D02*
X0243409Y0413203D01*
X0243409Y0413154D02*
X0243608Y0413154D01*
X0243608Y0413106D02*
X0243409Y0413106D01*
X0243409Y0413057D02*
X0243608Y0413057D01*
X0243608Y0413009D02*
X0243410Y0413009D01*
X0243410Y0412960D02*
X0243608Y0412960D01*
X0243608Y0412912D02*
X0243410Y0412912D01*
X0243410Y0412863D02*
X0243608Y0412863D01*
X0243608Y0412815D02*
X0243410Y0412815D01*
X0243410Y0412766D02*
X0243607Y0412766D01*
X0243607Y0412718D02*
X0243410Y0412718D01*
X0243410Y0412669D02*
X0243607Y0412669D01*
X0243607Y0412621D02*
X0243410Y0412621D01*
X0243410Y0412572D02*
X0243607Y0412572D01*
X0243607Y0412523D02*
X0243410Y0412523D01*
X0243410Y0412475D02*
X0243607Y0412475D01*
X0243607Y0412426D02*
X0243410Y0412426D01*
X0243410Y0412378D02*
X0243607Y0412378D01*
X0243607Y0412329D02*
X0243410Y0412329D01*
X0243411Y0412281D02*
X0243607Y0412281D01*
X0243607Y0412232D02*
X0243411Y0412232D01*
X0243411Y0412184D02*
X0243607Y0412184D01*
X0243607Y0412135D02*
X0243411Y0412135D01*
X0243390Y0412087D02*
X0243607Y0412087D01*
X0244438Y0412087D02*
X0245742Y0412087D01*
X0245724Y0412135D02*
X0244569Y0412135D01*
X0244569Y0412184D02*
X0245707Y0412184D01*
X0245689Y0412232D02*
X0244569Y0412232D01*
X0244569Y0412281D02*
X0245672Y0412281D01*
X0245654Y0412329D02*
X0244569Y0412329D01*
X0244569Y0412378D02*
X0245637Y0412378D01*
X0245619Y0412426D02*
X0244569Y0412426D01*
X0244569Y0412475D02*
X0245601Y0412475D01*
X0245584Y0412523D02*
X0244569Y0412523D01*
X0244569Y0412572D02*
X0245566Y0412572D01*
X0245549Y0412621D02*
X0244569Y0412621D01*
X0244569Y0412669D02*
X0245531Y0412669D01*
X0245514Y0412718D02*
X0244569Y0412718D01*
X0244569Y0412766D02*
X0245496Y0412766D01*
X0248152Y0413542D02*
X0248446Y0413542D01*
X0248431Y0413494D02*
X0248165Y0413494D01*
X0248179Y0413445D02*
X0248417Y0413445D01*
X0248403Y0413397D02*
X0248193Y0413397D01*
X0248207Y0413348D02*
X0248388Y0413348D01*
X0248374Y0413300D02*
X0248220Y0413300D01*
X0248234Y0413251D02*
X0248360Y0413251D01*
X0248345Y0413203D02*
X0248248Y0413203D01*
X0248261Y0413154D02*
X0248331Y0413154D01*
X0248460Y0413591D02*
X0248138Y0413591D01*
X0248124Y0413639D02*
X0248474Y0413639D01*
X0248489Y0413688D02*
X0248111Y0413688D01*
X0248097Y0413736D02*
X0248503Y0413736D01*
X0248517Y0413785D02*
X0248083Y0413785D01*
X0248069Y0413833D02*
X0248532Y0413833D01*
X0248546Y0413882D02*
X0248056Y0413882D01*
X0248042Y0413930D02*
X0248560Y0413930D01*
X0248574Y0413979D02*
X0248028Y0413979D01*
X0248015Y0414027D02*
X0248589Y0414027D01*
X0250022Y0412038D02*
X0240612Y0412038D01*
X0240976Y0412087D02*
X0242448Y0412087D01*
X0242448Y0412135D02*
X0241257Y0412135D01*
X0241398Y0412184D02*
X0242448Y0412184D01*
X0242448Y0412232D02*
X0241500Y0412232D01*
X0241577Y0412281D02*
X0242448Y0412281D01*
X0242448Y0412329D02*
X0241654Y0412329D01*
X0241731Y0412378D02*
X0242448Y0412378D01*
X0242448Y0412426D02*
X0241807Y0412426D01*
X0241867Y0412475D02*
X0242448Y0412475D01*
X0242448Y0412523D02*
X0241899Y0412523D01*
X0241931Y0412572D02*
X0242448Y0412572D01*
X0242448Y0412621D02*
X0241963Y0412621D01*
X0241995Y0412669D02*
X0242448Y0412669D01*
X0242448Y0412718D02*
X0242027Y0412718D01*
X0242059Y0412766D02*
X0242448Y0412766D01*
X0242448Y0412815D02*
X0242089Y0412815D01*
X0242113Y0412863D02*
X0242448Y0412863D01*
X0242448Y0412912D02*
X0242138Y0412912D01*
X0242162Y0412960D02*
X0242448Y0412960D01*
X0242448Y0413009D02*
X0242179Y0413009D01*
X0242188Y0413057D02*
X0242448Y0413057D01*
X0242448Y0413106D02*
X0242197Y0413106D01*
X0242205Y0413154D02*
X0242448Y0413154D01*
X0242448Y0413203D02*
X0242214Y0413203D01*
X0242222Y0413251D02*
X0242448Y0413251D01*
X0242448Y0413300D02*
X0242231Y0413300D01*
X0242240Y0413348D02*
X0242448Y0413348D01*
X0242448Y0413397D02*
X0242248Y0413397D01*
X0242252Y0413445D02*
X0242448Y0413445D01*
X0242448Y0413494D02*
X0242255Y0413494D01*
X0242258Y0413542D02*
X0242448Y0413542D01*
X0242448Y0413591D02*
X0242262Y0413591D01*
X0242256Y0413639D02*
X0242448Y0413639D01*
X0242448Y0413688D02*
X0242248Y0413688D01*
X0242239Y0413736D02*
X0242448Y0413736D01*
X0242448Y0413785D02*
X0242231Y0413785D01*
X0242222Y0413833D02*
X0242448Y0413833D01*
X0242448Y0413882D02*
X0242214Y0413882D01*
X0242205Y0413930D02*
X0242448Y0413930D01*
X0242448Y0413979D02*
X0242197Y0413979D01*
X0242187Y0414027D02*
X0242448Y0414027D01*
X0242448Y0414076D02*
X0242173Y0414076D01*
X0242159Y0414124D02*
X0242448Y0414124D01*
X0242448Y0414173D02*
X0242144Y0414173D01*
X0242127Y0414221D02*
X0242448Y0414221D01*
X0242448Y0414270D02*
X0242093Y0414270D01*
X0242060Y0414318D02*
X0242448Y0414318D01*
X0242448Y0414367D02*
X0242027Y0414367D01*
X0241994Y0414415D02*
X0242448Y0414415D01*
X0242448Y0414464D02*
X0241961Y0414464D01*
X0241928Y0414512D02*
X0242448Y0414512D01*
X0242448Y0414561D02*
X0241895Y0414561D01*
X0241898Y0414609D02*
X0241857Y0414609D01*
X0241909Y0414609D02*
X0242448Y0414609D01*
X0242448Y0414658D02*
X0242002Y0414658D01*
X0241995Y0414658D02*
X0241807Y0414658D01*
X0241754Y0414707D02*
X0242092Y0414707D01*
X0242096Y0414707D02*
X0242448Y0414707D01*
X0242448Y0414755D02*
X0242189Y0414755D01*
X0241679Y0414755D01*
X0241603Y0414804D02*
X0242283Y0414804D01*
X0242287Y0414804D02*
X0242448Y0414804D01*
X0242448Y0414852D02*
X0242384Y0414852D01*
X0242376Y0414852D02*
X0241527Y0414852D01*
X0241451Y0414901D02*
X0242445Y0414901D01*
X0242445Y0414949D02*
X0241325Y0414949D01*
X0241100Y0414998D02*
X0242445Y0414998D01*
X0243408Y0414998D02*
X0243609Y0414998D01*
X0250989Y0411990D02*
X0253758Y0411990D01*
X0253717Y0411941D02*
X0250989Y0411941D01*
X0250989Y0411893D02*
X0253676Y0411893D01*
X0253634Y0411844D02*
X0250989Y0411844D01*
X0250989Y0411796D02*
X0253593Y0411796D01*
X0253550Y0411747D02*
X0250989Y0411747D01*
X0250989Y0411699D02*
X0253491Y0411699D01*
X0253432Y0411650D02*
X0250989Y0411650D01*
X0250989Y0411602D02*
X0253373Y0411602D01*
X0253314Y0411553D02*
X0250989Y0411553D01*
X0250989Y0411505D02*
X0253256Y0411505D01*
X0253180Y0411456D02*
X0250989Y0411456D01*
X0250989Y0411408D02*
X0253094Y0411408D01*
X0253008Y0411359D02*
X0250989Y0411359D01*
X0250989Y0411311D02*
X0252922Y0411311D01*
X0252826Y0411262D02*
X0250989Y0411262D01*
X0250989Y0411214D02*
X0252713Y0411214D01*
X0252568Y0411165D02*
X0250989Y0411165D01*
X0250991Y0411117D02*
X0252409Y0411117D01*
X0252183Y0411068D02*
X0250992Y0411068D01*
M02*
