G75*
%MOIN*%
%OFA0B0*%
%FSLAX25Y25*%
%IPPOS*%
%LPD*%
%AMOC8*
5,1,8,0,0,1.08239X$1,22.5*
%
%ADD10R,0.01181X0.05512*%
%ADD11R,0.04921X0.09055*%
%ADD12R,0.05512X0.06299*%
D10*
X0298797Y0047957D03*
X0300766Y0047957D03*
X0302734Y0047957D03*
X0304703Y0047957D03*
X0306671Y0047957D03*
X0308640Y0047957D03*
X0310608Y0047957D03*
X0312577Y0047957D03*
X0314545Y0047957D03*
X0316514Y0047957D03*
X0318482Y0047957D03*
X0320451Y0047957D03*
X0322419Y0047957D03*
X0324388Y0047957D03*
X0326356Y0047957D03*
X0328325Y0047957D03*
X0330293Y0047957D03*
X0332262Y0047957D03*
X0334230Y0047957D03*
X0336199Y0047957D03*
X0338167Y0047957D03*
X0340136Y0047957D03*
X0342104Y0047957D03*
X0344073Y0047957D03*
X0344073Y0174965D03*
X0342104Y0174965D03*
X0340136Y0174965D03*
X0338167Y0174965D03*
X0336199Y0174965D03*
X0334230Y0174965D03*
X0332262Y0174965D03*
X0330293Y0174965D03*
X0328325Y0174965D03*
X0326356Y0174965D03*
X0324388Y0174965D03*
X0322419Y0174965D03*
X0320451Y0174965D03*
X0318482Y0174965D03*
X0316514Y0174965D03*
X0314545Y0174965D03*
X0312577Y0174965D03*
X0310608Y0174965D03*
X0308640Y0174965D03*
X0306671Y0174965D03*
X0304703Y0174965D03*
X0302734Y0174965D03*
X0300766Y0174965D03*
X0298797Y0174965D03*
X0298797Y0301972D03*
X0300766Y0301972D03*
X0302734Y0301972D03*
X0304703Y0301972D03*
X0306671Y0301972D03*
X0308640Y0301972D03*
X0310608Y0301972D03*
X0312577Y0301972D03*
X0314545Y0301972D03*
X0316514Y0301972D03*
X0318482Y0301972D03*
X0320451Y0301972D03*
X0322419Y0301972D03*
X0324388Y0301972D03*
X0326356Y0301972D03*
X0328325Y0301972D03*
X0330293Y0301972D03*
X0332262Y0301972D03*
X0334230Y0301972D03*
X0336199Y0301972D03*
X0338167Y0301972D03*
X0340136Y0301972D03*
X0342104Y0301972D03*
X0344073Y0301972D03*
X0344073Y0428980D03*
X0342104Y0428980D03*
X0340136Y0428980D03*
X0338167Y0428980D03*
X0336199Y0428980D03*
X0334230Y0428980D03*
X0332262Y0428980D03*
X0330293Y0428980D03*
X0328325Y0428980D03*
X0326356Y0428980D03*
X0324388Y0428980D03*
X0322419Y0428980D03*
X0320451Y0428980D03*
X0318482Y0428980D03*
X0316514Y0428980D03*
X0314545Y0428980D03*
X0312577Y0428980D03*
X0310608Y0428980D03*
X0308640Y0428980D03*
X0306671Y0428980D03*
X0304703Y0428980D03*
X0302734Y0428980D03*
X0300766Y0428980D03*
X0298797Y0428980D03*
D11*
X0294565Y0424059D03*
X0348305Y0424059D03*
X0348305Y0297051D03*
X0294565Y0297051D03*
X0294565Y0170043D03*
X0348305Y0170043D03*
X0348305Y0043035D03*
X0294565Y0043035D03*
D12*
X0289348Y0044413D03*
X0353522Y0044413D03*
X0353522Y0171421D03*
X0289348Y0171421D03*
X0289348Y0298429D03*
X0353522Y0298429D03*
X0353522Y0425437D03*
X0289348Y0425437D03*
M02*
