%
M48
M72
T01C0.0120
T02C0.0200
T03C0.0256
T04C0.0315
T05C0.0400
%
T01
X7588Y3895
X7794Y4851
X8894Y4851
X10494Y4851
X11444Y4851
X11744Y3951
X11744Y3251
X12594Y3201
X12644Y4001
X12669Y4476
X13544Y6351
X13894Y6801
X13544Y7251
X13544Y7801
X13044Y7801
X13044Y8101
X12494Y7851
X12444Y8451
X10744Y8451
X10744Y7851
X10744Y9101
X11094Y10801
X11644Y11101
X11644Y12101
X12894Y12101
X12644Y11101
X13444Y10001
X14344Y9201
X15294Y7251
X16194Y6851
X16594Y6851
X16054Y6161
X14914Y4571
X14344Y6151
X16644Y8101
X16902Y7649
X18644Y6601
X19394Y7601
X20444Y8101
X20844Y8951
X22394Y8601
X22394Y7601
X22394Y6351
X23344Y6751
X24344Y7701
X24344Y9001
X22894Y10601
X22444Y10251
X21944Y11151
X21431Y11439
X21594Y11701
X22094Y12251
X23044Y12101
X22094Y13601
X20994Y12801
X20544Y13601
X19644Y12701
X19644Y12351
X20044Y11601
X20694Y11601
X20794Y10751
X18844Y11601
X18244Y11601
X17644Y11601
X17044Y11601
X16444Y11601
X15844Y11601
X15644Y12701
X15394Y13601
X14894Y14851
X14914Y17272
X14344Y18852
X13894Y19502
X13544Y19952
X13544Y20502
X13044Y20502
X13044Y20802
X12494Y20552
X12444Y21152
X10744Y21152
X10744Y20552
X10744Y21802
X11094Y23502
X11644Y23802
X11644Y24802
X12894Y24802
X12644Y23802
X13444Y22702
X14344Y21902
X15294Y19952
X16194Y19552
X16594Y19552
X16902Y20349
X16644Y20802
X16054Y18862
X17044Y17002
X17644Y17002
X17044Y16352
X17894Y15802
X19644Y14851
X17644Y13101
X17644Y12351
X19544Y17902
X18644Y19302
X17894Y18052
X19394Y20302
X20444Y20802
X20844Y21652
X20794Y23452
X21431Y24139
X21594Y24402
X21944Y23852
X22444Y22952
X22894Y23302
X23044Y24802
X22094Y24952
X22094Y26302
X20994Y25502
X20694Y24302
X20044Y24302
X19644Y25052
X19644Y25402
X18844Y24302
X18244Y24302
X17644Y24302
X17044Y24302
X16444Y24302
X15844Y24302
X15644Y25402
X15394Y26302
X14894Y27552
X14914Y29972
X14344Y31552
X13894Y32202
X13544Y31752
X13544Y32652
X13544Y33202
X13044Y33202
X13044Y33502
X12494Y33252
X12444Y33852
X10744Y33852
X10744Y33252
X10744Y34502
X11094Y36202
X11644Y36502
X12644Y36502
X12894Y37502
X11644Y37502
X12894Y39002
X12594Y41303
X12644Y42103
X12669Y42578
X11744Y42053
X11744Y41353
X10494Y41453
X10394Y40252
X10494Y42953
X11444Y42953
X10494Y44453
X10744Y45953
X10744Y46553
X10744Y47203
X11094Y48903
X11644Y49203
X11644Y50203
X12894Y50203
X12644Y49203
X13444Y48103
X14344Y47303
X13544Y45903
X13044Y45903
X13044Y46203
X12494Y45953
X12444Y46553
X13544Y45353
X13894Y44903
X13544Y44453
X14344Y44253
X15294Y45353
X16194Y44953
X16594Y44953
X16902Y45751
X16644Y46203
X16054Y44263
X14914Y42673
X14894Y40252
X15394Y39002
X15644Y38102
X15844Y37002
X16444Y37002
X17044Y37002
X17644Y37002
X17644Y37752
X17644Y38502
X18244Y37002
X18844Y37002
X19644Y37752
X19644Y38102
X20044Y37002
X20694Y37002
X21431Y36840
X21594Y37102
X21944Y36552
X22444Y35652
X22894Y36002
X23044Y37502
X22094Y37652
X22094Y39002
X20994Y38202
X20544Y39002
X19644Y40252
X17894Y41203
X17044Y41753
X17044Y42403
X17644Y42403
X17894Y43453
X18644Y44703
X19394Y45703
X20444Y46203
X20844Y47053
X20794Y48853
X21431Y49541
X21594Y49803
X21944Y49253
X22444Y48353
X22894Y48703
X23044Y50203
X22094Y50353
X22094Y51703
X20994Y50903
X20544Y51703
X19644Y50803
X19644Y50453
X20044Y49703
X20694Y49703
X18844Y49703
X18244Y49703
X17644Y49703
X17044Y49703
X16444Y49703
X15844Y49703
X15644Y50803
X15394Y51703
X14894Y52953
X14914Y55374
X14344Y56954
X13894Y57604
X13544Y58054
X13544Y58604
X13044Y58604
X13044Y58904
X12494Y58654
X12444Y59254
X10744Y59254
X10744Y58654
X10744Y59904
X11094Y61604
X11644Y61904
X12644Y61904
X12894Y62904
X11644Y62904
X12894Y64404
X14894Y65654
X15394Y64404
X15644Y63504
X15844Y62404
X16444Y62404
X17044Y62404
X17644Y62404
X17644Y63154
X17644Y63904
X18244Y62404
X18844Y62404
X19644Y63154
X19644Y63504
X20044Y62404
X20694Y62404
X21431Y62242
X21594Y62504
X21944Y61954
X22444Y61054
X22894Y61404
X22394Y59404
X22394Y58404
X22394Y57154
X23344Y57554
X24344Y58504
X24344Y59804
X26144Y59404
X26244Y60704
X27044Y60354
X27444Y59604
X27494Y59284
X28344Y59054
X28644Y58154
X27394Y57404
X26394Y56004
X26894Y55404
X27088Y54248
X27944Y54654
X28394Y54704
X30144Y54754
X30494Y54754
X31144Y54604
X31144Y55104
X31777Y54571
X32046Y57104
X32244Y57354
X32444Y57604
X32731Y57466
X33044Y57354
X33044Y57054
X33194Y57954
X32944Y58354
X32794Y58854
X33094Y58974
X32494Y58974
X31944Y58704
X31994Y58204
X31744Y57934
X31894Y59254
X31416Y59604
X32094Y60254
X33494Y60474
X33144Y61304
X32694Y62404
X33644Y62404
X34244Y62404
X34844Y62404
X35264Y62406
X34844Y60854
X34623Y60234
X34891Y59313
X34535Y58945
X34094Y58704
X34344Y58454
X34304Y58044
X34084Y57764
X33894Y58054
X33844Y59264
X34144Y59304
X34666Y58081
X35174Y57954
X35174Y57644
X35174Y57324
X35174Y57004
X35144Y55904
X35644Y55904
X35594Y54404
X34644Y52953
X34894Y52703
X35394Y52203
X35644Y51953
X35264Y49705
X34844Y49703
X34244Y49703
X33644Y49703
X32694Y49703
X31894Y50453
X31394Y50453
X30644Y50753
X30544Y49883
X31144Y49653
X30444Y49003
X29994Y49453
X29594Y49653
X29594Y49103
X29894Y47703
X29644Y47453
X30394Y47453
X30644Y47703
X31416Y46903
X31894Y46553
X31944Y46003
X31994Y45503
X31744Y45233
X32244Y44653
X32046Y44403
X32444Y44903
X32731Y44765
X33044Y44653
X33044Y44353
X33194Y45253
X32944Y45653
X32794Y46153
X33094Y46273
X32494Y46273
X32094Y47553
X33494Y47773
X33144Y48603
X34844Y48153
X34623Y47533
X34891Y46612
X34535Y46245
X34094Y46003
X34344Y45753
X34304Y45343
X34084Y45063
X33894Y45353
X34666Y45381
X35174Y45253
X35174Y44943
X35174Y44623
X35174Y44303
X35144Y43203
X35644Y43203
X35594Y41703
X34644Y40252
X34894Y40002
X35394Y39502
X35644Y39252
X35264Y37005
X34844Y37002
X34244Y37002
X33644Y37002
X33144Y35902
X32694Y37002
X31894Y37752
X31394Y37752
X31144Y36952
X30544Y37182
X29994Y36752
X29594Y36952
X29594Y36402
X30444Y36302
X30644Y35002
X30394Y34752
X29894Y35002
X29644Y34752
X28694Y34952
X28344Y33652
X28644Y32752
X27394Y32002
X26394Y30602
X26894Y30002
X27088Y28847
X27944Y29252
X28394Y29302
X30144Y29352
X30494Y29352
X31144Y29202
X31144Y29702
X31777Y29169
X32046Y31702
X32244Y31952
X32444Y32202
X32731Y32064
X33044Y31952
X33044Y31652
X33194Y32552
X32944Y32952
X32794Y33452
X33094Y33572
X32494Y33572
X31944Y33302
X31994Y32802
X31744Y32532
X31894Y33852
X31416Y34202
X32094Y34852
X33494Y35072
X33844Y33862
X34144Y33902
X34535Y33544
X34094Y33302
X34344Y33052
X34304Y32642
X34084Y32362
X33894Y32652
X34666Y32680
X35174Y32552
X35174Y32242
X35174Y31922
X35174Y31602
X35144Y30502
X35644Y30502
X35594Y29002
X34444Y28502
X34344Y29502
X33744Y29502
X34644Y27552
X34894Y27302
X35394Y26802
X35644Y26552
X35264Y24304
X34844Y24302
X34244Y24302
X33644Y24302
X32694Y24302
X31894Y25052
X31394Y25052
X31144Y24252
X30544Y24482
X29994Y24052
X29594Y24252
X29594Y23702
X30444Y23602
X30644Y22302
X30394Y22052
X29894Y22302
X29644Y22052
X28694Y22252
X28344Y20952
X28644Y20052
X27394Y19302
X26394Y17902
X26894Y17302
X27088Y16146
X27944Y16552
X28394Y16602
X28894Y18552
X30144Y16652
X30494Y16652
X31144Y16502
X31144Y17002
X31777Y16468
X30094Y15852
X30644Y12651
X30544Y11781
X31144Y11551
X31394Y12351
X31894Y12351
X32694Y11601
X33144Y10501
X33494Y9671
X33844Y8461
X34144Y8501
X34535Y8142
X34094Y7901
X34344Y7651
X34304Y7241
X34084Y6961
X33894Y7251
X33194Y7151
X32944Y7551
X32794Y8051
X33094Y8171
X32494Y8171
X31944Y7901
X31994Y7401
X31744Y7131
X32244Y6551
X32046Y6301
X32444Y6801
X32731Y6663
X33044Y6551
X33044Y6251
X31894Y8451
X31416Y8801
X32094Y9451
X30644Y9601
X30394Y9351
X29894Y9601
X29644Y9351
X28694Y9551
X28344Y8251
X28644Y7351
X27394Y6601
X26394Y5201
X26894Y4601
X27088Y3445
X27944Y3851
X28394Y3901
X30144Y3951
X30494Y3951
X31144Y3801
X31144Y4301
X31777Y3767
X30094Y3151
X28894Y5851
X30594Y6801
X30594Y7751
X30544Y8401
X30444Y10901
X29994Y11351
X29594Y11551
X29594Y11001
X27444Y8801
X27494Y8481
X27044Y9551
X26244Y9901
X26144Y8601
X26144Y7601
X25562Y6451
X25194Y5801
X24494Y5751
X24444Y5351
X23244Y4651
X22894Y3351
X25494Y4401
X25894Y5601
X19544Y5201
X17894Y5351
X17644Y4301
X17044Y4301
X17044Y3651
X17894Y3101
X12894Y13601
X12594Y15902
X12644Y16702
X12669Y17177
X11744Y16652
X11744Y15952
X11444Y17552
X10494Y17552
X10494Y19052
X8894Y17552
X7794Y17552
X7588Y16596
X5144Y14851
X5144Y12101
X7894Y13351
X10394Y12101
X10394Y14851
X10494Y16052
X8644Y20552
X10394Y24802
X10394Y27552
X10494Y28752
X10494Y30252
X11444Y30252
X11744Y29352
X11744Y28652
X12594Y28602
X12644Y29402
X12669Y29877
X10494Y31752
X8894Y30252
X7794Y30252
X7588Y29297
X5144Y27552
X5144Y24802
X7894Y26052
X12894Y26302
X16054Y31562
X16194Y32252
X16594Y32252
X16902Y33050
X16644Y33502
X15294Y32652
X14344Y34602
X13444Y35402
X10394Y37502
X7894Y38752
X7588Y41998
X7794Y42953
X8894Y42953
X8644Y45953
X10394Y50203
X10394Y52953
X10494Y54154
X10494Y55654
X11444Y55654
X11744Y54754
X11744Y54054
X12594Y54004
X12644Y54804
X12669Y55279
X13544Y57154
X15294Y58054
X16194Y57654
X16594Y57654
X16902Y58452
X16644Y58904
X16054Y56964
X17044Y55104
X17644Y55104
X17044Y54454
X17894Y53904
X19644Y52953
X17644Y51203
X17644Y50453
X17894Y56154
X18644Y57404
X19394Y58404
X20444Y58904
X20844Y59754
X20794Y61554
X22094Y63054
X23044Y62904
X22094Y64404
X20994Y63604
X20544Y64404
X19644Y65654
X14344Y60004
X13444Y60804
X10394Y62904
X10394Y65654
X7894Y64154
X5144Y62904
X5144Y65654
X8644Y58654
X10494Y57154
X8894Y55654
X7794Y55654
X7588Y54698
X5144Y52953
X5144Y50203
X7894Y51453
X12894Y51703
X19544Y56004
X22894Y54154
X23244Y55454
X24444Y56154
X24494Y56554
X25194Y56604
X25894Y56404
X25562Y57254
X26144Y58404
X25494Y55204
X28894Y56654
X30594Y57604
X30594Y58554
X30544Y59204
X30394Y60154
X30644Y60404
X29894Y60404
X29644Y60154
X28694Y60354
X29594Y61804
X29994Y62154
X29594Y62354
X30544Y62584
X31144Y62354
X31394Y63154
X31894Y63154
X30644Y63454
X30444Y61704
X34644Y65654
X34894Y65404
X35394Y64904
X35644Y64654
X35644Y58904
X35344Y58754
X35094Y58504
X34344Y54904
X33744Y54904
X34444Y53904
X30094Y53954
X28694Y47653
X28344Y46353
X27494Y46583
X27444Y46903
X27044Y47653
X26244Y48003
X26144Y46703
X26144Y45703
X25562Y44553
X25194Y43903
X24494Y43853
X24444Y43453
X23244Y42753
X22894Y41453
X22394Y44453
X23344Y44853
X22394Y45703
X22394Y46703
X24344Y47103
X24344Y45803
X25894Y43703
X26394Y43303
X26894Y42703
X27088Y41548
X27944Y41953
X28394Y42003
X30144Y42053
X30494Y42053
X31144Y41903
X31144Y42403
X31777Y41870
X30094Y41253
X28894Y43953
X28644Y45453
X27394Y44703
X25494Y42503
X30594Y44903
X30594Y45853
X30544Y46503
X33844Y46563
X34144Y46603
X35094Y45803
X35344Y46053
X35644Y46203
X34344Y42203
X33744Y42203
X34444Y41203
X30644Y38052
X27444Y34202
X27494Y33882
X27044Y34952
X26244Y35302
X26144Y34002
X26144Y33002
X25562Y31852
X25194Y31202
X24494Y31152
X24444Y30752
X23244Y30052
X22894Y28752
X22394Y31752
X22394Y33002
X22394Y34002
X20844Y34352
X20444Y33502
X19394Y33002
X18644Y32002
X17894Y30752
X17644Y29702
X17044Y29702
X17044Y29052
X17894Y28502
X19644Y27552
X20544Y26302
X17644Y25802
X17644Y25052
X19544Y30602
X23344Y32152
X24344Y33102
X24344Y34402
X25894Y31002
X25494Y29802
X28894Y31252
X30594Y32202
X30594Y33152
X30544Y33802
X30094Y28552
X30644Y25352
X32094Y22152
X31416Y21502
X31894Y21152
X31944Y20602
X31994Y20102
X31744Y19832
X32244Y19252
X32444Y19502
X32731Y19364
X33044Y19252
X33044Y18952
X33194Y19852
X32944Y20252
X32794Y20752
X33094Y20872
X32494Y20872
X33494Y22372
X33144Y23202
X34844Y22752
X34623Y22131
X34891Y21210
X34535Y20843
X34094Y20602
X34344Y20352
X34304Y19942
X34084Y19662
X33894Y19952
X34666Y19979
X35174Y19852
X35174Y19542
X35174Y19222
X35174Y18902
X35144Y17802
X35644Y17802
X35594Y16302
X34644Y14851
X34894Y14601
X35394Y14101
X35644Y13851
X34444Y15802
X34344Y16802
X33744Y16802
X32046Y19002
X30594Y19502
X30594Y20452
X30544Y21102
X27494Y21182
X27444Y21502
X27044Y22252
X26244Y22602
X26144Y21302
X26144Y20302
X25562Y19152
X25194Y18502
X24494Y18452
X24444Y18052
X23244Y17352
X22894Y16052
X22394Y19052
X23344Y19452
X22394Y20302
X22394Y21302
X24344Y21702
X24344Y20402
X25894Y18302
X25494Y17102
X33844Y21162
X34144Y21202
X35094Y20402
X35344Y20652
X35644Y20802
X35264Y11603
X34844Y11601
X34244Y11601
X33644Y11601
X34844Y10051
X34623Y9430
X34891Y8509
X35344Y7951
X35644Y8101
X35094Y7701
X35174Y7151
X35174Y6841
X35174Y6521
X35174Y6201
X35144Y5101
X35644Y5101
X35594Y3601
X34444Y3101
X34344Y4101
X33744Y4101
X34666Y7278
X35094Y33102
X35344Y33352
X35644Y33502
X34891Y33911
X34623Y34832
X34844Y35452
X20794Y36152
X19544Y43303
X8644Y33252
X5144Y37502
X5144Y40252
X13544Y19052
X8644Y7851
X10494Y6351
X10494Y3351
T02
X14144Y3551
X14644Y3551
X15144Y3551
X15644Y3551
X16144Y3551
X16144Y4051
X15644Y4051
X15144Y4051
X14644Y4051
X14144Y4051
X14144Y16252
X14644Y16252
X15144Y16252
X15644Y16252
X16144Y16252
X16144Y16752
X15644Y16752
X15144Y16752
X14644Y16752
X14144Y16752
X14144Y28952
X14644Y28952
X15144Y28952
X15644Y28952
X16144Y28952
X16144Y29452
X15644Y29452
X15144Y29452
X14644Y29452
X14144Y29452
X14144Y41653
X14644Y41653
X15144Y41653
X15644Y41653
X16144Y41653
X16144Y42153
X15644Y42153
X15144Y42153
X14644Y42153
X14144Y42153
X14144Y54354
X14644Y54354
X15144Y54354
X15644Y54354
X16144Y54354
X16144Y54854
X15644Y54854
X15144Y54854
X14644Y54854
X14144Y54854
X32644Y50903
X33144Y50903
X33644Y50903
X34144Y50903
X34644Y50903
X34644Y50403
X34144Y50403
X33644Y50403
X33144Y50403
X32644Y50403
X32644Y38202
X33144Y38202
X33644Y38202
X34144Y38202
X34644Y38202
X34644Y37702
X34144Y37702
X33644Y37702
X33144Y37702
X32644Y37702
X32644Y25502
X33144Y25502
X33644Y25502
X34144Y25502
X34644Y25502
X34644Y25002
X34144Y25002
X33644Y25002
X33144Y25002
X32644Y25002
X32644Y12801
X33144Y12801
X33644Y12801
X34144Y12801
X34644Y12801
X34644Y12301
X34144Y12301
X33644Y12301
X33144Y12301
X32644Y12301
X32644Y63104
X33144Y63104
X33644Y63104
X34144Y63104
X34644Y63104
X34644Y63604
X34144Y63604
X33644Y63604
X33144Y63604
X32644Y63604
T03
X6575Y3713
X6575Y5989
X6575Y16414
X6575Y18689
X6575Y29115
X6575Y31390
X6575Y41815
X6575Y44091
X6575Y54516
X6575Y56792
T04
X25537Y61154
X25537Y48453
X25537Y35752
X25537Y23052
X25537Y10351
T05
X25644Y13351
X26144Y14101
X26644Y14851
X27144Y14101
X27644Y14851
X28144Y14101
X28644Y14851
X29144Y14101
X29644Y14851
X30144Y14101
X29644Y13351
X28644Y13351
X27644Y13351
X26644Y13351
X25644Y14851
X25144Y14101
X24644Y14851
X24144Y14101
X24644Y13351
X23644Y13351
X23144Y14101
X23644Y14851
X23644Y26052
X24144Y26802
X24644Y27552
X25144Y26802
X25644Y27552
X26144Y26802
X26644Y27552
X27144Y26802
X27644Y27552
X28144Y26802
X28644Y27552
X29144Y26802
X29644Y27552
X30144Y26802
X29644Y26052
X28644Y26052
X27644Y26052
X26644Y26052
X25644Y26052
X24644Y26052
X23644Y27552
X23144Y26802
X23644Y38752
X24144Y39502
X24644Y38752
X25144Y39502
X25644Y38752
X26144Y39502
X26644Y38752
X27144Y39502
X27644Y38752
X28144Y39502
X28644Y38752
X29144Y39502
X29644Y38752
X30144Y39502
X29644Y40252
X28644Y40252
X27644Y40252
X26644Y40252
X25644Y40252
X24644Y40252
X23644Y40252
X23144Y39502
X23644Y51453
X24144Y52203
X24644Y51453
X25144Y52203
X25644Y51453
X26144Y52203
X26644Y51453
X27144Y52203
X27644Y51453
X28144Y52203
X28644Y51453
X29144Y52203
X29644Y51453
X30144Y52203
X29644Y52953
X28644Y52953
X27644Y52953
X26644Y52953
X25644Y52953
X24644Y52953
X23644Y52953
X23144Y52203
X23644Y64154
X24144Y64904
X24644Y65654
X25144Y64904
X25644Y65654
X26144Y64904
X26644Y65654
X27144Y64904
X27644Y65654
X28144Y64904
X28644Y65654
X29144Y64904
X29644Y65654
X30144Y64904
X29644Y64154
X28644Y64154
X27644Y64154
X26644Y64154
X25644Y64154
X24644Y64154
X23144Y64904
X23644Y65654
M30
