G04 EAGLE Gerber RS-274X export*
G75*
%MOMM*%
%FSLAX34Y34*%
%LPD*%
%INSoldermask Top*%
%IPPOS*%
%AMOC8*
5,1,8,0,0,1.08239X$1,22.5*%
G01*
%ADD10R,1.203200X1.303200*%
%ADD11R,1.303200X1.203200*%
%ADD12C,0.505344*%
%ADD13R,0.813200X0.453200*%
%ADD14R,0.763200X0.453200*%
%ADD15R,0.725200X0.928200*%
%ADD16C,1.003200*%
%ADD17C,0.600000*%
%ADD18R,0.403200X0.703200*%
%ADD19R,0.703200X0.403200*%
%ADD20R,1.203200X0.503200*%
%ADD21R,1.203200X0.803200*%
%ADD22C,0.853200*%
%ADD23C,1.203200*%
%ADD24R,2.203200X1.403200*%
%ADD25R,1.553200X0.803200*%
%ADD26R,0.503200X1.603200*%
%ADD27R,1.453200X2.503200*%
%ADD28R,1.603200X1.803200*%
%ADD29R,2.743200X1.473200*%
%ADD30R,1.103200X1.203200*%
%ADD31C,1.473200*%
%ADD32R,0.487800X1.003200*%
%ADD33R,1.003200X0.487800*%
%ADD34R,0.803200X0.603200*%
%ADD35R,0.803200X0.803200*%
%ADD36R,0.603200X0.803200*%
%ADD37R,0.478200X0.453200*%
%ADD38R,0.453200X0.478200*%
%ADD39R,1.403200X0.753200*%
%ADD40R,1.303200X1.403200*%
%ADD41R,1.203200X2.003200*%
%ADD42R,2.203200X1.203200*%
%ADD43C,2.082800*%
%ADD44R,1.203200X2.203200*%
%ADD45R,0.838200X1.473200*%

G36*
X85704Y240354D02*
X85704Y240354D01*
X85707Y240351D01*
X86829Y240506D01*
X86834Y240511D01*
X86838Y240508D01*
X87909Y240879D01*
X87913Y240885D01*
X87918Y240883D01*
X88895Y241456D01*
X88898Y241462D01*
X88903Y241461D01*
X89750Y242214D01*
X89752Y242221D01*
X89757Y242221D01*
X90441Y243124D01*
X90441Y243131D01*
X90446Y243132D01*
X90941Y244151D01*
X90939Y244158D01*
X90944Y244160D01*
X91231Y245257D01*
X91229Y245261D01*
X91231Y245262D01*
X91229Y245264D01*
X91232Y245266D01*
X91299Y246397D01*
X91297Y246401D01*
X91299Y246403D01*
X91232Y247534D01*
X91227Y247539D01*
X91231Y247543D01*
X90944Y248640D01*
X90938Y248644D01*
X90941Y248649D01*
X90446Y249668D01*
X90440Y249671D01*
X90441Y249676D01*
X89757Y250579D01*
X89750Y250581D01*
X89750Y250586D01*
X88903Y251339D01*
X88896Y251339D01*
X88895Y251344D01*
X87918Y251917D01*
X87911Y251916D01*
X87909Y251921D01*
X86838Y252292D01*
X86832Y252289D01*
X86829Y252294D01*
X85707Y252449D01*
X85702Y252446D01*
X85700Y252449D01*
X73700Y252449D01*
X73695Y252446D01*
X73692Y252449D01*
X72425Y252244D01*
X72419Y252238D01*
X72415Y252241D01*
X71225Y251759D01*
X71221Y251752D01*
X71215Y251754D01*
X70162Y251020D01*
X70160Y251012D01*
X70154Y251013D01*
X69291Y250063D01*
X69290Y250054D01*
X69285Y250054D01*
X68655Y248935D01*
X68656Y248927D01*
X68650Y248925D01*
X68285Y247695D01*
X68288Y247687D01*
X68283Y247684D01*
X68201Y246403D01*
X68204Y246399D01*
X68201Y246397D01*
X68283Y245116D01*
X68289Y245110D01*
X68285Y245105D01*
X68650Y243875D01*
X68657Y243870D01*
X68655Y243865D01*
X69285Y242746D01*
X69292Y242743D01*
X69291Y242737D01*
X70154Y241787D01*
X70162Y241786D01*
X70162Y241780D01*
X71215Y241046D01*
X71223Y241046D01*
X71225Y241041D01*
X72415Y240559D01*
X72422Y240561D01*
X72425Y240556D01*
X73692Y240351D01*
X73697Y240354D01*
X73700Y240351D01*
X85700Y240351D01*
X85704Y240354D01*
G37*
G36*
X85704Y153954D02*
X85704Y153954D01*
X85707Y153951D01*
X86829Y154106D01*
X86834Y154111D01*
X86838Y154108D01*
X87909Y154479D01*
X87913Y154485D01*
X87918Y154483D01*
X88895Y155056D01*
X88898Y155062D01*
X88903Y155061D01*
X89750Y155814D01*
X89752Y155821D01*
X89757Y155821D01*
X90441Y156724D01*
X90441Y156731D01*
X90446Y156732D01*
X90941Y157751D01*
X90939Y157758D01*
X90944Y157760D01*
X91231Y158857D01*
X91229Y158861D01*
X91231Y158862D01*
X91229Y158864D01*
X91232Y158866D01*
X91299Y159997D01*
X91297Y160001D01*
X91299Y160003D01*
X91232Y161134D01*
X91227Y161139D01*
X91231Y161143D01*
X90944Y162240D01*
X90938Y162244D01*
X90941Y162249D01*
X90446Y163268D01*
X90440Y163271D01*
X90441Y163276D01*
X89757Y164179D01*
X89750Y164181D01*
X89750Y164186D01*
X88903Y164939D01*
X88896Y164939D01*
X88895Y164944D01*
X87918Y165517D01*
X87911Y165516D01*
X87909Y165521D01*
X86838Y165892D01*
X86832Y165889D01*
X86829Y165894D01*
X85707Y166049D01*
X85702Y166046D01*
X85700Y166049D01*
X73700Y166049D01*
X73695Y166046D01*
X73692Y166049D01*
X72425Y165844D01*
X72419Y165838D01*
X72415Y165841D01*
X71225Y165359D01*
X71221Y165352D01*
X71215Y165354D01*
X70162Y164620D01*
X70160Y164612D01*
X70154Y164613D01*
X69291Y163663D01*
X69290Y163654D01*
X69285Y163654D01*
X68655Y162535D01*
X68656Y162527D01*
X68650Y162525D01*
X68285Y161295D01*
X68288Y161287D01*
X68283Y161284D01*
X68201Y160003D01*
X68204Y159999D01*
X68201Y159997D01*
X68283Y158716D01*
X68289Y158710D01*
X68285Y158705D01*
X68650Y157475D01*
X68657Y157470D01*
X68655Y157465D01*
X69285Y156346D01*
X69292Y156343D01*
X69291Y156337D01*
X70154Y155387D01*
X70162Y155386D01*
X70162Y155380D01*
X71215Y154646D01*
X71223Y154646D01*
X71225Y154641D01*
X72415Y154159D01*
X72422Y154161D01*
X72425Y154156D01*
X73692Y153951D01*
X73697Y153954D01*
X73700Y153951D01*
X85700Y153951D01*
X85704Y153954D01*
G37*
G36*
X40903Y240353D02*
X40903Y240353D01*
X40905Y240351D01*
X42081Y240462D01*
X42086Y240467D01*
X42090Y240464D01*
X43222Y240802D01*
X43226Y240808D01*
X43231Y240806D01*
X44275Y241358D01*
X44278Y241365D01*
X44283Y241363D01*
X45199Y242109D01*
X45200Y242116D01*
X45206Y242116D01*
X45959Y243026D01*
X45959Y243033D01*
X45964Y243034D01*
X46525Y244073D01*
X46524Y244078D01*
X46528Y244080D01*
X46527Y244081D01*
X46529Y244082D01*
X46876Y245211D01*
X46876Y245212D01*
X46877Y245213D01*
X46874Y245217D01*
X46878Y245220D01*
X46999Y246395D01*
X46995Y246402D01*
X46999Y246406D01*
X46842Y247746D01*
X46837Y247752D01*
X46840Y247757D01*
X46389Y249028D01*
X46382Y249033D01*
X46384Y249038D01*
X45662Y250177D01*
X45654Y250180D01*
X45655Y250186D01*
X44697Y251136D01*
X44689Y251137D01*
X44688Y251143D01*
X43543Y251856D01*
X43535Y251855D01*
X43533Y251861D01*
X42257Y252301D01*
X42250Y252299D01*
X42247Y252303D01*
X40905Y252449D01*
X40902Y252447D01*
X40900Y252449D01*
X34900Y252449D01*
X34897Y252447D01*
X34894Y252449D01*
X33565Y252294D01*
X33559Y252288D01*
X33555Y252291D01*
X32294Y251844D01*
X32289Y251837D01*
X32284Y251839D01*
X31154Y251122D01*
X31151Y251115D01*
X31145Y251116D01*
X30203Y250166D01*
X30202Y250157D01*
X30196Y250157D01*
X29489Y249021D01*
X29490Y249013D01*
X29484Y249011D01*
X29048Y247746D01*
X29050Y247738D01*
X29045Y247736D01*
X28901Y246405D01*
X28905Y246399D01*
X28901Y246395D01*
X29011Y245229D01*
X29016Y245224D01*
X29013Y245220D01*
X29348Y244097D01*
X29354Y244093D01*
X29352Y244089D01*
X29900Y243053D01*
X29906Y243050D01*
X29905Y243045D01*
X30644Y242137D01*
X30651Y242135D01*
X30651Y242130D01*
X31553Y241383D01*
X31561Y241383D01*
X31561Y241378D01*
X32592Y240821D01*
X32599Y240822D01*
X32601Y240817D01*
X33720Y240473D01*
X33727Y240475D01*
X33730Y240471D01*
X34895Y240351D01*
X34898Y240353D01*
X34900Y240351D01*
X40900Y240351D01*
X40903Y240353D01*
G37*
G36*
X40903Y153953D02*
X40903Y153953D01*
X40905Y153951D01*
X42081Y154062D01*
X42086Y154067D01*
X42090Y154064D01*
X43222Y154402D01*
X43226Y154408D01*
X43231Y154406D01*
X44275Y154958D01*
X44278Y154965D01*
X44283Y154963D01*
X45199Y155709D01*
X45200Y155716D01*
X45206Y155716D01*
X45959Y156626D01*
X45959Y156633D01*
X45964Y156634D01*
X46525Y157673D01*
X46524Y157678D01*
X46528Y157680D01*
X46527Y157681D01*
X46529Y157682D01*
X46876Y158811D01*
X46876Y158812D01*
X46877Y158813D01*
X46874Y158817D01*
X46878Y158820D01*
X46999Y159995D01*
X46995Y160002D01*
X46999Y160006D01*
X46842Y161346D01*
X46837Y161352D01*
X46840Y161357D01*
X46389Y162628D01*
X46382Y162633D01*
X46384Y162638D01*
X45662Y163777D01*
X45654Y163780D01*
X45655Y163786D01*
X44697Y164736D01*
X44689Y164737D01*
X44688Y164743D01*
X43543Y165456D01*
X43535Y165455D01*
X43533Y165461D01*
X42257Y165901D01*
X42250Y165899D01*
X42247Y165903D01*
X40905Y166049D01*
X40902Y166047D01*
X40900Y166049D01*
X34900Y166049D01*
X34897Y166047D01*
X34894Y166049D01*
X33565Y165894D01*
X33559Y165888D01*
X33555Y165891D01*
X32294Y165444D01*
X32289Y165437D01*
X32284Y165439D01*
X31154Y164722D01*
X31151Y164715D01*
X31145Y164716D01*
X30203Y163766D01*
X30202Y163757D01*
X30196Y163757D01*
X29489Y162621D01*
X29490Y162613D01*
X29484Y162611D01*
X29048Y161346D01*
X29050Y161338D01*
X29045Y161336D01*
X28901Y160005D01*
X28905Y159999D01*
X28901Y159995D01*
X29011Y158829D01*
X29016Y158824D01*
X29013Y158820D01*
X29348Y157697D01*
X29354Y157693D01*
X29352Y157689D01*
X29900Y156653D01*
X29906Y156650D01*
X29905Y156645D01*
X30644Y155737D01*
X30651Y155735D01*
X30651Y155730D01*
X31553Y154983D01*
X31561Y154983D01*
X31561Y154978D01*
X32592Y154421D01*
X32599Y154422D01*
X32601Y154417D01*
X33720Y154073D01*
X33727Y154075D01*
X33730Y154071D01*
X34895Y153951D01*
X34898Y153953D01*
X34900Y153951D01*
X40900Y153951D01*
X40903Y153953D01*
G37*
G36*
X196280Y13347D02*
X196280Y13347D01*
X196346Y13349D01*
X196389Y13367D01*
X196436Y13375D01*
X196493Y13409D01*
X196553Y13434D01*
X196588Y13465D01*
X196629Y13490D01*
X196671Y13541D01*
X196719Y13585D01*
X196741Y13627D01*
X196770Y13664D01*
X196791Y13726D01*
X196822Y13785D01*
X196830Y13839D01*
X196842Y13876D01*
X196841Y13916D01*
X196849Y13970D01*
X196849Y16510D01*
X196838Y16575D01*
X196836Y16641D01*
X196818Y16684D01*
X196810Y16731D01*
X196776Y16788D01*
X196751Y16848D01*
X196720Y16883D01*
X196695Y16924D01*
X196644Y16966D01*
X196600Y17014D01*
X196558Y17036D01*
X196521Y17065D01*
X196459Y17086D01*
X196400Y17117D01*
X196346Y17125D01*
X196309Y17137D01*
X196269Y17136D01*
X196215Y17144D01*
X192405Y17144D01*
X192340Y17133D01*
X192274Y17131D01*
X192231Y17113D01*
X192184Y17105D01*
X192127Y17071D01*
X192067Y17046D01*
X192032Y17015D01*
X191991Y16990D01*
X191950Y16939D01*
X191901Y16895D01*
X191879Y16853D01*
X191850Y16816D01*
X191829Y16754D01*
X191798Y16695D01*
X191790Y16641D01*
X191778Y16604D01*
X191778Y16601D01*
X191779Y16564D01*
X191771Y16510D01*
X191771Y13970D01*
X191782Y13905D01*
X191784Y13839D01*
X191802Y13796D01*
X191810Y13749D01*
X191844Y13692D01*
X191869Y13632D01*
X191900Y13597D01*
X191925Y13556D01*
X191976Y13515D01*
X192020Y13466D01*
X192062Y13444D01*
X192099Y13415D01*
X192161Y13394D01*
X192220Y13363D01*
X192274Y13355D01*
X192311Y13343D01*
X192351Y13344D01*
X192405Y13336D01*
X196215Y13336D01*
X196280Y13347D01*
G37*
D10*
X387350Y167250D03*
X387350Y150250D03*
X457200Y150250D03*
X457200Y167250D03*
X406400Y150250D03*
X406400Y167250D03*
D11*
X160900Y241300D03*
X143900Y241300D03*
X160900Y165100D03*
X143900Y165100D03*
D10*
X168910Y33900D03*
X168910Y16900D03*
X138430Y279790D03*
X138430Y296790D03*
X138430Y345050D03*
X138430Y328050D03*
X152400Y345050D03*
X152400Y328050D03*
D11*
X461400Y76200D03*
X478400Y76200D03*
X478400Y127000D03*
X461400Y127000D03*
D10*
X373380Y167250D03*
X373380Y150250D03*
X359410Y167250D03*
X359410Y150250D03*
D11*
G36*
X873449Y94557D02*
X882663Y103771D01*
X891171Y95263D01*
X881957Y86049D01*
X873449Y94557D01*
G37*
G36*
X861429Y82537D02*
X870643Y91751D01*
X879151Y83243D01*
X869937Y74029D01*
X861429Y82537D01*
G37*
X122800Y137160D03*
X105800Y137160D03*
D10*
X62230Y33900D03*
X62230Y16900D03*
D11*
X122800Y151130D03*
X105800Y151130D03*
D10*
X76200Y33900D03*
X76200Y16900D03*
X127000Y33900D03*
X127000Y16900D03*
D12*
X236020Y185740D02*
X236020Y192720D01*
X236020Y185740D02*
X229040Y185740D01*
X229040Y192720D01*
X236020Y192720D01*
X236020Y190540D02*
X229040Y190540D01*
X253560Y192720D02*
X253560Y185740D01*
X246580Y185740D01*
X246580Y192720D01*
X253560Y192720D01*
X253560Y190540D02*
X246580Y190540D01*
X236020Y199710D02*
X236020Y206690D01*
X236020Y199710D02*
X229040Y199710D01*
X229040Y206690D01*
X236020Y206690D01*
X236020Y204510D02*
X229040Y204510D01*
X253560Y206690D02*
X253560Y199710D01*
X246580Y199710D01*
X246580Y206690D01*
X253560Y206690D01*
X253560Y204510D02*
X246580Y204510D01*
X236020Y213680D02*
X236020Y220660D01*
X236020Y213680D02*
X229040Y213680D01*
X229040Y220660D01*
X236020Y220660D01*
X236020Y218480D02*
X229040Y218480D01*
X253560Y220660D02*
X253560Y213680D01*
X246580Y213680D01*
X246580Y220660D01*
X253560Y220660D01*
X253560Y218480D02*
X246580Y218480D01*
X236020Y237810D02*
X236020Y244790D01*
X236020Y237810D02*
X229040Y237810D01*
X229040Y244790D01*
X236020Y244790D01*
X236020Y242610D02*
X229040Y242610D01*
X253560Y244790D02*
X253560Y237810D01*
X246580Y237810D01*
X246580Y244790D01*
X253560Y244790D01*
X253560Y242610D02*
X246580Y242610D01*
X236020Y168590D02*
X236020Y161610D01*
X229040Y161610D01*
X229040Y168590D01*
X236020Y168590D01*
X236020Y166410D02*
X229040Y166410D01*
X253560Y168590D02*
X253560Y161610D01*
X246580Y161610D01*
X246580Y168590D01*
X253560Y168590D01*
X253560Y166410D02*
X246580Y166410D01*
D13*
X114060Y208200D03*
D14*
X113810Y203200D03*
X113810Y198200D03*
X122410Y198200D03*
X122410Y203200D03*
X122410Y208200D03*
D15*
X167180Y297290D03*
D16*
X180180Y288290D03*
D15*
X157180Y297290D03*
X157180Y279290D03*
X167180Y279290D03*
D17*
X173555Y288290D02*
X173557Y288453D01*
X173563Y288615D01*
X173573Y288777D01*
X173587Y288939D01*
X173605Y289101D01*
X173627Y289262D01*
X173653Y289423D01*
X173682Y289582D01*
X173716Y289742D01*
X173754Y289900D01*
X173795Y290057D01*
X173840Y290213D01*
X173889Y290368D01*
X173942Y290522D01*
X173999Y290674D01*
X174059Y290825D01*
X174123Y290975D01*
X174191Y291123D01*
X174262Y291269D01*
X174337Y291413D01*
X174416Y291555D01*
X174498Y291696D01*
X174583Y291834D01*
X174672Y291971D01*
X174764Y292105D01*
X174859Y292237D01*
X174957Y292366D01*
X175059Y292493D01*
X175163Y292617D01*
X175271Y292739D01*
X175382Y292858D01*
X175495Y292975D01*
X175612Y293088D01*
X175731Y293199D01*
X175853Y293307D01*
X175977Y293411D01*
X176104Y293513D01*
X176233Y293611D01*
X176365Y293706D01*
X176499Y293798D01*
X176636Y293887D01*
X176774Y293972D01*
X176915Y294054D01*
X177057Y294133D01*
X177201Y294208D01*
X177347Y294279D01*
X177495Y294347D01*
X177645Y294411D01*
X177796Y294471D01*
X177948Y294528D01*
X178102Y294581D01*
X178257Y294630D01*
X178413Y294675D01*
X178570Y294716D01*
X178728Y294754D01*
X178888Y294788D01*
X179047Y294817D01*
X179208Y294843D01*
X179369Y294865D01*
X179531Y294883D01*
X179693Y294897D01*
X179855Y294907D01*
X180017Y294913D01*
X180180Y294915D01*
X180343Y294913D01*
X180505Y294907D01*
X180667Y294897D01*
X180829Y294883D01*
X180991Y294865D01*
X181152Y294843D01*
X181313Y294817D01*
X181472Y294788D01*
X181632Y294754D01*
X181790Y294716D01*
X181947Y294675D01*
X182103Y294630D01*
X182258Y294581D01*
X182412Y294528D01*
X182564Y294471D01*
X182715Y294411D01*
X182865Y294347D01*
X183013Y294279D01*
X183159Y294208D01*
X183303Y294133D01*
X183445Y294054D01*
X183586Y293972D01*
X183724Y293887D01*
X183861Y293798D01*
X183995Y293706D01*
X184127Y293611D01*
X184256Y293513D01*
X184383Y293411D01*
X184507Y293307D01*
X184629Y293199D01*
X184748Y293088D01*
X184865Y292975D01*
X184978Y292858D01*
X185089Y292739D01*
X185197Y292617D01*
X185301Y292493D01*
X185403Y292366D01*
X185501Y292237D01*
X185596Y292105D01*
X185688Y291971D01*
X185777Y291834D01*
X185862Y291696D01*
X185944Y291555D01*
X186023Y291413D01*
X186098Y291269D01*
X186169Y291123D01*
X186237Y290975D01*
X186301Y290825D01*
X186361Y290674D01*
X186418Y290522D01*
X186471Y290368D01*
X186520Y290213D01*
X186565Y290057D01*
X186606Y289900D01*
X186644Y289742D01*
X186678Y289582D01*
X186707Y289423D01*
X186733Y289262D01*
X186755Y289101D01*
X186773Y288939D01*
X186787Y288777D01*
X186797Y288615D01*
X186803Y288453D01*
X186805Y288290D01*
X186803Y288127D01*
X186797Y287965D01*
X186787Y287803D01*
X186773Y287641D01*
X186755Y287479D01*
X186733Y287318D01*
X186707Y287157D01*
X186678Y286998D01*
X186644Y286838D01*
X186606Y286680D01*
X186565Y286523D01*
X186520Y286367D01*
X186471Y286212D01*
X186418Y286058D01*
X186361Y285906D01*
X186301Y285755D01*
X186237Y285605D01*
X186169Y285457D01*
X186098Y285311D01*
X186023Y285167D01*
X185944Y285025D01*
X185862Y284884D01*
X185777Y284746D01*
X185688Y284609D01*
X185596Y284475D01*
X185501Y284343D01*
X185403Y284214D01*
X185301Y284087D01*
X185197Y283963D01*
X185089Y283841D01*
X184978Y283722D01*
X184865Y283605D01*
X184748Y283492D01*
X184629Y283381D01*
X184507Y283273D01*
X184383Y283169D01*
X184256Y283067D01*
X184127Y282969D01*
X183995Y282874D01*
X183861Y282782D01*
X183724Y282693D01*
X183586Y282608D01*
X183445Y282526D01*
X183303Y282447D01*
X183159Y282372D01*
X183013Y282301D01*
X182865Y282233D01*
X182715Y282169D01*
X182564Y282109D01*
X182412Y282052D01*
X182258Y281999D01*
X182103Y281950D01*
X181947Y281905D01*
X181790Y281864D01*
X181632Y281826D01*
X181472Y281792D01*
X181313Y281763D01*
X181152Y281737D01*
X180991Y281715D01*
X180829Y281697D01*
X180667Y281683D01*
X180505Y281673D01*
X180343Y281667D01*
X180180Y281665D01*
X180017Y281667D01*
X179855Y281673D01*
X179693Y281683D01*
X179531Y281697D01*
X179369Y281715D01*
X179208Y281737D01*
X179047Y281763D01*
X178888Y281792D01*
X178728Y281826D01*
X178570Y281864D01*
X178413Y281905D01*
X178257Y281950D01*
X178102Y281999D01*
X177948Y282052D01*
X177796Y282109D01*
X177645Y282169D01*
X177495Y282233D01*
X177347Y282301D01*
X177201Y282372D01*
X177057Y282447D01*
X176915Y282526D01*
X176774Y282608D01*
X176636Y282693D01*
X176499Y282782D01*
X176365Y282874D01*
X176233Y282969D01*
X176104Y283067D01*
X175977Y283169D01*
X175853Y283273D01*
X175731Y283381D01*
X175612Y283492D01*
X175495Y283605D01*
X175382Y283722D01*
X175271Y283841D01*
X175163Y283963D01*
X175059Y284087D01*
X174957Y284214D01*
X174859Y284343D01*
X174764Y284475D01*
X174672Y284609D01*
X174583Y284746D01*
X174498Y284884D01*
X174416Y285025D01*
X174337Y285167D01*
X174262Y285311D01*
X174191Y285457D01*
X174123Y285605D01*
X174059Y285755D01*
X173999Y285906D01*
X173942Y286058D01*
X173889Y286212D01*
X173840Y286367D01*
X173795Y286523D01*
X173754Y286680D01*
X173716Y286838D01*
X173682Y286998D01*
X173653Y287157D01*
X173627Y287318D01*
X173605Y287479D01*
X173587Y287641D01*
X173573Y287803D01*
X173563Y287965D01*
X173557Y288127D01*
X173555Y288290D01*
D18*
X186680Y288290D03*
D19*
X180180Y281790D03*
X180180Y294790D03*
D18*
X173680Y288290D03*
D20*
X85500Y195700D03*
X85500Y200700D03*
D21*
X85500Y170950D03*
X85500Y178700D03*
D20*
X85500Y185700D03*
X85500Y190700D03*
X85500Y210700D03*
X85500Y205700D03*
D21*
X85500Y235450D03*
X85500Y227700D03*
D20*
X85500Y220700D03*
X85500Y215700D03*
D22*
X74450Y232100D03*
X74450Y174300D03*
D23*
X247650Y292100D03*
X247650Y304800D03*
X247650Y317500D03*
X247650Y330200D03*
X247650Y279400D03*
X234950Y292100D03*
X234950Y304800D03*
X234950Y317500D03*
X234950Y330200D03*
X234950Y279400D03*
X69850Y76200D03*
X69850Y88900D03*
X69850Y101600D03*
X69850Y114300D03*
X69850Y63500D03*
X57150Y76200D03*
X57150Y88900D03*
X57150Y101600D03*
X57150Y114300D03*
X57150Y63500D03*
D24*
X39450Y345500D03*
X39450Y289500D03*
D25*
X76200Y332500D03*
X76200Y322500D03*
X76200Y312500D03*
X76200Y302500D03*
D26*
X463900Y49400D03*
D27*
X338150Y36900D03*
D28*
X324900Y40400D03*
X487900Y40400D03*
D27*
X474650Y36900D03*
D26*
X458900Y49400D03*
X453900Y49400D03*
X448900Y49400D03*
X443900Y49400D03*
X438900Y49400D03*
X433900Y49400D03*
X428900Y49400D03*
X423900Y49400D03*
X418900Y49400D03*
X413900Y49400D03*
X408900Y49400D03*
X403900Y49400D03*
X398900Y49400D03*
X393900Y49400D03*
X388900Y49400D03*
X383900Y49400D03*
X378900Y49400D03*
X373900Y49400D03*
X368900Y49400D03*
X363900Y49400D03*
X358900Y49400D03*
X353900Y49400D03*
X348900Y49400D03*
D11*
X270900Y189230D03*
X287900Y189230D03*
D10*
X48260Y16900D03*
X48260Y33900D03*
D11*
G36*
X859479Y107257D02*
X868693Y116471D01*
X877201Y107963D01*
X867987Y98749D01*
X859479Y107257D01*
G37*
G36*
X847459Y95237D02*
X856673Y104451D01*
X865181Y95943D01*
X855967Y86729D01*
X847459Y95237D01*
G37*
X232800Y8890D03*
X249800Y8890D03*
D10*
X124460Y296790D03*
X124460Y279790D03*
X124460Y328050D03*
X124460Y345050D03*
D11*
X143900Y189230D03*
X160900Y189230D03*
X143900Y203200D03*
X160900Y203200D03*
X143900Y217170D03*
X160900Y217170D03*
D10*
X140970Y33900D03*
X140970Y16900D03*
D11*
X270900Y203200D03*
X287900Y203200D03*
D10*
X154940Y33900D03*
X154940Y16900D03*
D11*
X270900Y217170D03*
X287900Y217170D03*
X270900Y241300D03*
X287900Y241300D03*
X270900Y165100D03*
X287900Y165100D03*
X105800Y165100D03*
X122800Y165100D03*
X122800Y241300D03*
X105800Y241300D03*
D29*
X196850Y38100D03*
X196850Y63500D03*
X196850Y88900D03*
X196850Y114300D03*
X285750Y114300D03*
X285750Y88900D03*
X285750Y63500D03*
X285750Y38100D03*
D30*
G36*
X921500Y46507D02*
X913699Y54308D01*
X922206Y62815D01*
X930007Y55014D01*
X921500Y46507D01*
G37*
G36*
X910186Y35193D02*
X902385Y42994D01*
X910892Y51501D01*
X918693Y43700D01*
X910186Y35193D01*
G37*
G36*
X881194Y64185D02*
X873393Y71986D01*
X881900Y80493D01*
X889701Y72692D01*
X881194Y64185D01*
G37*
G36*
X892508Y75499D02*
X884707Y83300D01*
X893214Y91807D01*
X901015Y84006D01*
X892508Y75499D01*
G37*
D31*
X304800Y9525D03*
X266700Y9525D03*
X285750Y9525D03*
X95250Y50800D03*
D32*
X144500Y113900D03*
X139500Y113900D03*
X134500Y113900D03*
X129500Y113900D03*
X124500Y113900D03*
X119500Y113900D03*
X114500Y113900D03*
X109500Y113900D03*
D33*
X102000Y106400D03*
X102000Y101400D03*
X102000Y96400D03*
X102000Y91400D03*
X102000Y86400D03*
X102000Y81400D03*
X102000Y76400D03*
X102000Y71400D03*
D32*
X109500Y63900D03*
X114500Y63900D03*
X119500Y63900D03*
X124500Y63900D03*
X129500Y63900D03*
X134500Y63900D03*
X139500Y63900D03*
X144500Y63900D03*
D33*
X152000Y71400D03*
X152000Y76400D03*
X152000Y81400D03*
X152000Y86400D03*
X152000Y91400D03*
X152000Y96400D03*
X152000Y101400D03*
X152000Y106400D03*
D34*
X361400Y324400D03*
X369400Y319400D03*
X361400Y314400D03*
X369400Y309400D03*
X361400Y304400D03*
X369400Y299400D03*
X361400Y294400D03*
X369400Y289400D03*
X361400Y284400D03*
X369400Y279400D03*
X361400Y274400D03*
X369400Y269400D03*
X361400Y264400D03*
X369400Y259400D03*
X361400Y254400D03*
X369400Y249400D03*
X361400Y244400D03*
X369400Y239400D03*
X361400Y234400D03*
X369400Y229400D03*
X361400Y224400D03*
D35*
X361400Y214400D03*
D36*
X371400Y214400D03*
X376400Y222400D03*
X381400Y214400D03*
X386400Y222400D03*
X391400Y214400D03*
X396400Y222400D03*
X401400Y214400D03*
X406400Y222400D03*
X411400Y214400D03*
X416400Y222400D03*
X421400Y214400D03*
X426400Y222400D03*
X431400Y214400D03*
X436400Y222400D03*
X441400Y214400D03*
D35*
X451400Y214400D03*
D34*
X451400Y224400D03*
X443400Y229400D03*
X451400Y234400D03*
X443400Y239400D03*
X451400Y244400D03*
X443400Y249400D03*
X451400Y254400D03*
X443400Y259400D03*
X451400Y264400D03*
X443400Y269400D03*
X451400Y274400D03*
X443400Y279400D03*
X451400Y284400D03*
X443400Y289400D03*
X451400Y294400D03*
X443400Y299400D03*
X451400Y304400D03*
X443400Y309400D03*
X451400Y314400D03*
X443400Y319400D03*
X451400Y324400D03*
D37*
X186570Y334050D03*
X186570Y339050D03*
X171570Y339050D03*
X171570Y334050D03*
D38*
X171570Y329050D03*
X176570Y329050D03*
X186570Y329050D03*
X181570Y329050D03*
X186570Y344050D03*
X181570Y344050D03*
X176570Y344050D03*
X171570Y344050D03*
D39*
X456899Y111100D03*
X456899Y101600D03*
X456899Y92100D03*
X482901Y92100D03*
X482901Y111100D03*
D40*
X108700Y16860D03*
X108700Y33860D03*
X94700Y33860D03*
X94700Y16860D03*
D41*
X419300Y158750D03*
X444300Y158750D03*
D42*
X872500Y177800D03*
X872500Y228600D03*
X872500Y279400D03*
X905500Y152400D03*
X905500Y203200D03*
X905500Y254000D03*
X905500Y304800D03*
X905500Y330200D03*
X872500Y304800D03*
X905500Y279400D03*
X872500Y254000D03*
X905500Y228600D03*
X872500Y203200D03*
X905500Y177800D03*
X872500Y152400D03*
X872500Y330200D03*
D43*
X946150Y330200D03*
X946150Y304800D03*
X946150Y279400D03*
X946150Y254000D03*
X946150Y228600D03*
X946150Y203200D03*
X946150Y177800D03*
X946150Y152400D03*
X927100Y330200D03*
X927100Y304800D03*
X927100Y279400D03*
X927100Y254000D03*
X927100Y228600D03*
X927100Y203200D03*
X927100Y177800D03*
X927100Y152400D03*
X812800Y38100D03*
X787400Y38100D03*
X762000Y38100D03*
X736600Y38100D03*
X711200Y38100D03*
X685800Y38100D03*
X660400Y38100D03*
X635000Y38100D03*
X609600Y38100D03*
X584200Y38100D03*
X558800Y38100D03*
X533400Y38100D03*
X533400Y342900D03*
X558800Y342900D03*
X584200Y342900D03*
X609600Y342900D03*
X635000Y342900D03*
X660400Y342900D03*
X685800Y342900D03*
X711200Y342900D03*
X736600Y342900D03*
X762000Y342900D03*
X787400Y342900D03*
X812800Y342900D03*
X812800Y12700D03*
X787400Y12700D03*
X762000Y12700D03*
X736600Y12700D03*
X711200Y12700D03*
X685800Y12700D03*
X660400Y12700D03*
X635000Y12700D03*
X609600Y12700D03*
X584200Y12700D03*
X558800Y12700D03*
X533400Y12700D03*
X533400Y368300D03*
X558800Y368300D03*
X584200Y368300D03*
X609600Y368300D03*
X635000Y368300D03*
X660400Y368300D03*
X685800Y368300D03*
X711200Y368300D03*
X736600Y368300D03*
X762000Y368300D03*
X787400Y368300D03*
X812800Y368300D03*
X812800Y57150D03*
X787400Y57150D03*
X762000Y57150D03*
X736600Y57150D03*
X711200Y57150D03*
X685800Y57150D03*
X660400Y57150D03*
X635000Y57150D03*
X609600Y57150D03*
X584200Y57150D03*
X558800Y57150D03*
X533400Y57150D03*
X533400Y323850D03*
X558800Y323850D03*
X584200Y323850D03*
X609600Y323850D03*
X635000Y323850D03*
X660400Y323850D03*
X685800Y323850D03*
X711200Y323850D03*
X736600Y323850D03*
X762000Y323850D03*
X787400Y323850D03*
X812800Y323850D03*
D44*
X787400Y262900D03*
X736600Y262900D03*
X812800Y295900D03*
X762000Y295900D03*
X736600Y295900D03*
X762000Y262900D03*
X787400Y295900D03*
X812800Y262900D03*
X762000Y118100D03*
X812800Y118100D03*
X736600Y85100D03*
X787400Y85100D03*
X812800Y85100D03*
X787400Y118100D03*
X762000Y85100D03*
X736600Y118100D03*
X685800Y262900D03*
X635000Y262900D03*
X584200Y262900D03*
X711200Y295900D03*
X660400Y295900D03*
X609600Y295900D03*
X558800Y295900D03*
X533400Y295900D03*
X558800Y262900D03*
X584200Y295900D03*
X609600Y262900D03*
X635000Y295900D03*
X660400Y262900D03*
X685800Y295900D03*
X711200Y262900D03*
X533400Y262900D03*
X558800Y118100D03*
X609600Y118100D03*
X660400Y118100D03*
X533400Y85100D03*
X584200Y85100D03*
X635000Y85100D03*
X685800Y85100D03*
X711200Y85100D03*
X685800Y118100D03*
X660400Y85100D03*
X635000Y118100D03*
X609600Y85100D03*
X584200Y118100D03*
X558800Y85100D03*
X533400Y118100D03*
X711200Y118100D03*
D45*
X189230Y15240D03*
X199390Y15240D03*
D23*
X38100Y368300D03*
X952500Y12700D03*
M02*
