M48
;GenerationSoftware,Autodesk,EAGLE,9.5.2*%
;CreationDate,2020-03-04T19:44:14Z*%
FMAT,2
ICI,OFF
METRIC,TZ,000.000
T5C0.381
T4C0.508
T3C0.650
T2C0.800
T1C1.016
%
G90
M71
T1
X68580Y1270
X78740Y5715
X76200Y5715
X73660Y5715
X71120Y5715
X68580Y5715
X66040Y5715
X63500Y5715
X60960Y5715
X58420Y5715
X55880Y5715
X53340Y5715
X53340Y32385
X94615Y27940
X55880Y32385
X58420Y32385
X60960Y32385
X63500Y32385
X66040Y32385
X68580Y32385
X71120Y32385
X73660Y32385
X76200Y32385
X78740Y32385
X94615Y33020
X94615Y30480
X81280Y32385
X94615Y25400
X94615Y22860
X94615Y20320
X94615Y17780
X94615Y15240
X92710Y33020
X92710Y30480
X92710Y27940
X92710Y25400
X92710Y22860
X92710Y20320
X92710Y17780
X92710Y15240
X81280Y3810
X78740Y3810
X76200Y3810
X73660Y3810
X71120Y3810
X68580Y3810
X66040Y3810
X63500Y3810
X60960Y3810
X58420Y3810
X55880Y3810
X53340Y3810
X53340Y34290
X55880Y34290
X58420Y34290
X60960Y34290
X63500Y34290
X66040Y34290
X68580Y34290
X71120Y34290
X73660Y34290
X76200Y34290
X78740Y34290
X81280Y34290
X81280Y1270
X78740Y1270
X76200Y1270
X73660Y1270
X71120Y1270
X66040Y1270
X63500Y1270
X60960Y1270
X58420Y1270
X55880Y1270
X53340Y1270
X53340Y36830
X55880Y36830
X58420Y36830
X60960Y36830
X63500Y36830
X66040Y36830
X68580Y36830
X71120Y36830
X73660Y36830
X76200Y36830
X78740Y36830
X81280Y36830
X81280Y5715
T2
X18018Y28829
T3
X7445Y23210
X7445Y17430
T4
X24765Y29210
X24765Y30480
X24765Y31750
X24765Y33020
X24765Y27940
X23495Y29210
X23495Y30480
X23495Y31750
X23495Y33020
X6985Y7620
X6985Y8890
X6985Y10160
X6985Y11430
X6985Y6350
X5715Y7620
X5715Y8890
X5715Y10160
X5715Y11430
X5715Y6350
X23495Y27940
T5
X91440Y26670
X91440Y29210
X86360Y21590
X91440Y21590
X91440Y31750
X86360Y36830
X91440Y36830
X91440Y34290
X21590Y889
X3556Y1016
X14986Y26670
X44069Y17653
X41910Y17653
X41402Y3683
X46101Y6350
X15113Y15113
X43180Y15875
X84709Y20320
X11938Y10287
X82968Y12409
X13271Y20320
X9652Y17872
X85471Y25400
X17272Y20320
X17272Y24130
X17272Y16510
X12380Y12385
X22479Y6477
X18034Y18669
X18669Y17272
X11176Y9017
X8776Y8930
X12712Y7505
X27445Y30988
X23343Y8915
X29210Y32004
X23622Y8001
X25400Y9525
X26086Y10287
X26035Y31750
X25286Y11430
X24511Y10414
X27940Y29210
X40386Y31115
X30480Y3492
X40513Y3238
X45212Y3429
X83905Y13885
X16383Y30734
X16383Y32152
X30480Y28067
X28702Y26683
X31044Y7422
X34900Y30302
X28321Y27559
X28702Y7620
X39253Y31102
X42736Y11112
X42418Y31115
X42037Y11811
X18542Y10160
X40005Y8115
X31509Y26784
X30480Y8903
X32641Y23597
X33020Y9525
X32283Y26010
X39919Y7087
X31750Y22098
X42037Y9779
X40767Y26924
X36957Y11730
X41742Y6350
X48260Y10160
X84138Y15240
X35433Y11316
X38927Y27165
X41402Y31115
X39624Y11176
X38324Y30383
X40259Y9906
X33401Y24384
X42164Y8636
X32766Y29210
X37338Y7239
X39903Y27330
X37973Y11709
X43434Y31344
X48641Y28321
X43434Y32258
X48519Y29337
X40382Y25117
X47498Y19431
X34798Y13520
X76200Y13462
X37541Y19444
X51295Y14237
X38862Y20066
X50383Y14618
X41021Y24435
X46736Y20066
X34925Y19558
X51943Y13589
X41643Y23762
X45974Y19431
X41992Y19939
X48559Y15380
X40259Y23787
X47647Y15761
X42769Y23086
X47625Y16764
X40399Y20434
X49471Y14999
X41024Y28756
X49022Y19431
X39929Y28781
X48260Y20066
X26543Y32512
X22444Y9179
X14097Y7747
X18034Y1270
X10287Y20320
X10922Y4572
X19812Y27559
X35941Y19939
X45085Y20320
X16383Y33655
X14910Y30074
X19177Y15875
X20447Y17145
X22352Y15240
X20193Y12954
X49911Y9398
X51943Y11430
X52324Y6985
X50292Y4826
X47498Y6096
X23368Y4318
X24257Y3429
X4826Y35878
X3302Y25908
X10160Y26670
X10795Y36195
X28575Y36195
X13335Y10033
X8255Y4572
X12827Y9017
X42672Y26797
X14351Y17780
X16129Y17780
X34671Y15748
X34671Y14732
X14224Y22860
X16256Y22860
X14224Y25400
X20320Y26035
X21844Y24384
X21209Y22098
X18669Y24765
X5969Y33274
X46609Y32512
X47371Y1778
X26670Y5461
X10160Y12192
X9779Y22352
X93980Y35560
X88900Y2540
X83058Y15367
X82042Y14351
X32512Y889
X30607Y5080
X31623Y33528
X49149Y33274
X54991Y14097
X52578Y24511
X54991Y24003
X57531Y23622
X62611Y22860
X60071Y23241
X65151Y22479
X67691Y22098
X70231Y21717
X72771Y21336
X75311Y20955
X77851Y20574
X80391Y20193
X81280Y19050
X57531Y14478
X62611Y15240
X34925Y25792
X60071Y14859
X65151Y15621
X67691Y16002
X70231Y16383
X72771Y16764
X75311Y17145
X77851Y17526
X80391Y17907
X83820Y35560
X86360Y34290
X88900Y35560
X83820Y33020
X86360Y31750
X83820Y30480
X86360Y29210
X83820Y27940
X86360Y26670
X83820Y25400
X86360Y24130
X83820Y22860
X88900Y12700
X93980Y12700
X91440Y11430
X93980Y10160
X91440Y8890
X93980Y7620
X93980Y5080
X93980Y2540
X87630Y5080
X85090Y5080
X86360Y2540
X83820Y2540
X83820Y7620
X23622Y11176
X12065Y22352
X3302Y17272
X3302Y23368
X24130Y17653
X83820Y17780
X91440Y13970
X91440Y19050
X91440Y24130
M30