G04 EAGLE Gerber RS-274X export*
G75*
%MOMM*%
%FSLAX34Y34*%
%LPD*%
%INSoldermask Bottom*%
%IPPOS*%
%AMOC8*
5,1,8,0,0,1.08239X$1,22.5*%
G01*
%ADD10C,1.003200*%
%ADD11C,0.853200*%
%ADD12C,1.203200*%
%ADD13C,2.082800*%


D10*
X180180Y288290D03*
D11*
X74450Y232100D03*
X74450Y174300D03*
D12*
X247650Y292100D03*
X247650Y304800D03*
X247650Y317500D03*
X247650Y330200D03*
X247650Y279400D03*
X234950Y292100D03*
X234950Y304800D03*
X234950Y317500D03*
X234950Y330200D03*
X234950Y279400D03*
X69850Y76200D03*
X69850Y88900D03*
X69850Y101600D03*
X69850Y114300D03*
X69850Y63500D03*
X57150Y76200D03*
X57150Y88900D03*
X57150Y101600D03*
X57150Y114300D03*
X57150Y63500D03*
D13*
X946150Y330200D03*
X946150Y304800D03*
X946150Y279400D03*
X946150Y254000D03*
X946150Y228600D03*
X946150Y203200D03*
X946150Y177800D03*
X946150Y152400D03*
X927100Y330200D03*
X927100Y304800D03*
X927100Y279400D03*
X927100Y254000D03*
X927100Y228600D03*
X927100Y203200D03*
X927100Y177800D03*
X927100Y152400D03*
X812800Y38100D03*
X787400Y38100D03*
X762000Y38100D03*
X736600Y38100D03*
X711200Y38100D03*
X685800Y38100D03*
X660400Y38100D03*
X635000Y38100D03*
X609600Y38100D03*
X584200Y38100D03*
X558800Y38100D03*
X533400Y38100D03*
X533400Y342900D03*
X558800Y342900D03*
X584200Y342900D03*
X609600Y342900D03*
X635000Y342900D03*
X660400Y342900D03*
X685800Y342900D03*
X711200Y342900D03*
X736600Y342900D03*
X762000Y342900D03*
X787400Y342900D03*
X812800Y342900D03*
X812800Y12700D03*
X787400Y12700D03*
X762000Y12700D03*
X736600Y12700D03*
X711200Y12700D03*
X685800Y12700D03*
X660400Y12700D03*
X635000Y12700D03*
X609600Y12700D03*
X584200Y12700D03*
X558800Y12700D03*
X533400Y12700D03*
X533400Y368300D03*
X558800Y368300D03*
X584200Y368300D03*
X609600Y368300D03*
X635000Y368300D03*
X660400Y368300D03*
X685800Y368300D03*
X711200Y368300D03*
X736600Y368300D03*
X762000Y368300D03*
X787400Y368300D03*
X812800Y368300D03*
X812800Y57150D03*
X787400Y57150D03*
X762000Y57150D03*
X736600Y57150D03*
X711200Y57150D03*
X685800Y57150D03*
X660400Y57150D03*
X635000Y57150D03*
X609600Y57150D03*
X584200Y57150D03*
X558800Y57150D03*
X533400Y57150D03*
X533400Y323850D03*
X558800Y323850D03*
X584200Y323850D03*
X609600Y323850D03*
X635000Y323850D03*
X660400Y323850D03*
X685800Y323850D03*
X711200Y323850D03*
X736600Y323850D03*
X762000Y323850D03*
X787400Y323850D03*
X812800Y323850D03*
D12*
X38100Y368300D03*
X952500Y12700D03*
M02*
