G04 EAGLE Gerber RS-274X export*
G75*
%MOMM*%
%FSLAX34Y34*%
%LPD*%
%INSolderpaste Top*%
%IPPOS*%
%AMOC8*
5,1,8,0,0,1.08239X$1,22.5*%
G01*
%ADD10R,1.000000X1.100000*%
%ADD11R,1.100000X1.000000*%
%ADD12C,0.300000*%
%ADD13R,0.610000X0.250000*%
%ADD14R,0.560000X0.250000*%
%ADD15R,0.522000X0.725000*%
%ADD16R,0.200000X0.500000*%
%ADD17R,0.500000X0.200000*%
%ADD18R,1.000000X0.300000*%
%ADD19R,1.000000X0.600000*%
%ADD20R,2.000000X1.200000*%
%ADD21R,1.350000X0.600000*%
%ADD22R,0.300000X1.400000*%
%ADD23R,1.250000X2.300000*%
%ADD24R,1.400000X1.600000*%
%ADD25R,2.540000X1.270000*%
%ADD26R,0.900000X1.000000*%
%ADD27R,0.284600X0.800000*%
%ADD28R,0.800000X0.284600*%
%ADD29R,0.600000X0.400000*%
%ADD30R,0.600000X0.600000*%
%ADD31R,0.400000X0.600000*%
%ADD32R,0.275000X0.250000*%
%ADD33R,0.250000X0.275000*%
%ADD34R,1.200000X0.550000*%
%ADD35R,1.100000X1.200000*%
%ADD36R,1.000000X1.800000*%
%ADD37R,2.000000X1.000000*%
%ADD38R,1.000000X2.000000*%

G36*
X85705Y154954D02*
X85705Y154954D01*
X85708Y154951D01*
X86803Y155131D01*
X86809Y155137D01*
X86814Y155134D01*
X87842Y155553D01*
X87846Y155560D01*
X87851Y155558D01*
X88760Y156196D01*
X88763Y156203D01*
X88768Y156203D01*
X89512Y157026D01*
X89513Y157034D01*
X89519Y157035D01*
X90061Y158003D01*
X90060Y158012D01*
X90066Y158014D01*
X90379Y159078D01*
X90376Y159086D01*
X90381Y159089D01*
X90449Y160197D01*
X90445Y160204D01*
X90449Y160207D01*
X90279Y161315D01*
X90273Y161321D01*
X90276Y161326D01*
X89864Y162368D01*
X89857Y162372D01*
X89859Y162377D01*
X89225Y163302D01*
X89217Y163304D01*
X89218Y163310D01*
X88395Y164070D01*
X88386Y164071D01*
X88386Y164077D01*
X87414Y164634D01*
X87406Y164633D01*
X87404Y164639D01*
X86332Y164966D01*
X86324Y164963D01*
X86321Y164968D01*
X85204Y165049D01*
X85201Y165048D01*
X85200Y165049D01*
X73200Y165049D01*
X73197Y165047D01*
X73190Y165047D01*
X73189Y165048D01*
X72245Y164829D01*
X72239Y164823D01*
X72234Y164825D01*
X71362Y164402D01*
X71359Y164394D01*
X71353Y164396D01*
X70597Y163789D01*
X70595Y163781D01*
X70589Y163781D01*
X69988Y163021D01*
X69988Y163012D01*
X69982Y163011D01*
X69564Y162136D01*
X69566Y162128D01*
X69561Y162126D01*
X69349Y161180D01*
X69352Y161173D01*
X69347Y161169D01*
X69351Y160200D01*
X69351Y160199D01*
X69370Y159131D01*
X69375Y159124D01*
X69371Y159120D01*
X69627Y158083D01*
X69634Y158078D01*
X69631Y158072D01*
X70112Y157118D01*
X70119Y157115D01*
X70118Y157109D01*
X70799Y156286D01*
X70807Y156284D01*
X70807Y156278D01*
X71654Y155627D01*
X71662Y155627D01*
X71663Y155621D01*
X72634Y155174D01*
X72642Y155176D01*
X72644Y155171D01*
X73690Y154952D01*
X73697Y154955D01*
X73700Y154951D01*
X85700Y154951D01*
X85705Y154954D01*
G37*
G36*
X85705Y241355D02*
X85705Y241355D01*
X85708Y241351D01*
X86814Y241544D01*
X86819Y241549D01*
X86819Y241550D01*
X86824Y241547D01*
X87859Y241980D01*
X87863Y241987D01*
X87868Y241985D01*
X88781Y242638D01*
X88783Y242646D01*
X88789Y242645D01*
X89533Y243484D01*
X89534Y243493D01*
X89539Y243493D01*
X90078Y244477D01*
X90077Y244485D01*
X90078Y244486D01*
X90082Y244487D01*
X90083Y244489D01*
X90265Y245130D01*
X90389Y245566D01*
X90387Y245571D01*
X90389Y245573D01*
X90387Y245575D01*
X90391Y245577D01*
X90449Y246697D01*
X90446Y246702D01*
X90449Y246706D01*
X90331Y247751D01*
X90325Y247757D01*
X90329Y247762D01*
X89981Y248756D01*
X89974Y248760D01*
X89976Y248765D01*
X89416Y249657D01*
X89409Y249660D01*
X89409Y249665D01*
X88665Y250409D01*
X88657Y250411D01*
X88657Y250416D01*
X87765Y250976D01*
X87757Y250976D01*
X87756Y250981D01*
X86762Y251329D01*
X86754Y251326D01*
X86751Y251331D01*
X85706Y251449D01*
X85702Y251447D01*
X85700Y251449D01*
X73700Y251449D01*
X73697Y251447D01*
X73694Y251447D01*
X73692Y251449D01*
X72696Y251291D01*
X72690Y251285D01*
X72685Y251288D01*
X71749Y250913D01*
X71745Y250906D01*
X71739Y250908D01*
X70910Y250334D01*
X70907Y250326D01*
X70902Y250327D01*
X70221Y249583D01*
X70220Y249574D01*
X70214Y249574D01*
X69716Y248697D01*
X69717Y248689D01*
X69712Y248686D01*
X69524Y248062D01*
X69421Y247721D01*
X69422Y247718D01*
X69421Y247717D01*
X69424Y247713D01*
X69419Y247710D01*
X69351Y246703D01*
X69352Y246701D01*
X69351Y246700D01*
X69360Y245619D01*
X69365Y245612D01*
X69361Y245608D01*
X69611Y244556D01*
X69617Y244551D01*
X69614Y244546D01*
X70091Y243576D01*
X70099Y243573D01*
X70097Y243567D01*
X70778Y242728D01*
X70786Y242726D01*
X70786Y242720D01*
X71637Y242054D01*
X71645Y242053D01*
X71646Y242048D01*
X72623Y241587D01*
X72631Y241589D01*
X72634Y241584D01*
X73689Y241352D01*
X73697Y241355D01*
X73700Y241351D01*
X85700Y241351D01*
X85705Y241355D01*
G37*
G36*
X40904Y154954D02*
X40904Y154954D01*
X40906Y154951D01*
X42039Y155101D01*
X42045Y155107D01*
X42050Y155104D01*
X43120Y155502D01*
X43124Y155509D01*
X43130Y155507D01*
X44085Y156134D01*
X44088Y156142D01*
X44093Y156141D01*
X44885Y156964D01*
X44886Y156972D01*
X44892Y156973D01*
X45481Y157952D01*
X45480Y157960D01*
X45485Y157962D01*
X45841Y159047D01*
X45839Y159055D01*
X45843Y159058D01*
X45949Y160195D01*
X45944Y160204D01*
X45948Y160209D01*
X45741Y161346D01*
X45735Y161352D01*
X45738Y161357D01*
X45283Y162419D01*
X45276Y162423D01*
X45278Y162429D01*
X44598Y163364D01*
X44590Y163366D01*
X44591Y163372D01*
X43720Y164132D01*
X43712Y164132D01*
X43711Y164138D01*
X42692Y164685D01*
X42684Y164684D01*
X42682Y164689D01*
X41568Y164996D01*
X41560Y164993D01*
X41557Y164998D01*
X40402Y165049D01*
X40401Y165048D01*
X40400Y165049D01*
X34400Y165049D01*
X34397Y165047D01*
X34392Y165047D01*
X34391Y165048D01*
X33310Y164836D01*
X33305Y164830D01*
X33300Y164833D01*
X32294Y164386D01*
X32290Y164379D01*
X32284Y164381D01*
X31403Y163721D01*
X31400Y163713D01*
X31395Y163713D01*
X30682Y162874D01*
X30682Y162866D01*
X30676Y162865D01*
X30168Y161888D01*
X30169Y161880D01*
X30164Y161878D01*
X29886Y160813D01*
X29889Y160805D01*
X29885Y160802D01*
X29851Y159702D01*
X29855Y159696D01*
X29851Y159693D01*
X30006Y158618D01*
X30012Y158612D01*
X30009Y158607D01*
X30399Y157593D01*
X30406Y157589D01*
X30405Y157583D01*
X31011Y156681D01*
X31019Y156679D01*
X31018Y156673D01*
X31810Y155929D01*
X31818Y155928D01*
X31818Y155922D01*
X32756Y155373D01*
X32764Y155374D01*
X32766Y155368D01*
X33802Y155041D01*
X33810Y155044D01*
X33813Y155039D01*
X34896Y154951D01*
X34899Y154953D01*
X34900Y154951D01*
X40900Y154951D01*
X40904Y154954D01*
G37*
G36*
X40903Y241353D02*
X40903Y241353D01*
X40905Y241351D01*
X41997Y241452D01*
X42003Y241457D01*
X42008Y241454D01*
X43051Y241795D01*
X43056Y241802D01*
X43061Y241800D01*
X44002Y242364D01*
X44005Y242372D01*
X44011Y242371D01*
X44803Y243131D01*
X44804Y243139D01*
X44810Y243140D01*
X45413Y244057D01*
X45412Y244065D01*
X45418Y244067D01*
X45801Y245095D01*
X45799Y245103D01*
X45804Y245106D01*
X45949Y246194D01*
X45945Y246201D01*
X45949Y246205D01*
X45843Y247342D01*
X45838Y247348D01*
X45841Y247353D01*
X45485Y248438D01*
X45478Y248443D01*
X45481Y248448D01*
X44892Y249427D01*
X44884Y249430D01*
X44885Y249436D01*
X44093Y250259D01*
X44085Y250260D01*
X44085Y250266D01*
X43130Y250893D01*
X43122Y250892D01*
X43120Y250898D01*
X42050Y251296D01*
X42042Y251294D01*
X42039Y251299D01*
X40906Y251449D01*
X40903Y251447D01*
X40902Y251447D01*
X40900Y251449D01*
X34900Y251449D01*
X34897Y251447D01*
X34895Y251447D01*
X34894Y251449D01*
X33761Y251299D01*
X33755Y251293D01*
X33750Y251296D01*
X32680Y250898D01*
X32676Y250891D01*
X32670Y250893D01*
X31715Y250266D01*
X31712Y250258D01*
X31707Y250259D01*
X30915Y249436D01*
X30914Y249428D01*
X30908Y249427D01*
X30319Y248448D01*
X30320Y248440D01*
X30315Y248438D01*
X29959Y247353D01*
X29962Y247345D01*
X29957Y247342D01*
X29851Y246205D01*
X29855Y246198D01*
X29851Y246194D01*
X29996Y245106D01*
X30002Y245100D01*
X29999Y245095D01*
X30383Y244067D01*
X30389Y244062D01*
X30388Y244057D01*
X30990Y243140D01*
X30998Y243137D01*
X30997Y243131D01*
X31789Y242371D01*
X31797Y242370D01*
X31798Y242364D01*
X32739Y241800D01*
X32747Y241801D01*
X32749Y241795D01*
X33792Y241454D01*
X33800Y241456D01*
X33803Y241452D01*
X34896Y241351D01*
X34898Y241353D01*
X34900Y241351D01*
X40900Y241351D01*
X40903Y241353D01*
G37*
G36*
X181757Y280293D02*
X181757Y280293D01*
X181766Y280297D01*
X181806Y280303D01*
X183293Y280772D01*
X183302Y280778D01*
X183340Y280792D01*
X184701Y281552D01*
X184721Y281572D01*
X184746Y281584D01*
X184769Y281621D01*
X184800Y281652D01*
X184805Y281679D01*
X184820Y281703D01*
X184820Y281746D01*
X184829Y281789D01*
X184819Y281815D01*
X184818Y281843D01*
X184786Y281910D01*
X183386Y283980D01*
X183382Y283984D01*
X183379Y283990D01*
X183328Y284028D01*
X183279Y284069D01*
X183273Y284070D01*
X183268Y284073D01*
X183204Y284078D01*
X183140Y284086D01*
X183134Y284083D01*
X183128Y284084D01*
X183059Y284058D01*
X182152Y283552D01*
X181187Y283248D01*
X180180Y283145D01*
X179173Y283248D01*
X178208Y283552D01*
X177301Y284058D01*
X177295Y284059D01*
X177291Y284063D01*
X177228Y284075D01*
X177165Y284089D01*
X177159Y284087D01*
X177153Y284088D01*
X177094Y284063D01*
X177034Y284042D01*
X177030Y284037D01*
X177024Y284034D01*
X176974Y283980D01*
X175574Y281910D01*
X175565Y281883D01*
X175548Y281861D01*
X175544Y281818D01*
X175531Y281777D01*
X175538Y281750D01*
X175535Y281722D01*
X175555Y281683D01*
X175567Y281641D01*
X175587Y281623D01*
X175600Y281598D01*
X175659Y281552D01*
X177020Y280792D01*
X177031Y280790D01*
X177067Y280772D01*
X178554Y280303D01*
X178564Y280303D01*
X178603Y280293D01*
X180155Y280135D01*
X180165Y280137D01*
X180205Y280135D01*
X181757Y280293D01*
G37*
G36*
X183201Y292493D02*
X183201Y292493D01*
X183207Y292492D01*
X183266Y292517D01*
X183326Y292538D01*
X183330Y292543D01*
X183336Y292546D01*
X183386Y292600D01*
X184786Y294670D01*
X184795Y294697D01*
X184812Y294719D01*
X184816Y294762D01*
X184829Y294803D01*
X184822Y294830D01*
X184825Y294858D01*
X184805Y294897D01*
X184794Y294939D01*
X184773Y294957D01*
X184760Y294982D01*
X184701Y295028D01*
X183340Y295788D01*
X183329Y295790D01*
X183293Y295808D01*
X181806Y296277D01*
X181796Y296277D01*
X181757Y296287D01*
X180205Y296445D01*
X180195Y296443D01*
X180155Y296445D01*
X178603Y296287D01*
X178594Y296283D01*
X178554Y296277D01*
X177067Y295808D01*
X177058Y295802D01*
X177020Y295788D01*
X175659Y295028D01*
X175639Y295008D01*
X175614Y294996D01*
X175591Y294959D01*
X175560Y294928D01*
X175555Y294901D01*
X175540Y294877D01*
X175540Y294834D01*
X175531Y294791D01*
X175541Y294765D01*
X175542Y294737D01*
X175574Y294670D01*
X176974Y292600D01*
X176978Y292596D01*
X176981Y292590D01*
X177032Y292552D01*
X177081Y292511D01*
X177087Y292510D01*
X177092Y292507D01*
X177156Y292502D01*
X177220Y292494D01*
X177226Y292497D01*
X177232Y292496D01*
X177301Y292522D01*
X178208Y293028D01*
X179173Y293332D01*
X180180Y293435D01*
X181187Y293332D01*
X182152Y293028D01*
X183059Y292522D01*
X183065Y292521D01*
X183069Y292517D01*
X183132Y292505D01*
X183195Y292491D01*
X183201Y292493D01*
G37*
G36*
X173705Y283651D02*
X173705Y283651D01*
X173733Y283652D01*
X173800Y283684D01*
X175870Y285084D01*
X175874Y285088D01*
X175880Y285091D01*
X175918Y285142D01*
X175959Y285191D01*
X175960Y285197D01*
X175963Y285202D01*
X175968Y285266D01*
X175976Y285330D01*
X175973Y285336D01*
X175974Y285342D01*
X175948Y285411D01*
X175442Y286318D01*
X175138Y287283D01*
X175035Y288290D01*
X175138Y289297D01*
X175442Y290262D01*
X175948Y291169D01*
X175949Y291175D01*
X175953Y291179D01*
X175965Y291242D01*
X175979Y291305D01*
X175977Y291311D01*
X175978Y291317D01*
X175953Y291376D01*
X175932Y291436D01*
X175927Y291440D01*
X175924Y291446D01*
X175870Y291496D01*
X173800Y292896D01*
X173773Y292905D01*
X173751Y292922D01*
X173708Y292926D01*
X173667Y292939D01*
X173640Y292932D01*
X173612Y292935D01*
X173573Y292915D01*
X173531Y292904D01*
X173513Y292883D01*
X173488Y292870D01*
X173442Y292811D01*
X172682Y291450D01*
X172680Y291439D01*
X172662Y291403D01*
X172193Y289916D01*
X172193Y289906D01*
X172183Y289867D01*
X172025Y288315D01*
X172027Y288305D01*
X172025Y288265D01*
X172183Y286713D01*
X172187Y286704D01*
X172193Y286664D01*
X172662Y285177D01*
X172668Y285168D01*
X172682Y285130D01*
X173442Y283769D01*
X173462Y283749D01*
X173474Y283724D01*
X173511Y283701D01*
X173542Y283670D01*
X173569Y283665D01*
X173593Y283650D01*
X173636Y283650D01*
X173679Y283641D01*
X173705Y283651D01*
G37*
G36*
X186720Y283648D02*
X186720Y283648D01*
X186748Y283645D01*
X186787Y283665D01*
X186829Y283677D01*
X186847Y283697D01*
X186872Y283710D01*
X186918Y283769D01*
X187678Y285130D01*
X187680Y285141D01*
X187698Y285177D01*
X188167Y286664D01*
X188167Y286674D01*
X188177Y286713D01*
X188335Y288265D01*
X188333Y288275D01*
X188335Y288315D01*
X188177Y289867D01*
X188173Y289876D01*
X188167Y289916D01*
X187698Y291403D01*
X187692Y291412D01*
X187678Y291450D01*
X186918Y292811D01*
X186898Y292831D01*
X186886Y292856D01*
X186849Y292879D01*
X186818Y292910D01*
X186791Y292915D01*
X186767Y292930D01*
X186724Y292930D01*
X186681Y292939D01*
X186655Y292929D01*
X186627Y292928D01*
X186560Y292896D01*
X184490Y291496D01*
X184486Y291492D01*
X184480Y291489D01*
X184442Y291438D01*
X184401Y291389D01*
X184400Y291383D01*
X184397Y291378D01*
X184392Y291314D01*
X184384Y291250D01*
X184387Y291244D01*
X184386Y291238D01*
X184412Y291169D01*
X184918Y290262D01*
X185222Y289297D01*
X185325Y288290D01*
X185222Y287283D01*
X184918Y286318D01*
X184412Y285411D01*
X184411Y285405D01*
X184407Y285401D01*
X184395Y285338D01*
X184381Y285275D01*
X184383Y285269D01*
X184382Y285263D01*
X184407Y285204D01*
X184428Y285144D01*
X184433Y285140D01*
X184436Y285134D01*
X184490Y285084D01*
X186560Y283684D01*
X186587Y283675D01*
X186609Y283658D01*
X186652Y283654D01*
X186693Y283641D01*
X186720Y283648D01*
G37*
D10*
X387350Y167250D03*
X387350Y150250D03*
X457200Y150250D03*
X457200Y167250D03*
X406400Y150250D03*
X406400Y167250D03*
D11*
X160900Y241300D03*
X143900Y241300D03*
X160900Y165100D03*
X143900Y165100D03*
D10*
X168910Y33900D03*
X168910Y16900D03*
X138430Y279790D03*
X138430Y296790D03*
X138430Y345050D03*
X138430Y328050D03*
X152400Y345050D03*
X152400Y328050D03*
D11*
X461400Y76200D03*
X478400Y76200D03*
X478400Y127000D03*
X461400Y127000D03*
D10*
X373380Y167250D03*
X373380Y150250D03*
X359410Y167250D03*
X359410Y150250D03*
D11*
G36*
X874886Y94557D02*
X882663Y102334D01*
X889734Y95263D01*
X881957Y87486D01*
X874886Y94557D01*
G37*
G36*
X862866Y82537D02*
X870643Y90314D01*
X877714Y83243D01*
X869937Y75466D01*
X862866Y82537D01*
G37*
X122800Y137160D03*
X105800Y137160D03*
D10*
X62230Y33900D03*
X62230Y16900D03*
D11*
X122800Y151130D03*
X105800Y151130D03*
D10*
X76200Y33900D03*
X76200Y16900D03*
X127000Y33900D03*
X127000Y16900D03*
D12*
X236030Y185730D02*
X236030Y192730D01*
X236030Y185730D02*
X229030Y185730D01*
X229030Y192730D01*
X236030Y192730D01*
X236030Y188580D02*
X229030Y188580D01*
X229030Y191430D02*
X236030Y191430D01*
X253570Y192730D02*
X253570Y185730D01*
X246570Y185730D01*
X246570Y192730D01*
X253570Y192730D01*
X253570Y188580D02*
X246570Y188580D01*
X246570Y191430D02*
X253570Y191430D01*
X236030Y199700D02*
X236030Y206700D01*
X236030Y199700D02*
X229030Y199700D01*
X229030Y206700D01*
X236030Y206700D01*
X236030Y202550D02*
X229030Y202550D01*
X229030Y205400D02*
X236030Y205400D01*
X253570Y206700D02*
X253570Y199700D01*
X246570Y199700D01*
X246570Y206700D01*
X253570Y206700D01*
X253570Y202550D02*
X246570Y202550D01*
X246570Y205400D02*
X253570Y205400D01*
X236030Y213670D02*
X236030Y220670D01*
X236030Y213670D02*
X229030Y213670D01*
X229030Y220670D01*
X236030Y220670D01*
X236030Y216520D02*
X229030Y216520D01*
X229030Y219370D02*
X236030Y219370D01*
X253570Y220670D02*
X253570Y213670D01*
X246570Y213670D01*
X246570Y220670D01*
X253570Y220670D01*
X253570Y216520D02*
X246570Y216520D01*
X246570Y219370D02*
X253570Y219370D01*
X236030Y237800D02*
X236030Y244800D01*
X236030Y237800D02*
X229030Y237800D01*
X229030Y244800D01*
X236030Y244800D01*
X236030Y240650D02*
X229030Y240650D01*
X229030Y243500D02*
X236030Y243500D01*
X253570Y244800D02*
X253570Y237800D01*
X246570Y237800D01*
X246570Y244800D01*
X253570Y244800D01*
X253570Y240650D02*
X246570Y240650D01*
X246570Y243500D02*
X253570Y243500D01*
X236030Y168600D02*
X236030Y161600D01*
X229030Y161600D01*
X229030Y168600D01*
X236030Y168600D01*
X236030Y164450D02*
X229030Y164450D01*
X229030Y167300D02*
X236030Y167300D01*
X253570Y168600D02*
X253570Y161600D01*
X246570Y161600D01*
X246570Y168600D01*
X253570Y168600D01*
X253570Y164450D02*
X246570Y164450D01*
X246570Y167300D02*
X253570Y167300D01*
D13*
X114060Y208200D03*
D14*
X113810Y203200D03*
X113810Y198200D03*
X122410Y198200D03*
X122410Y203200D03*
X122410Y208200D03*
D15*
X167180Y297290D03*
X157180Y297290D03*
X157180Y279290D03*
X167180Y279290D03*
D16*
X186680Y288290D03*
D17*
X180180Y281790D03*
X180180Y294790D03*
D16*
X173680Y288290D03*
D18*
X85500Y195700D03*
X85500Y200700D03*
D19*
X85500Y170950D03*
X85500Y178700D03*
D18*
X85500Y185700D03*
X85500Y190700D03*
X85500Y210700D03*
X85500Y205700D03*
D19*
X85500Y235450D03*
X85500Y227700D03*
D18*
X85500Y220700D03*
X85500Y215700D03*
D20*
X39450Y345500D03*
X39450Y289500D03*
D21*
X76200Y332500D03*
X76200Y322500D03*
X76200Y312500D03*
X76200Y302500D03*
D22*
X463900Y49400D03*
D23*
X338150Y36900D03*
D24*
X324900Y40400D03*
X487900Y40400D03*
D23*
X474650Y36900D03*
D22*
X458900Y49400D03*
X453900Y49400D03*
X448900Y49400D03*
X443900Y49400D03*
X438900Y49400D03*
X433900Y49400D03*
X428900Y49400D03*
X423900Y49400D03*
X418900Y49400D03*
X413900Y49400D03*
X408900Y49400D03*
X403900Y49400D03*
X398900Y49400D03*
X393900Y49400D03*
X388900Y49400D03*
X383900Y49400D03*
X378900Y49400D03*
X373900Y49400D03*
X368900Y49400D03*
X363900Y49400D03*
X358900Y49400D03*
X353900Y49400D03*
X348900Y49400D03*
D11*
X270900Y189230D03*
X287900Y189230D03*
D10*
X48260Y16900D03*
X48260Y33900D03*
D11*
G36*
X860916Y107257D02*
X868693Y115034D01*
X875764Y107963D01*
X867987Y100186D01*
X860916Y107257D01*
G37*
G36*
X848896Y95237D02*
X856673Y103014D01*
X863744Y95943D01*
X855967Y88166D01*
X848896Y95237D01*
G37*
X232800Y8890D03*
X249800Y8890D03*
D10*
X124460Y296790D03*
X124460Y279790D03*
X124460Y328050D03*
X124460Y345050D03*
D11*
X143900Y189230D03*
X160900Y189230D03*
X143900Y203200D03*
X160900Y203200D03*
X143900Y217170D03*
X160900Y217170D03*
D10*
X140970Y33900D03*
X140970Y16900D03*
D11*
X270900Y203200D03*
X287900Y203200D03*
D10*
X154940Y33900D03*
X154940Y16900D03*
D11*
X270900Y217170D03*
X287900Y217170D03*
X270900Y241300D03*
X287900Y241300D03*
X270900Y165100D03*
X287900Y165100D03*
X105800Y165100D03*
X122800Y165100D03*
X122800Y241300D03*
X105800Y241300D03*
D25*
X196850Y38100D03*
X196850Y63500D03*
X196850Y88900D03*
X196850Y114300D03*
X285750Y114300D03*
X285750Y88900D03*
X285750Y63500D03*
X285750Y38100D03*
D26*
G36*
X921500Y47944D02*
X915136Y54308D01*
X922206Y61378D01*
X928570Y55014D01*
X921500Y47944D01*
G37*
G36*
X910186Y36630D02*
X903822Y42994D01*
X910892Y50064D01*
X917256Y43700D01*
X910186Y36630D01*
G37*
G36*
X881194Y65622D02*
X874830Y71986D01*
X881900Y79056D01*
X888264Y72692D01*
X881194Y65622D01*
G37*
G36*
X892508Y76936D02*
X886144Y83300D01*
X893214Y90370D01*
X899578Y84006D01*
X892508Y76936D01*
G37*
D27*
X144500Y113900D03*
X139500Y113900D03*
X134500Y113900D03*
X129500Y113900D03*
X124500Y113900D03*
X119500Y113900D03*
X114500Y113900D03*
X109500Y113900D03*
D28*
X102000Y106400D03*
X102000Y101400D03*
X102000Y96400D03*
X102000Y91400D03*
X102000Y86400D03*
X102000Y81400D03*
X102000Y76400D03*
X102000Y71400D03*
D27*
X109500Y63900D03*
X114500Y63900D03*
X119500Y63900D03*
X124500Y63900D03*
X129500Y63900D03*
X134500Y63900D03*
X139500Y63900D03*
X144500Y63900D03*
D28*
X152000Y71400D03*
X152000Y76400D03*
X152000Y81400D03*
X152000Y86400D03*
X152000Y91400D03*
X152000Y96400D03*
X152000Y101400D03*
X152000Y106400D03*
D29*
X361400Y324400D03*
X369400Y319400D03*
X361400Y314400D03*
X369400Y309400D03*
X361400Y304400D03*
X369400Y299400D03*
X361400Y294400D03*
X369400Y289400D03*
X361400Y284400D03*
X369400Y279400D03*
X361400Y274400D03*
X369400Y269400D03*
X361400Y264400D03*
X369400Y259400D03*
X361400Y254400D03*
X369400Y249400D03*
X361400Y244400D03*
X369400Y239400D03*
X361400Y234400D03*
X369400Y229400D03*
X361400Y224400D03*
D30*
X361400Y214400D03*
D31*
X371400Y214400D03*
X376400Y222400D03*
X381400Y214400D03*
X386400Y222400D03*
X391400Y214400D03*
X396400Y222400D03*
X401400Y214400D03*
X406400Y222400D03*
X411400Y214400D03*
X416400Y222400D03*
X421400Y214400D03*
X426400Y222400D03*
X431400Y214400D03*
X436400Y222400D03*
X441400Y214400D03*
D30*
X451400Y214400D03*
D29*
X451400Y224400D03*
X443400Y229400D03*
X451400Y234400D03*
X443400Y239400D03*
X451400Y244400D03*
X443400Y249400D03*
X451400Y254400D03*
X443400Y259400D03*
X451400Y264400D03*
X443400Y269400D03*
X451400Y274400D03*
X443400Y279400D03*
X451400Y284400D03*
X443400Y289400D03*
X451400Y294400D03*
X443400Y299400D03*
X451400Y304400D03*
X443400Y309400D03*
X451400Y314400D03*
X443400Y319400D03*
X451400Y324400D03*
D32*
X186570Y334050D03*
X186570Y339050D03*
X171570Y339050D03*
X171570Y334050D03*
D33*
X171570Y329050D03*
X176570Y329050D03*
X186570Y329050D03*
X181570Y329050D03*
X186570Y344050D03*
X181570Y344050D03*
X176570Y344050D03*
X171570Y344050D03*
D34*
X456899Y111100D03*
X456899Y101600D03*
X456899Y92100D03*
X482901Y92100D03*
X482901Y111100D03*
D35*
X108700Y16860D03*
X108700Y33860D03*
X94700Y33860D03*
X94700Y16860D03*
D36*
X419300Y158750D03*
X444300Y158750D03*
D37*
X872500Y177800D03*
X872500Y228600D03*
X872500Y279400D03*
X905500Y152400D03*
X905500Y203200D03*
X905500Y254000D03*
X905500Y304800D03*
X905500Y330200D03*
X872500Y304800D03*
X905500Y279400D03*
X872500Y254000D03*
X905500Y228600D03*
X872500Y203200D03*
X905500Y177800D03*
X872500Y152400D03*
X872500Y330200D03*
D38*
X787400Y262900D03*
X736600Y262900D03*
X812800Y295900D03*
X762000Y295900D03*
X736600Y295900D03*
X762000Y262900D03*
X787400Y295900D03*
X812800Y262900D03*
X762000Y118100D03*
X812800Y118100D03*
X736600Y85100D03*
X787400Y85100D03*
X812800Y85100D03*
X787400Y118100D03*
X762000Y85100D03*
X736600Y118100D03*
X685800Y262900D03*
X635000Y262900D03*
X584200Y262900D03*
X711200Y295900D03*
X660400Y295900D03*
X609600Y295900D03*
X558800Y295900D03*
X533400Y295900D03*
X558800Y262900D03*
X584200Y295900D03*
X609600Y262900D03*
X635000Y295900D03*
X660400Y262900D03*
X685800Y295900D03*
X711200Y262900D03*
X533400Y262900D03*
X558800Y118100D03*
X609600Y118100D03*
X660400Y118100D03*
X533400Y85100D03*
X584200Y85100D03*
X635000Y85100D03*
X685800Y85100D03*
X711200Y85100D03*
X685800Y118100D03*
X660400Y85100D03*
X635000Y118100D03*
X609600Y85100D03*
X584200Y118100D03*
X558800Y85100D03*
X533400Y118100D03*
X711200Y118100D03*
M02*
