G04 EAGLE Gerber RS-274X export*
G75*
%MOMM*%
%FSLAX34Y34*%
%LPD*%
%IN*%
%IPPOS*%
%AMOC8*
5,1,8,0,0,1.08239X$1,22.5*%
G01*
%ADD10C,0.203200*%
%ADD11C,0.000000*%
%ADD12C,0.010000*%
%ADD13C,0.254000*%


D10*
X25400Y0D02*
X965200Y0D01*
X965200Y381000D01*
X25400Y381000D01*
X25400Y0D01*
D11*
X176180Y288290D02*
X176182Y288416D01*
X176188Y288542D01*
X176198Y288668D01*
X176212Y288794D01*
X176230Y288919D01*
X176252Y289043D01*
X176277Y289167D01*
X176307Y289290D01*
X176340Y289411D01*
X176378Y289532D01*
X176419Y289651D01*
X176464Y289770D01*
X176512Y289886D01*
X176564Y290001D01*
X176620Y290114D01*
X176680Y290226D01*
X176743Y290335D01*
X176809Y290443D01*
X176878Y290548D01*
X176951Y290651D01*
X177028Y290752D01*
X177107Y290850D01*
X177189Y290946D01*
X177275Y291039D01*
X177363Y291130D01*
X177454Y291217D01*
X177548Y291302D01*
X177644Y291383D01*
X177743Y291462D01*
X177844Y291537D01*
X177948Y291609D01*
X178054Y291678D01*
X178162Y291744D01*
X178272Y291806D01*
X178384Y291864D01*
X178497Y291919D01*
X178613Y291970D01*
X178730Y292018D01*
X178848Y292062D01*
X178968Y292102D01*
X179089Y292138D01*
X179211Y292171D01*
X179334Y292200D01*
X179458Y292224D01*
X179582Y292245D01*
X179707Y292262D01*
X179833Y292275D01*
X179959Y292284D01*
X180085Y292289D01*
X180212Y292290D01*
X180338Y292287D01*
X180464Y292280D01*
X180590Y292269D01*
X180715Y292254D01*
X180840Y292235D01*
X180964Y292212D01*
X181088Y292186D01*
X181210Y292155D01*
X181332Y292121D01*
X181452Y292082D01*
X181571Y292040D01*
X181689Y291995D01*
X181805Y291945D01*
X181920Y291892D01*
X182032Y291835D01*
X182143Y291775D01*
X182252Y291711D01*
X182359Y291644D01*
X182464Y291574D01*
X182567Y291500D01*
X182667Y291423D01*
X182765Y291343D01*
X182860Y291260D01*
X182952Y291174D01*
X183042Y291085D01*
X183129Y290993D01*
X183212Y290899D01*
X183293Y290802D01*
X183371Y290702D01*
X183446Y290600D01*
X183517Y290496D01*
X183585Y290389D01*
X183649Y290281D01*
X183710Y290170D01*
X183768Y290058D01*
X183822Y289944D01*
X183872Y289828D01*
X183919Y289711D01*
X183962Y289592D01*
X184001Y289472D01*
X184037Y289351D01*
X184068Y289228D01*
X184096Y289105D01*
X184120Y288981D01*
X184140Y288856D01*
X184156Y288731D01*
X184168Y288605D01*
X184176Y288479D01*
X184180Y288353D01*
X184180Y288227D01*
X184176Y288101D01*
X184168Y287975D01*
X184156Y287849D01*
X184140Y287724D01*
X184120Y287599D01*
X184096Y287475D01*
X184068Y287352D01*
X184037Y287229D01*
X184001Y287108D01*
X183962Y286988D01*
X183919Y286869D01*
X183872Y286752D01*
X183822Y286636D01*
X183768Y286522D01*
X183710Y286410D01*
X183649Y286299D01*
X183585Y286191D01*
X183517Y286084D01*
X183446Y285980D01*
X183371Y285878D01*
X183293Y285778D01*
X183212Y285681D01*
X183129Y285587D01*
X183042Y285495D01*
X182952Y285406D01*
X182860Y285320D01*
X182765Y285237D01*
X182667Y285157D01*
X182567Y285080D01*
X182464Y285006D01*
X182359Y284936D01*
X182252Y284869D01*
X182143Y284805D01*
X182032Y284745D01*
X181920Y284688D01*
X181805Y284635D01*
X181689Y284585D01*
X181571Y284540D01*
X181452Y284498D01*
X181332Y284459D01*
X181210Y284425D01*
X181088Y284394D01*
X180964Y284368D01*
X180840Y284345D01*
X180715Y284326D01*
X180590Y284311D01*
X180464Y284300D01*
X180338Y284293D01*
X180212Y284290D01*
X180085Y284291D01*
X179959Y284296D01*
X179833Y284305D01*
X179707Y284318D01*
X179582Y284335D01*
X179458Y284356D01*
X179334Y284380D01*
X179211Y284409D01*
X179089Y284442D01*
X178968Y284478D01*
X178848Y284518D01*
X178730Y284562D01*
X178613Y284610D01*
X178497Y284661D01*
X178384Y284716D01*
X178272Y284774D01*
X178162Y284836D01*
X178054Y284902D01*
X177948Y284971D01*
X177844Y285043D01*
X177743Y285118D01*
X177644Y285197D01*
X177548Y285278D01*
X177454Y285363D01*
X177363Y285450D01*
X177275Y285541D01*
X177189Y285634D01*
X177107Y285730D01*
X177028Y285828D01*
X176951Y285929D01*
X176878Y286032D01*
X176809Y286137D01*
X176743Y286245D01*
X176680Y286354D01*
X176620Y286466D01*
X176564Y286579D01*
X176512Y286694D01*
X176464Y286810D01*
X176419Y286929D01*
X176378Y287048D01*
X176340Y287169D01*
X176307Y287290D01*
X176277Y287413D01*
X176252Y287537D01*
X176230Y287661D01*
X176212Y287786D01*
X176198Y287912D01*
X176188Y288038D01*
X176182Y288164D01*
X176180Y288290D01*
X71200Y232100D02*
X71202Y232213D01*
X71208Y232327D01*
X71218Y232440D01*
X71232Y232552D01*
X71249Y232664D01*
X71271Y232776D01*
X71297Y232886D01*
X71326Y232996D01*
X71359Y233104D01*
X71396Y233212D01*
X71437Y233317D01*
X71481Y233422D01*
X71529Y233525D01*
X71580Y233626D01*
X71635Y233725D01*
X71694Y233822D01*
X71756Y233917D01*
X71821Y234010D01*
X71889Y234101D01*
X71960Y234189D01*
X72035Y234275D01*
X72112Y234358D01*
X72192Y234438D01*
X72275Y234515D01*
X72361Y234590D01*
X72449Y234661D01*
X72540Y234729D01*
X72633Y234794D01*
X72728Y234856D01*
X72825Y234915D01*
X72924Y234970D01*
X73025Y235021D01*
X73128Y235069D01*
X73233Y235113D01*
X73338Y235154D01*
X73446Y235191D01*
X73554Y235224D01*
X73664Y235253D01*
X73774Y235279D01*
X73886Y235301D01*
X73998Y235318D01*
X74110Y235332D01*
X74223Y235342D01*
X74337Y235348D01*
X74450Y235350D01*
X74563Y235348D01*
X74677Y235342D01*
X74790Y235332D01*
X74902Y235318D01*
X75014Y235301D01*
X75126Y235279D01*
X75236Y235253D01*
X75346Y235224D01*
X75454Y235191D01*
X75562Y235154D01*
X75667Y235113D01*
X75772Y235069D01*
X75875Y235021D01*
X75976Y234970D01*
X76075Y234915D01*
X76172Y234856D01*
X76267Y234794D01*
X76360Y234729D01*
X76451Y234661D01*
X76539Y234590D01*
X76625Y234515D01*
X76708Y234438D01*
X76788Y234358D01*
X76865Y234275D01*
X76940Y234189D01*
X77011Y234101D01*
X77079Y234010D01*
X77144Y233917D01*
X77206Y233822D01*
X77265Y233725D01*
X77320Y233626D01*
X77371Y233525D01*
X77419Y233422D01*
X77463Y233317D01*
X77504Y233212D01*
X77541Y233104D01*
X77574Y232996D01*
X77603Y232886D01*
X77629Y232776D01*
X77651Y232664D01*
X77668Y232552D01*
X77682Y232440D01*
X77692Y232327D01*
X77698Y232213D01*
X77700Y232100D01*
X77698Y231987D01*
X77692Y231873D01*
X77682Y231760D01*
X77668Y231648D01*
X77651Y231536D01*
X77629Y231424D01*
X77603Y231314D01*
X77574Y231204D01*
X77541Y231096D01*
X77504Y230988D01*
X77463Y230883D01*
X77419Y230778D01*
X77371Y230675D01*
X77320Y230574D01*
X77265Y230475D01*
X77206Y230378D01*
X77144Y230283D01*
X77079Y230190D01*
X77011Y230099D01*
X76940Y230011D01*
X76865Y229925D01*
X76788Y229842D01*
X76708Y229762D01*
X76625Y229685D01*
X76539Y229610D01*
X76451Y229539D01*
X76360Y229471D01*
X76267Y229406D01*
X76172Y229344D01*
X76075Y229285D01*
X75976Y229230D01*
X75875Y229179D01*
X75772Y229131D01*
X75667Y229087D01*
X75562Y229046D01*
X75454Y229009D01*
X75346Y228976D01*
X75236Y228947D01*
X75126Y228921D01*
X75014Y228899D01*
X74902Y228882D01*
X74790Y228868D01*
X74677Y228858D01*
X74563Y228852D01*
X74450Y228850D01*
X74337Y228852D01*
X74223Y228858D01*
X74110Y228868D01*
X73998Y228882D01*
X73886Y228899D01*
X73774Y228921D01*
X73664Y228947D01*
X73554Y228976D01*
X73446Y229009D01*
X73338Y229046D01*
X73233Y229087D01*
X73128Y229131D01*
X73025Y229179D01*
X72924Y229230D01*
X72825Y229285D01*
X72728Y229344D01*
X72633Y229406D01*
X72540Y229471D01*
X72449Y229539D01*
X72361Y229610D01*
X72275Y229685D01*
X72192Y229762D01*
X72112Y229842D01*
X72035Y229925D01*
X71960Y230011D01*
X71889Y230099D01*
X71821Y230190D01*
X71756Y230283D01*
X71694Y230378D01*
X71635Y230475D01*
X71580Y230574D01*
X71529Y230675D01*
X71481Y230778D01*
X71437Y230883D01*
X71396Y230988D01*
X71359Y231096D01*
X71326Y231204D01*
X71297Y231314D01*
X71271Y231424D01*
X71249Y231536D01*
X71232Y231648D01*
X71218Y231760D01*
X71208Y231873D01*
X71202Y231987D01*
X71200Y232100D01*
X71200Y174300D02*
X71202Y174413D01*
X71208Y174527D01*
X71218Y174640D01*
X71232Y174752D01*
X71249Y174864D01*
X71271Y174976D01*
X71297Y175086D01*
X71326Y175196D01*
X71359Y175304D01*
X71396Y175412D01*
X71437Y175517D01*
X71481Y175622D01*
X71529Y175725D01*
X71580Y175826D01*
X71635Y175925D01*
X71694Y176022D01*
X71756Y176117D01*
X71821Y176210D01*
X71889Y176301D01*
X71960Y176389D01*
X72035Y176475D01*
X72112Y176558D01*
X72192Y176638D01*
X72275Y176715D01*
X72361Y176790D01*
X72449Y176861D01*
X72540Y176929D01*
X72633Y176994D01*
X72728Y177056D01*
X72825Y177115D01*
X72924Y177170D01*
X73025Y177221D01*
X73128Y177269D01*
X73233Y177313D01*
X73338Y177354D01*
X73446Y177391D01*
X73554Y177424D01*
X73664Y177453D01*
X73774Y177479D01*
X73886Y177501D01*
X73998Y177518D01*
X74110Y177532D01*
X74223Y177542D01*
X74337Y177548D01*
X74450Y177550D01*
X74563Y177548D01*
X74677Y177542D01*
X74790Y177532D01*
X74902Y177518D01*
X75014Y177501D01*
X75126Y177479D01*
X75236Y177453D01*
X75346Y177424D01*
X75454Y177391D01*
X75562Y177354D01*
X75667Y177313D01*
X75772Y177269D01*
X75875Y177221D01*
X75976Y177170D01*
X76075Y177115D01*
X76172Y177056D01*
X76267Y176994D01*
X76360Y176929D01*
X76451Y176861D01*
X76539Y176790D01*
X76625Y176715D01*
X76708Y176638D01*
X76788Y176558D01*
X76865Y176475D01*
X76940Y176389D01*
X77011Y176301D01*
X77079Y176210D01*
X77144Y176117D01*
X77206Y176022D01*
X77265Y175925D01*
X77320Y175826D01*
X77371Y175725D01*
X77419Y175622D01*
X77463Y175517D01*
X77504Y175412D01*
X77541Y175304D01*
X77574Y175196D01*
X77603Y175086D01*
X77629Y174976D01*
X77651Y174864D01*
X77668Y174752D01*
X77682Y174640D01*
X77692Y174527D01*
X77698Y174413D01*
X77700Y174300D01*
X77698Y174187D01*
X77692Y174073D01*
X77682Y173960D01*
X77668Y173848D01*
X77651Y173736D01*
X77629Y173624D01*
X77603Y173514D01*
X77574Y173404D01*
X77541Y173296D01*
X77504Y173188D01*
X77463Y173083D01*
X77419Y172978D01*
X77371Y172875D01*
X77320Y172774D01*
X77265Y172675D01*
X77206Y172578D01*
X77144Y172483D01*
X77079Y172390D01*
X77011Y172299D01*
X76940Y172211D01*
X76865Y172125D01*
X76788Y172042D01*
X76708Y171962D01*
X76625Y171885D01*
X76539Y171810D01*
X76451Y171739D01*
X76360Y171671D01*
X76267Y171606D01*
X76172Y171544D01*
X76075Y171485D01*
X75976Y171430D01*
X75875Y171379D01*
X75772Y171331D01*
X75667Y171287D01*
X75562Y171246D01*
X75454Y171209D01*
X75346Y171176D01*
X75236Y171147D01*
X75126Y171121D01*
X75014Y171099D01*
X74902Y171082D01*
X74790Y171068D01*
X74677Y171058D01*
X74563Y171052D01*
X74450Y171050D01*
X74337Y171052D01*
X74223Y171058D01*
X74110Y171068D01*
X73998Y171082D01*
X73886Y171099D01*
X73774Y171121D01*
X73664Y171147D01*
X73554Y171176D01*
X73446Y171209D01*
X73338Y171246D01*
X73233Y171287D01*
X73128Y171331D01*
X73025Y171379D01*
X72924Y171430D01*
X72825Y171485D01*
X72728Y171544D01*
X72633Y171606D01*
X72540Y171671D01*
X72449Y171739D01*
X72361Y171810D01*
X72275Y171885D01*
X72192Y171962D01*
X72112Y172042D01*
X72035Y172125D01*
X71960Y172211D01*
X71889Y172299D01*
X71821Y172390D01*
X71756Y172483D01*
X71694Y172578D01*
X71635Y172675D01*
X71580Y172774D01*
X71529Y172875D01*
X71481Y172978D01*
X71437Y173083D01*
X71396Y173188D01*
X71359Y173296D01*
X71326Y173404D01*
X71297Y173514D01*
X71271Y173624D01*
X71249Y173736D01*
X71232Y173848D01*
X71218Y173960D01*
X71208Y174073D01*
X71202Y174187D01*
X71200Y174300D01*
D12*
X41100Y249400D02*
X34900Y249400D01*
X34900Y243400D02*
X41100Y243400D01*
X41208Y243402D01*
X41316Y243408D01*
X41424Y243418D01*
X41532Y243431D01*
X41639Y243449D01*
X41745Y243470D01*
X41850Y243495D01*
X41955Y243524D01*
X42058Y243557D01*
X42160Y243593D01*
X42261Y243634D01*
X42360Y243677D01*
X42457Y243725D01*
X42553Y243775D01*
X42647Y243829D01*
X42738Y243887D01*
X42828Y243948D01*
X42916Y244012D01*
X43001Y244079D01*
X43083Y244149D01*
X43163Y244222D01*
X43240Y244298D01*
X43315Y244377D01*
X43386Y244458D01*
X43455Y244542D01*
X43521Y244628D01*
X43583Y244716D01*
X43642Y244807D01*
X43698Y244900D01*
X43751Y244995D01*
X43800Y245091D01*
X43845Y245190D01*
X43887Y245290D01*
X43925Y245391D01*
X43960Y245494D01*
X43991Y245597D01*
X44018Y245702D01*
X44041Y245808D01*
X44060Y245915D01*
X44076Y246022D01*
X44088Y246130D01*
X44096Y246238D01*
X44100Y246346D01*
X44100Y246454D01*
X44096Y246562D01*
X44088Y246670D01*
X44076Y246778D01*
X44060Y246885D01*
X44041Y246992D01*
X44018Y247098D01*
X43991Y247203D01*
X43960Y247306D01*
X43925Y247409D01*
X43887Y247510D01*
X43845Y247610D01*
X43800Y247709D01*
X43751Y247805D01*
X43698Y247900D01*
X43642Y247993D01*
X43583Y248084D01*
X43521Y248172D01*
X43455Y248258D01*
X43386Y248342D01*
X43315Y248423D01*
X43240Y248502D01*
X43163Y248578D01*
X43083Y248651D01*
X43001Y248721D01*
X42916Y248788D01*
X42828Y248852D01*
X42738Y248913D01*
X42647Y248971D01*
X42553Y249025D01*
X42457Y249075D01*
X42360Y249123D01*
X42261Y249166D01*
X42160Y249207D01*
X42058Y249243D01*
X41955Y249276D01*
X41850Y249305D01*
X41745Y249330D01*
X41639Y249351D01*
X41532Y249369D01*
X41424Y249382D01*
X41316Y249392D01*
X41208Y249398D01*
X41100Y249400D01*
X34900Y249400D02*
X34792Y249398D01*
X34684Y249392D01*
X34576Y249382D01*
X34468Y249369D01*
X34361Y249351D01*
X34255Y249330D01*
X34150Y249305D01*
X34045Y249276D01*
X33942Y249243D01*
X33840Y249207D01*
X33739Y249166D01*
X33640Y249123D01*
X33543Y249075D01*
X33447Y249025D01*
X33353Y248971D01*
X33262Y248913D01*
X33172Y248852D01*
X33084Y248788D01*
X32999Y248721D01*
X32917Y248651D01*
X32837Y248578D01*
X32760Y248502D01*
X32685Y248423D01*
X32614Y248342D01*
X32545Y248258D01*
X32479Y248172D01*
X32417Y248084D01*
X32358Y247993D01*
X32302Y247900D01*
X32249Y247805D01*
X32200Y247709D01*
X32155Y247610D01*
X32113Y247510D01*
X32075Y247409D01*
X32040Y247306D01*
X32009Y247203D01*
X31982Y247098D01*
X31959Y246992D01*
X31940Y246885D01*
X31924Y246778D01*
X31912Y246670D01*
X31904Y246562D01*
X31900Y246454D01*
X31900Y246346D01*
X31904Y246238D01*
X31912Y246130D01*
X31924Y246022D01*
X31940Y245915D01*
X31959Y245808D01*
X31982Y245702D01*
X32009Y245597D01*
X32040Y245494D01*
X32075Y245391D01*
X32113Y245290D01*
X32155Y245190D01*
X32200Y245091D01*
X32249Y244995D01*
X32302Y244900D01*
X32358Y244807D01*
X32417Y244716D01*
X32479Y244628D01*
X32545Y244542D01*
X32614Y244458D01*
X32685Y244377D01*
X32760Y244298D01*
X32837Y244222D01*
X32917Y244149D01*
X32999Y244079D01*
X33084Y244012D01*
X33172Y243948D01*
X33262Y243887D01*
X33353Y243829D01*
X33447Y243775D01*
X33543Y243725D01*
X33640Y243677D01*
X33739Y243634D01*
X33840Y243593D01*
X33942Y243557D01*
X34045Y243524D01*
X34150Y243495D01*
X34255Y243470D01*
X34361Y243449D01*
X34468Y243431D01*
X34576Y243418D01*
X34684Y243408D01*
X34792Y243402D01*
X34900Y243400D01*
X74250Y249400D02*
X85250Y249400D01*
X85250Y243400D02*
X74250Y243400D01*
X74142Y243402D01*
X74034Y243408D01*
X73926Y243418D01*
X73818Y243431D01*
X73711Y243449D01*
X73605Y243470D01*
X73500Y243495D01*
X73395Y243524D01*
X73292Y243557D01*
X73190Y243593D01*
X73089Y243634D01*
X72990Y243677D01*
X72893Y243725D01*
X72797Y243775D01*
X72703Y243829D01*
X72612Y243887D01*
X72522Y243948D01*
X72434Y244012D01*
X72349Y244079D01*
X72267Y244149D01*
X72187Y244222D01*
X72110Y244298D01*
X72035Y244377D01*
X71964Y244458D01*
X71895Y244542D01*
X71829Y244628D01*
X71767Y244716D01*
X71708Y244807D01*
X71652Y244900D01*
X71599Y244995D01*
X71550Y245091D01*
X71505Y245190D01*
X71463Y245290D01*
X71425Y245391D01*
X71390Y245494D01*
X71359Y245597D01*
X71332Y245702D01*
X71309Y245808D01*
X71290Y245915D01*
X71274Y246022D01*
X71262Y246130D01*
X71254Y246238D01*
X71250Y246346D01*
X71250Y246454D01*
X71254Y246562D01*
X71262Y246670D01*
X71274Y246778D01*
X71290Y246885D01*
X71309Y246992D01*
X71332Y247098D01*
X71359Y247203D01*
X71390Y247306D01*
X71425Y247409D01*
X71463Y247510D01*
X71505Y247610D01*
X71550Y247709D01*
X71599Y247805D01*
X71652Y247900D01*
X71708Y247993D01*
X71767Y248084D01*
X71829Y248172D01*
X71895Y248258D01*
X71964Y248342D01*
X72035Y248423D01*
X72110Y248502D01*
X72187Y248578D01*
X72267Y248651D01*
X72349Y248721D01*
X72434Y248788D01*
X72522Y248852D01*
X72612Y248913D01*
X72703Y248971D01*
X72797Y249025D01*
X72893Y249075D01*
X72990Y249123D01*
X73089Y249166D01*
X73190Y249207D01*
X73292Y249243D01*
X73395Y249276D01*
X73500Y249305D01*
X73605Y249330D01*
X73711Y249351D01*
X73818Y249369D01*
X73926Y249382D01*
X74034Y249392D01*
X74142Y249398D01*
X74250Y249400D01*
X85250Y249400D02*
X85358Y249398D01*
X85466Y249392D01*
X85574Y249382D01*
X85682Y249369D01*
X85789Y249351D01*
X85895Y249330D01*
X86000Y249305D01*
X86105Y249276D01*
X86208Y249243D01*
X86310Y249207D01*
X86411Y249166D01*
X86510Y249123D01*
X86607Y249075D01*
X86703Y249025D01*
X86797Y248971D01*
X86888Y248913D01*
X86978Y248852D01*
X87066Y248788D01*
X87151Y248721D01*
X87233Y248651D01*
X87313Y248578D01*
X87390Y248502D01*
X87465Y248423D01*
X87536Y248342D01*
X87605Y248258D01*
X87671Y248172D01*
X87733Y248084D01*
X87792Y247993D01*
X87848Y247900D01*
X87901Y247805D01*
X87950Y247709D01*
X87995Y247610D01*
X88037Y247510D01*
X88075Y247409D01*
X88110Y247306D01*
X88141Y247203D01*
X88168Y247098D01*
X88191Y246992D01*
X88210Y246885D01*
X88226Y246778D01*
X88238Y246670D01*
X88246Y246562D01*
X88250Y246454D01*
X88250Y246346D01*
X88246Y246238D01*
X88238Y246130D01*
X88226Y246022D01*
X88210Y245915D01*
X88191Y245808D01*
X88168Y245702D01*
X88141Y245597D01*
X88110Y245494D01*
X88075Y245391D01*
X88037Y245290D01*
X87995Y245190D01*
X87950Y245091D01*
X87901Y244995D01*
X87848Y244900D01*
X87792Y244807D01*
X87733Y244716D01*
X87671Y244628D01*
X87605Y244542D01*
X87536Y244458D01*
X87465Y244377D01*
X87390Y244298D01*
X87313Y244222D01*
X87233Y244149D01*
X87151Y244079D01*
X87066Y244012D01*
X86978Y243948D01*
X86888Y243887D01*
X86797Y243829D01*
X86703Y243775D01*
X86607Y243725D01*
X86510Y243677D01*
X86411Y243634D01*
X86310Y243593D01*
X86208Y243557D01*
X86105Y243524D01*
X86000Y243495D01*
X85895Y243470D01*
X85789Y243449D01*
X85682Y243431D01*
X85574Y243418D01*
X85466Y243408D01*
X85358Y243402D01*
X85250Y243400D01*
X41100Y163000D02*
X34900Y163000D01*
X34900Y157000D02*
X41100Y157000D01*
X41208Y157002D01*
X41316Y157008D01*
X41424Y157018D01*
X41532Y157031D01*
X41639Y157049D01*
X41745Y157070D01*
X41850Y157095D01*
X41955Y157124D01*
X42058Y157157D01*
X42160Y157193D01*
X42261Y157234D01*
X42360Y157277D01*
X42457Y157325D01*
X42553Y157375D01*
X42647Y157429D01*
X42738Y157487D01*
X42828Y157548D01*
X42916Y157612D01*
X43001Y157679D01*
X43083Y157749D01*
X43163Y157822D01*
X43240Y157898D01*
X43315Y157977D01*
X43386Y158058D01*
X43455Y158142D01*
X43521Y158228D01*
X43583Y158316D01*
X43642Y158407D01*
X43698Y158500D01*
X43751Y158595D01*
X43800Y158691D01*
X43845Y158790D01*
X43887Y158890D01*
X43925Y158991D01*
X43960Y159094D01*
X43991Y159197D01*
X44018Y159302D01*
X44041Y159408D01*
X44060Y159515D01*
X44076Y159622D01*
X44088Y159730D01*
X44096Y159838D01*
X44100Y159946D01*
X44100Y160054D01*
X44096Y160162D01*
X44088Y160270D01*
X44076Y160378D01*
X44060Y160485D01*
X44041Y160592D01*
X44018Y160698D01*
X43991Y160803D01*
X43960Y160906D01*
X43925Y161009D01*
X43887Y161110D01*
X43845Y161210D01*
X43800Y161309D01*
X43751Y161405D01*
X43698Y161500D01*
X43642Y161593D01*
X43583Y161684D01*
X43521Y161772D01*
X43455Y161858D01*
X43386Y161942D01*
X43315Y162023D01*
X43240Y162102D01*
X43163Y162178D01*
X43083Y162251D01*
X43001Y162321D01*
X42916Y162388D01*
X42828Y162452D01*
X42738Y162513D01*
X42647Y162571D01*
X42553Y162625D01*
X42457Y162675D01*
X42360Y162723D01*
X42261Y162766D01*
X42160Y162807D01*
X42058Y162843D01*
X41955Y162876D01*
X41850Y162905D01*
X41745Y162930D01*
X41639Y162951D01*
X41532Y162969D01*
X41424Y162982D01*
X41316Y162992D01*
X41208Y162998D01*
X41100Y163000D01*
X34900Y163000D02*
X34792Y162998D01*
X34684Y162992D01*
X34576Y162982D01*
X34468Y162969D01*
X34361Y162951D01*
X34255Y162930D01*
X34150Y162905D01*
X34045Y162876D01*
X33942Y162843D01*
X33840Y162807D01*
X33739Y162766D01*
X33640Y162723D01*
X33543Y162675D01*
X33447Y162625D01*
X33353Y162571D01*
X33262Y162513D01*
X33172Y162452D01*
X33084Y162388D01*
X32999Y162321D01*
X32917Y162251D01*
X32837Y162178D01*
X32760Y162102D01*
X32685Y162023D01*
X32614Y161942D01*
X32545Y161858D01*
X32479Y161772D01*
X32417Y161684D01*
X32358Y161593D01*
X32302Y161500D01*
X32249Y161405D01*
X32200Y161309D01*
X32155Y161210D01*
X32113Y161110D01*
X32075Y161009D01*
X32040Y160906D01*
X32009Y160803D01*
X31982Y160698D01*
X31959Y160592D01*
X31940Y160485D01*
X31924Y160378D01*
X31912Y160270D01*
X31904Y160162D01*
X31900Y160054D01*
X31900Y159946D01*
X31904Y159838D01*
X31912Y159730D01*
X31924Y159622D01*
X31940Y159515D01*
X31959Y159408D01*
X31982Y159302D01*
X32009Y159197D01*
X32040Y159094D01*
X32075Y158991D01*
X32113Y158890D01*
X32155Y158790D01*
X32200Y158691D01*
X32249Y158595D01*
X32302Y158500D01*
X32358Y158407D01*
X32417Y158316D01*
X32479Y158228D01*
X32545Y158142D01*
X32614Y158058D01*
X32685Y157977D01*
X32760Y157898D01*
X32837Y157822D01*
X32917Y157749D01*
X32999Y157679D01*
X33084Y157612D01*
X33172Y157548D01*
X33262Y157487D01*
X33353Y157429D01*
X33447Y157375D01*
X33543Y157325D01*
X33640Y157277D01*
X33739Y157234D01*
X33840Y157193D01*
X33942Y157157D01*
X34045Y157124D01*
X34150Y157095D01*
X34255Y157070D01*
X34361Y157049D01*
X34468Y157031D01*
X34576Y157018D01*
X34684Y157008D01*
X34792Y157002D01*
X34900Y157000D01*
X74250Y163000D02*
X85250Y163000D01*
X85250Y157000D02*
X74250Y157000D01*
X74142Y157002D01*
X74034Y157008D01*
X73926Y157018D01*
X73818Y157031D01*
X73711Y157049D01*
X73605Y157070D01*
X73500Y157095D01*
X73395Y157124D01*
X73292Y157157D01*
X73190Y157193D01*
X73089Y157234D01*
X72990Y157277D01*
X72893Y157325D01*
X72797Y157375D01*
X72703Y157429D01*
X72612Y157487D01*
X72522Y157548D01*
X72434Y157612D01*
X72349Y157679D01*
X72267Y157749D01*
X72187Y157822D01*
X72110Y157898D01*
X72035Y157977D01*
X71964Y158058D01*
X71895Y158142D01*
X71829Y158228D01*
X71767Y158316D01*
X71708Y158407D01*
X71652Y158500D01*
X71599Y158595D01*
X71550Y158691D01*
X71505Y158790D01*
X71463Y158890D01*
X71425Y158991D01*
X71390Y159094D01*
X71359Y159197D01*
X71332Y159302D01*
X71309Y159408D01*
X71290Y159515D01*
X71274Y159622D01*
X71262Y159730D01*
X71254Y159838D01*
X71250Y159946D01*
X71250Y160054D01*
X71254Y160162D01*
X71262Y160270D01*
X71274Y160378D01*
X71290Y160485D01*
X71309Y160592D01*
X71332Y160698D01*
X71359Y160803D01*
X71390Y160906D01*
X71425Y161009D01*
X71463Y161110D01*
X71505Y161210D01*
X71550Y161309D01*
X71599Y161405D01*
X71652Y161500D01*
X71708Y161593D01*
X71767Y161684D01*
X71829Y161772D01*
X71895Y161858D01*
X71964Y161942D01*
X72035Y162023D01*
X72110Y162102D01*
X72187Y162178D01*
X72267Y162251D01*
X72349Y162321D01*
X72434Y162388D01*
X72522Y162452D01*
X72612Y162513D01*
X72703Y162571D01*
X72797Y162625D01*
X72893Y162675D01*
X72990Y162723D01*
X73089Y162766D01*
X73190Y162807D01*
X73292Y162843D01*
X73395Y162876D01*
X73500Y162905D01*
X73605Y162930D01*
X73711Y162951D01*
X73818Y162969D01*
X73926Y162982D01*
X74034Y162992D01*
X74142Y162998D01*
X74250Y163000D01*
X85250Y163000D02*
X85358Y162998D01*
X85466Y162992D01*
X85574Y162982D01*
X85682Y162969D01*
X85789Y162951D01*
X85895Y162930D01*
X86000Y162905D01*
X86105Y162876D01*
X86208Y162843D01*
X86310Y162807D01*
X86411Y162766D01*
X86510Y162723D01*
X86607Y162675D01*
X86703Y162625D01*
X86797Y162571D01*
X86888Y162513D01*
X86978Y162452D01*
X87066Y162388D01*
X87151Y162321D01*
X87233Y162251D01*
X87313Y162178D01*
X87390Y162102D01*
X87465Y162023D01*
X87536Y161942D01*
X87605Y161858D01*
X87671Y161772D01*
X87733Y161684D01*
X87792Y161593D01*
X87848Y161500D01*
X87901Y161405D01*
X87950Y161309D01*
X87995Y161210D01*
X88037Y161110D01*
X88075Y161009D01*
X88110Y160906D01*
X88141Y160803D01*
X88168Y160698D01*
X88191Y160592D01*
X88210Y160485D01*
X88226Y160378D01*
X88238Y160270D01*
X88246Y160162D01*
X88250Y160054D01*
X88250Y159946D01*
X88246Y159838D01*
X88238Y159730D01*
X88226Y159622D01*
X88210Y159515D01*
X88191Y159408D01*
X88168Y159302D01*
X88141Y159197D01*
X88110Y159094D01*
X88075Y158991D01*
X88037Y158890D01*
X87995Y158790D01*
X87950Y158691D01*
X87901Y158595D01*
X87848Y158500D01*
X87792Y158407D01*
X87733Y158316D01*
X87671Y158228D01*
X87605Y158142D01*
X87536Y158058D01*
X87465Y157977D01*
X87390Y157898D01*
X87313Y157822D01*
X87233Y157749D01*
X87151Y157679D01*
X87066Y157612D01*
X86978Y157548D01*
X86888Y157487D01*
X86797Y157429D01*
X86703Y157375D01*
X86607Y157325D01*
X86510Y157277D01*
X86411Y157234D01*
X86310Y157193D01*
X86208Y157157D01*
X86105Y157124D01*
X86000Y157095D01*
X85895Y157070D01*
X85789Y157049D01*
X85682Y157031D01*
X85574Y157018D01*
X85466Y157008D01*
X85358Y157002D01*
X85250Y157000D01*
X41100Y249400D02*
X34900Y249400D01*
X34900Y243400D02*
X41100Y243400D01*
X41208Y243402D01*
X41316Y243408D01*
X41424Y243418D01*
X41532Y243431D01*
X41639Y243449D01*
X41745Y243470D01*
X41850Y243495D01*
X41955Y243524D01*
X42058Y243557D01*
X42160Y243593D01*
X42261Y243634D01*
X42360Y243677D01*
X42457Y243725D01*
X42553Y243775D01*
X42647Y243829D01*
X42738Y243887D01*
X42828Y243948D01*
X42916Y244012D01*
X43001Y244079D01*
X43083Y244149D01*
X43163Y244222D01*
X43240Y244298D01*
X43315Y244377D01*
X43386Y244458D01*
X43455Y244542D01*
X43521Y244628D01*
X43583Y244716D01*
X43642Y244807D01*
X43698Y244900D01*
X43751Y244995D01*
X43800Y245091D01*
X43845Y245190D01*
X43887Y245290D01*
X43925Y245391D01*
X43960Y245494D01*
X43991Y245597D01*
X44018Y245702D01*
X44041Y245808D01*
X44060Y245915D01*
X44076Y246022D01*
X44088Y246130D01*
X44096Y246238D01*
X44100Y246346D01*
X44100Y246454D01*
X44096Y246562D01*
X44088Y246670D01*
X44076Y246778D01*
X44060Y246885D01*
X44041Y246992D01*
X44018Y247098D01*
X43991Y247203D01*
X43960Y247306D01*
X43925Y247409D01*
X43887Y247510D01*
X43845Y247610D01*
X43800Y247709D01*
X43751Y247805D01*
X43698Y247900D01*
X43642Y247993D01*
X43583Y248084D01*
X43521Y248172D01*
X43455Y248258D01*
X43386Y248342D01*
X43315Y248423D01*
X43240Y248502D01*
X43163Y248578D01*
X43083Y248651D01*
X43001Y248721D01*
X42916Y248788D01*
X42828Y248852D01*
X42738Y248913D01*
X42647Y248971D01*
X42553Y249025D01*
X42457Y249075D01*
X42360Y249123D01*
X42261Y249166D01*
X42160Y249207D01*
X42058Y249243D01*
X41955Y249276D01*
X41850Y249305D01*
X41745Y249330D01*
X41639Y249351D01*
X41532Y249369D01*
X41424Y249382D01*
X41316Y249392D01*
X41208Y249398D01*
X41100Y249400D01*
X34900Y249400D02*
X34792Y249398D01*
X34684Y249392D01*
X34576Y249382D01*
X34468Y249369D01*
X34361Y249351D01*
X34255Y249330D01*
X34150Y249305D01*
X34045Y249276D01*
X33942Y249243D01*
X33840Y249207D01*
X33739Y249166D01*
X33640Y249123D01*
X33543Y249075D01*
X33447Y249025D01*
X33353Y248971D01*
X33262Y248913D01*
X33172Y248852D01*
X33084Y248788D01*
X32999Y248721D01*
X32917Y248651D01*
X32837Y248578D01*
X32760Y248502D01*
X32685Y248423D01*
X32614Y248342D01*
X32545Y248258D01*
X32479Y248172D01*
X32417Y248084D01*
X32358Y247993D01*
X32302Y247900D01*
X32249Y247805D01*
X32200Y247709D01*
X32155Y247610D01*
X32113Y247510D01*
X32075Y247409D01*
X32040Y247306D01*
X32009Y247203D01*
X31982Y247098D01*
X31959Y246992D01*
X31940Y246885D01*
X31924Y246778D01*
X31912Y246670D01*
X31904Y246562D01*
X31900Y246454D01*
X31900Y246346D01*
X31904Y246238D01*
X31912Y246130D01*
X31924Y246022D01*
X31940Y245915D01*
X31959Y245808D01*
X31982Y245702D01*
X32009Y245597D01*
X32040Y245494D01*
X32075Y245391D01*
X32113Y245290D01*
X32155Y245190D01*
X32200Y245091D01*
X32249Y244995D01*
X32302Y244900D01*
X32358Y244807D01*
X32417Y244716D01*
X32479Y244628D01*
X32545Y244542D01*
X32614Y244458D01*
X32685Y244377D01*
X32760Y244298D01*
X32837Y244222D01*
X32917Y244149D01*
X32999Y244079D01*
X33084Y244012D01*
X33172Y243948D01*
X33262Y243887D01*
X33353Y243829D01*
X33447Y243775D01*
X33543Y243725D01*
X33640Y243677D01*
X33739Y243634D01*
X33840Y243593D01*
X33942Y243557D01*
X34045Y243524D01*
X34150Y243495D01*
X34255Y243470D01*
X34361Y243449D01*
X34468Y243431D01*
X34576Y243418D01*
X34684Y243408D01*
X34792Y243402D01*
X34900Y243400D01*
X74250Y249400D02*
X85250Y249400D01*
X85250Y243400D02*
X74250Y243400D01*
X74142Y243402D01*
X74034Y243408D01*
X73926Y243418D01*
X73818Y243431D01*
X73711Y243449D01*
X73605Y243470D01*
X73500Y243495D01*
X73395Y243524D01*
X73292Y243557D01*
X73190Y243593D01*
X73089Y243634D01*
X72990Y243677D01*
X72893Y243725D01*
X72797Y243775D01*
X72703Y243829D01*
X72612Y243887D01*
X72522Y243948D01*
X72434Y244012D01*
X72349Y244079D01*
X72267Y244149D01*
X72187Y244222D01*
X72110Y244298D01*
X72035Y244377D01*
X71964Y244458D01*
X71895Y244542D01*
X71829Y244628D01*
X71767Y244716D01*
X71708Y244807D01*
X71652Y244900D01*
X71599Y244995D01*
X71550Y245091D01*
X71505Y245190D01*
X71463Y245290D01*
X71425Y245391D01*
X71390Y245494D01*
X71359Y245597D01*
X71332Y245702D01*
X71309Y245808D01*
X71290Y245915D01*
X71274Y246022D01*
X71262Y246130D01*
X71254Y246238D01*
X71250Y246346D01*
X71250Y246454D01*
X71254Y246562D01*
X71262Y246670D01*
X71274Y246778D01*
X71290Y246885D01*
X71309Y246992D01*
X71332Y247098D01*
X71359Y247203D01*
X71390Y247306D01*
X71425Y247409D01*
X71463Y247510D01*
X71505Y247610D01*
X71550Y247709D01*
X71599Y247805D01*
X71652Y247900D01*
X71708Y247993D01*
X71767Y248084D01*
X71829Y248172D01*
X71895Y248258D01*
X71964Y248342D01*
X72035Y248423D01*
X72110Y248502D01*
X72187Y248578D01*
X72267Y248651D01*
X72349Y248721D01*
X72434Y248788D01*
X72522Y248852D01*
X72612Y248913D01*
X72703Y248971D01*
X72797Y249025D01*
X72893Y249075D01*
X72990Y249123D01*
X73089Y249166D01*
X73190Y249207D01*
X73292Y249243D01*
X73395Y249276D01*
X73500Y249305D01*
X73605Y249330D01*
X73711Y249351D01*
X73818Y249369D01*
X73926Y249382D01*
X74034Y249392D01*
X74142Y249398D01*
X74250Y249400D01*
X85250Y249400D02*
X85358Y249398D01*
X85466Y249392D01*
X85574Y249382D01*
X85682Y249369D01*
X85789Y249351D01*
X85895Y249330D01*
X86000Y249305D01*
X86105Y249276D01*
X86208Y249243D01*
X86310Y249207D01*
X86411Y249166D01*
X86510Y249123D01*
X86607Y249075D01*
X86703Y249025D01*
X86797Y248971D01*
X86888Y248913D01*
X86978Y248852D01*
X87066Y248788D01*
X87151Y248721D01*
X87233Y248651D01*
X87313Y248578D01*
X87390Y248502D01*
X87465Y248423D01*
X87536Y248342D01*
X87605Y248258D01*
X87671Y248172D01*
X87733Y248084D01*
X87792Y247993D01*
X87848Y247900D01*
X87901Y247805D01*
X87950Y247709D01*
X87995Y247610D01*
X88037Y247510D01*
X88075Y247409D01*
X88110Y247306D01*
X88141Y247203D01*
X88168Y247098D01*
X88191Y246992D01*
X88210Y246885D01*
X88226Y246778D01*
X88238Y246670D01*
X88246Y246562D01*
X88250Y246454D01*
X88250Y246346D01*
X88246Y246238D01*
X88238Y246130D01*
X88226Y246022D01*
X88210Y245915D01*
X88191Y245808D01*
X88168Y245702D01*
X88141Y245597D01*
X88110Y245494D01*
X88075Y245391D01*
X88037Y245290D01*
X87995Y245190D01*
X87950Y245091D01*
X87901Y244995D01*
X87848Y244900D01*
X87792Y244807D01*
X87733Y244716D01*
X87671Y244628D01*
X87605Y244542D01*
X87536Y244458D01*
X87465Y244377D01*
X87390Y244298D01*
X87313Y244222D01*
X87233Y244149D01*
X87151Y244079D01*
X87066Y244012D01*
X86978Y243948D01*
X86888Y243887D01*
X86797Y243829D01*
X86703Y243775D01*
X86607Y243725D01*
X86510Y243677D01*
X86411Y243634D01*
X86310Y243593D01*
X86208Y243557D01*
X86105Y243524D01*
X86000Y243495D01*
X85895Y243470D01*
X85789Y243449D01*
X85682Y243431D01*
X85574Y243418D01*
X85466Y243408D01*
X85358Y243402D01*
X85250Y243400D01*
X41100Y163000D02*
X34900Y163000D01*
X34900Y157000D02*
X41100Y157000D01*
X41208Y157002D01*
X41316Y157008D01*
X41424Y157018D01*
X41532Y157031D01*
X41639Y157049D01*
X41745Y157070D01*
X41850Y157095D01*
X41955Y157124D01*
X42058Y157157D01*
X42160Y157193D01*
X42261Y157234D01*
X42360Y157277D01*
X42457Y157325D01*
X42553Y157375D01*
X42647Y157429D01*
X42738Y157487D01*
X42828Y157548D01*
X42916Y157612D01*
X43001Y157679D01*
X43083Y157749D01*
X43163Y157822D01*
X43240Y157898D01*
X43315Y157977D01*
X43386Y158058D01*
X43455Y158142D01*
X43521Y158228D01*
X43583Y158316D01*
X43642Y158407D01*
X43698Y158500D01*
X43751Y158595D01*
X43800Y158691D01*
X43845Y158790D01*
X43887Y158890D01*
X43925Y158991D01*
X43960Y159094D01*
X43991Y159197D01*
X44018Y159302D01*
X44041Y159408D01*
X44060Y159515D01*
X44076Y159622D01*
X44088Y159730D01*
X44096Y159838D01*
X44100Y159946D01*
X44100Y160054D01*
X44096Y160162D01*
X44088Y160270D01*
X44076Y160378D01*
X44060Y160485D01*
X44041Y160592D01*
X44018Y160698D01*
X43991Y160803D01*
X43960Y160906D01*
X43925Y161009D01*
X43887Y161110D01*
X43845Y161210D01*
X43800Y161309D01*
X43751Y161405D01*
X43698Y161500D01*
X43642Y161593D01*
X43583Y161684D01*
X43521Y161772D01*
X43455Y161858D01*
X43386Y161942D01*
X43315Y162023D01*
X43240Y162102D01*
X43163Y162178D01*
X43083Y162251D01*
X43001Y162321D01*
X42916Y162388D01*
X42828Y162452D01*
X42738Y162513D01*
X42647Y162571D01*
X42553Y162625D01*
X42457Y162675D01*
X42360Y162723D01*
X42261Y162766D01*
X42160Y162807D01*
X42058Y162843D01*
X41955Y162876D01*
X41850Y162905D01*
X41745Y162930D01*
X41639Y162951D01*
X41532Y162969D01*
X41424Y162982D01*
X41316Y162992D01*
X41208Y162998D01*
X41100Y163000D01*
X34900Y163000D02*
X34792Y162998D01*
X34684Y162992D01*
X34576Y162982D01*
X34468Y162969D01*
X34361Y162951D01*
X34255Y162930D01*
X34150Y162905D01*
X34045Y162876D01*
X33942Y162843D01*
X33840Y162807D01*
X33739Y162766D01*
X33640Y162723D01*
X33543Y162675D01*
X33447Y162625D01*
X33353Y162571D01*
X33262Y162513D01*
X33172Y162452D01*
X33084Y162388D01*
X32999Y162321D01*
X32917Y162251D01*
X32837Y162178D01*
X32760Y162102D01*
X32685Y162023D01*
X32614Y161942D01*
X32545Y161858D01*
X32479Y161772D01*
X32417Y161684D01*
X32358Y161593D01*
X32302Y161500D01*
X32249Y161405D01*
X32200Y161309D01*
X32155Y161210D01*
X32113Y161110D01*
X32075Y161009D01*
X32040Y160906D01*
X32009Y160803D01*
X31982Y160698D01*
X31959Y160592D01*
X31940Y160485D01*
X31924Y160378D01*
X31912Y160270D01*
X31904Y160162D01*
X31900Y160054D01*
X31900Y159946D01*
X31904Y159838D01*
X31912Y159730D01*
X31924Y159622D01*
X31940Y159515D01*
X31959Y159408D01*
X31982Y159302D01*
X32009Y159197D01*
X32040Y159094D01*
X32075Y158991D01*
X32113Y158890D01*
X32155Y158790D01*
X32200Y158691D01*
X32249Y158595D01*
X32302Y158500D01*
X32358Y158407D01*
X32417Y158316D01*
X32479Y158228D01*
X32545Y158142D01*
X32614Y158058D01*
X32685Y157977D01*
X32760Y157898D01*
X32837Y157822D01*
X32917Y157749D01*
X32999Y157679D01*
X33084Y157612D01*
X33172Y157548D01*
X33262Y157487D01*
X33353Y157429D01*
X33447Y157375D01*
X33543Y157325D01*
X33640Y157277D01*
X33739Y157234D01*
X33840Y157193D01*
X33942Y157157D01*
X34045Y157124D01*
X34150Y157095D01*
X34255Y157070D01*
X34361Y157049D01*
X34468Y157031D01*
X34576Y157018D01*
X34684Y157008D01*
X34792Y157002D01*
X34900Y157000D01*
X74250Y163000D02*
X85250Y163000D01*
X85250Y157000D02*
X74250Y157000D01*
X74142Y157002D01*
X74034Y157008D01*
X73926Y157018D01*
X73818Y157031D01*
X73711Y157049D01*
X73605Y157070D01*
X73500Y157095D01*
X73395Y157124D01*
X73292Y157157D01*
X73190Y157193D01*
X73089Y157234D01*
X72990Y157277D01*
X72893Y157325D01*
X72797Y157375D01*
X72703Y157429D01*
X72612Y157487D01*
X72522Y157548D01*
X72434Y157612D01*
X72349Y157679D01*
X72267Y157749D01*
X72187Y157822D01*
X72110Y157898D01*
X72035Y157977D01*
X71964Y158058D01*
X71895Y158142D01*
X71829Y158228D01*
X71767Y158316D01*
X71708Y158407D01*
X71652Y158500D01*
X71599Y158595D01*
X71550Y158691D01*
X71505Y158790D01*
X71463Y158890D01*
X71425Y158991D01*
X71390Y159094D01*
X71359Y159197D01*
X71332Y159302D01*
X71309Y159408D01*
X71290Y159515D01*
X71274Y159622D01*
X71262Y159730D01*
X71254Y159838D01*
X71250Y159946D01*
X71250Y160054D01*
X71254Y160162D01*
X71262Y160270D01*
X71274Y160378D01*
X71290Y160485D01*
X71309Y160592D01*
X71332Y160698D01*
X71359Y160803D01*
X71390Y160906D01*
X71425Y161009D01*
X71463Y161110D01*
X71505Y161210D01*
X71550Y161309D01*
X71599Y161405D01*
X71652Y161500D01*
X71708Y161593D01*
X71767Y161684D01*
X71829Y161772D01*
X71895Y161858D01*
X71964Y161942D01*
X72035Y162023D01*
X72110Y162102D01*
X72187Y162178D01*
X72267Y162251D01*
X72349Y162321D01*
X72434Y162388D01*
X72522Y162452D01*
X72612Y162513D01*
X72703Y162571D01*
X72797Y162625D01*
X72893Y162675D01*
X72990Y162723D01*
X73089Y162766D01*
X73190Y162807D01*
X73292Y162843D01*
X73395Y162876D01*
X73500Y162905D01*
X73605Y162930D01*
X73711Y162951D01*
X73818Y162969D01*
X73926Y162982D01*
X74034Y162992D01*
X74142Y162998D01*
X74250Y163000D01*
X85250Y163000D02*
X85358Y162998D01*
X85466Y162992D01*
X85574Y162982D01*
X85682Y162969D01*
X85789Y162951D01*
X85895Y162930D01*
X86000Y162905D01*
X86105Y162876D01*
X86208Y162843D01*
X86310Y162807D01*
X86411Y162766D01*
X86510Y162723D01*
X86607Y162675D01*
X86703Y162625D01*
X86797Y162571D01*
X86888Y162513D01*
X86978Y162452D01*
X87066Y162388D01*
X87151Y162321D01*
X87233Y162251D01*
X87313Y162178D01*
X87390Y162102D01*
X87465Y162023D01*
X87536Y161942D01*
X87605Y161858D01*
X87671Y161772D01*
X87733Y161684D01*
X87792Y161593D01*
X87848Y161500D01*
X87901Y161405D01*
X87950Y161309D01*
X87995Y161210D01*
X88037Y161110D01*
X88075Y161009D01*
X88110Y160906D01*
X88141Y160803D01*
X88168Y160698D01*
X88191Y160592D01*
X88210Y160485D01*
X88226Y160378D01*
X88238Y160270D01*
X88246Y160162D01*
X88250Y160054D01*
X88250Y159946D01*
X88246Y159838D01*
X88238Y159730D01*
X88226Y159622D01*
X88210Y159515D01*
X88191Y159408D01*
X88168Y159302D01*
X88141Y159197D01*
X88110Y159094D01*
X88075Y158991D01*
X88037Y158890D01*
X87995Y158790D01*
X87950Y158691D01*
X87901Y158595D01*
X87848Y158500D01*
X87792Y158407D01*
X87733Y158316D01*
X87671Y158228D01*
X87605Y158142D01*
X87536Y158058D01*
X87465Y157977D01*
X87390Y157898D01*
X87313Y157822D01*
X87233Y157749D01*
X87151Y157679D01*
X87066Y157612D01*
X86978Y157548D01*
X86888Y157487D01*
X86797Y157429D01*
X86703Y157375D01*
X86607Y157325D01*
X86510Y157277D01*
X86411Y157234D01*
X86310Y157193D01*
X86208Y157157D01*
X86105Y157124D01*
X86000Y157095D01*
X85895Y157070D01*
X85789Y157049D01*
X85682Y157031D01*
X85574Y157018D01*
X85466Y157008D01*
X85358Y157002D01*
X85250Y157000D01*
D13*
X25400Y0D02*
X965200Y0D01*
X965200Y381000D01*
X25400Y381000D01*
X25400Y0D01*
X74250Y157000D02*
X85250Y157000D01*
X85511Y157011D01*
X85771Y157046D01*
X86026Y157102D01*
X86276Y157181D01*
X86518Y157281D01*
X86750Y157402D01*
X86971Y157543D01*
X87178Y157702D01*
X87371Y157879D01*
X87548Y158072D01*
X87707Y158279D01*
X87848Y158500D01*
X87969Y158732D01*
X88069Y158974D01*
X88148Y159224D01*
X88204Y159479D01*
X88239Y159739D01*
X88250Y160000D01*
X88239Y160261D01*
X88204Y160521D01*
X88148Y160776D01*
X88069Y161026D01*
X87969Y161268D01*
X87848Y161500D01*
X87707Y161721D01*
X87548Y161928D01*
X87371Y162121D01*
X87178Y162298D01*
X86971Y162457D01*
X86750Y162598D01*
X86518Y162719D01*
X86276Y162819D01*
X86026Y162898D01*
X85771Y162954D01*
X85511Y162989D01*
X85250Y163000D01*
X74250Y163000D01*
X73989Y162989D01*
X73729Y162954D01*
X73474Y162898D01*
X73224Y162819D01*
X72982Y162719D01*
X72750Y162598D01*
X72529Y162457D01*
X72322Y162298D01*
X72129Y162121D01*
X71952Y161928D01*
X71793Y161721D01*
X71652Y161500D01*
X71531Y161268D01*
X71431Y161026D01*
X71352Y160776D01*
X71296Y160521D01*
X71261Y160261D01*
X71250Y160000D01*
X71261Y159739D01*
X71296Y159479D01*
X71352Y159224D01*
X71431Y158974D01*
X71531Y158732D01*
X71652Y158500D01*
X71793Y158279D01*
X71952Y158072D01*
X72129Y157879D01*
X72322Y157702D01*
X72529Y157543D01*
X72750Y157402D01*
X72982Y157281D01*
X73224Y157181D01*
X73474Y157102D01*
X73729Y157046D01*
X73989Y157011D01*
X74250Y157000D01*
X34900Y157000D02*
X41100Y157000D01*
X41361Y157011D01*
X41621Y157046D01*
X41876Y157102D01*
X42126Y157181D01*
X42368Y157281D01*
X42600Y157402D01*
X42821Y157543D01*
X43028Y157702D01*
X43221Y157879D01*
X43398Y158072D01*
X43557Y158279D01*
X43698Y158500D01*
X43819Y158732D01*
X43919Y158974D01*
X43998Y159224D01*
X44054Y159479D01*
X44089Y159739D01*
X44100Y160000D01*
X44089Y160261D01*
X44054Y160521D01*
X43998Y160776D01*
X43919Y161026D01*
X43819Y161268D01*
X43698Y161500D01*
X43557Y161721D01*
X43398Y161928D01*
X43221Y162121D01*
X43028Y162298D01*
X42821Y162457D01*
X42600Y162598D01*
X42368Y162719D01*
X42126Y162819D01*
X41876Y162898D01*
X41621Y162954D01*
X41361Y162989D01*
X41100Y163000D01*
X34900Y163000D01*
X34639Y162989D01*
X34379Y162954D01*
X34124Y162898D01*
X33874Y162819D01*
X33632Y162719D01*
X33400Y162598D01*
X33179Y162457D01*
X32972Y162298D01*
X32779Y162121D01*
X32602Y161928D01*
X32443Y161721D01*
X32302Y161500D01*
X32181Y161268D01*
X32081Y161026D01*
X32002Y160776D01*
X31946Y160521D01*
X31911Y160261D01*
X31900Y160000D01*
X31911Y159739D01*
X31946Y159479D01*
X32002Y159224D01*
X32081Y158974D01*
X32181Y158732D01*
X32302Y158500D01*
X32443Y158279D01*
X32602Y158072D01*
X32779Y157879D01*
X32972Y157702D01*
X33179Y157543D01*
X33400Y157402D01*
X33632Y157281D01*
X33874Y157181D01*
X34124Y157102D01*
X34379Y157046D01*
X34639Y157011D01*
X34900Y157000D01*
X34900Y243400D02*
X41100Y243400D01*
X41361Y243411D01*
X41621Y243446D01*
X41876Y243502D01*
X42126Y243581D01*
X42368Y243681D01*
X42600Y243802D01*
X42821Y243943D01*
X43028Y244102D01*
X43221Y244279D01*
X43398Y244472D01*
X43557Y244679D01*
X43698Y244900D01*
X43819Y245132D01*
X43919Y245374D01*
X43998Y245624D01*
X44054Y245879D01*
X44089Y246139D01*
X44100Y246400D01*
X44089Y246661D01*
X44054Y246921D01*
X43998Y247176D01*
X43919Y247426D01*
X43819Y247668D01*
X43698Y247900D01*
X43557Y248121D01*
X43398Y248328D01*
X43221Y248521D01*
X43028Y248698D01*
X42821Y248857D01*
X42600Y248998D01*
X42368Y249119D01*
X42126Y249219D01*
X41876Y249298D01*
X41621Y249354D01*
X41361Y249389D01*
X41100Y249400D01*
X34900Y249400D01*
X34639Y249389D01*
X34379Y249354D01*
X34124Y249298D01*
X33874Y249219D01*
X33632Y249119D01*
X33400Y248998D01*
X33179Y248857D01*
X32972Y248698D01*
X32779Y248521D01*
X32602Y248328D01*
X32443Y248121D01*
X32302Y247900D01*
X32181Y247668D01*
X32081Y247426D01*
X32002Y247176D01*
X31946Y246921D01*
X31911Y246661D01*
X31900Y246400D01*
X31911Y246139D01*
X31946Y245879D01*
X32002Y245624D01*
X32081Y245374D01*
X32181Y245132D01*
X32302Y244900D01*
X32443Y244679D01*
X32602Y244472D01*
X32779Y244279D01*
X32972Y244102D01*
X33179Y243943D01*
X33400Y243802D01*
X33632Y243681D01*
X33874Y243581D01*
X34124Y243502D01*
X34379Y243446D01*
X34639Y243411D01*
X34900Y243400D01*
X74250Y243400D02*
X85250Y243400D01*
X85511Y243411D01*
X85771Y243446D01*
X86026Y243502D01*
X86276Y243581D01*
X86518Y243681D01*
X86750Y243802D01*
X86971Y243943D01*
X87178Y244102D01*
X87371Y244279D01*
X87548Y244472D01*
X87707Y244679D01*
X87848Y244900D01*
X87969Y245132D01*
X88069Y245374D01*
X88148Y245624D01*
X88204Y245879D01*
X88239Y246139D01*
X88250Y246400D01*
X88239Y246661D01*
X88204Y246921D01*
X88148Y247176D01*
X88069Y247426D01*
X87969Y247668D01*
X87848Y247900D01*
X87707Y248121D01*
X87548Y248328D01*
X87371Y248521D01*
X87178Y248698D01*
X86971Y248857D01*
X86750Y248998D01*
X86518Y249119D01*
X86276Y249219D01*
X86026Y249298D01*
X85771Y249354D01*
X85511Y249389D01*
X85250Y249400D01*
X74250Y249400D01*
X73989Y249389D01*
X73729Y249354D01*
X73474Y249298D01*
X73224Y249219D01*
X72982Y249119D01*
X72750Y248998D01*
X72529Y248857D01*
X72322Y248698D01*
X72129Y248521D01*
X71952Y248328D01*
X71793Y248121D01*
X71652Y247900D01*
X71531Y247668D01*
X71431Y247426D01*
X71352Y247176D01*
X71296Y246921D01*
X71261Y246661D01*
X71250Y246400D01*
X71261Y246139D01*
X71296Y245879D01*
X71352Y245624D01*
X71431Y245374D01*
X71531Y245132D01*
X71652Y244900D01*
X71793Y244679D01*
X71952Y244472D01*
X72129Y244279D01*
X72322Y244102D01*
X72529Y243943D01*
X72750Y243802D01*
X72982Y243681D01*
X73224Y243581D01*
X73474Y243502D01*
X73729Y243446D01*
X73989Y243411D01*
X74250Y243400D01*
X74250Y157000D02*
X85250Y157000D01*
X85511Y157011D01*
X85771Y157046D01*
X86026Y157102D01*
X86276Y157181D01*
X86518Y157281D01*
X86750Y157402D01*
X86971Y157543D01*
X87178Y157702D01*
X87371Y157879D01*
X87548Y158072D01*
X87707Y158279D01*
X87848Y158500D01*
X87969Y158732D01*
X88069Y158974D01*
X88148Y159224D01*
X88204Y159479D01*
X88239Y159739D01*
X88250Y160000D01*
X88239Y160261D01*
X88204Y160521D01*
X88148Y160776D01*
X88069Y161026D01*
X87969Y161268D01*
X87848Y161500D01*
X87707Y161721D01*
X87548Y161928D01*
X87371Y162121D01*
X87178Y162298D01*
X86971Y162457D01*
X86750Y162598D01*
X86518Y162719D01*
X86276Y162819D01*
X86026Y162898D01*
X85771Y162954D01*
X85511Y162989D01*
X85250Y163000D01*
X74250Y163000D01*
X73989Y162989D01*
X73729Y162954D01*
X73474Y162898D01*
X73224Y162819D01*
X72982Y162719D01*
X72750Y162598D01*
X72529Y162457D01*
X72322Y162298D01*
X72129Y162121D01*
X71952Y161928D01*
X71793Y161721D01*
X71652Y161500D01*
X71531Y161268D01*
X71431Y161026D01*
X71352Y160776D01*
X71296Y160521D01*
X71261Y160261D01*
X71250Y160000D01*
X71261Y159739D01*
X71296Y159479D01*
X71352Y159224D01*
X71431Y158974D01*
X71531Y158732D01*
X71652Y158500D01*
X71793Y158279D01*
X71952Y158072D01*
X72129Y157879D01*
X72322Y157702D01*
X72529Y157543D01*
X72750Y157402D01*
X72982Y157281D01*
X73224Y157181D01*
X73474Y157102D01*
X73729Y157046D01*
X73989Y157011D01*
X74250Y157000D01*
X34900Y157000D02*
X41100Y157000D01*
X41361Y157011D01*
X41621Y157046D01*
X41876Y157102D01*
X42126Y157181D01*
X42368Y157281D01*
X42600Y157402D01*
X42821Y157543D01*
X43028Y157702D01*
X43221Y157879D01*
X43398Y158072D01*
X43557Y158279D01*
X43698Y158500D01*
X43819Y158732D01*
X43919Y158974D01*
X43998Y159224D01*
X44054Y159479D01*
X44089Y159739D01*
X44100Y160000D01*
X44089Y160261D01*
X44054Y160521D01*
X43998Y160776D01*
X43919Y161026D01*
X43819Y161268D01*
X43698Y161500D01*
X43557Y161721D01*
X43398Y161928D01*
X43221Y162121D01*
X43028Y162298D01*
X42821Y162457D01*
X42600Y162598D01*
X42368Y162719D01*
X42126Y162819D01*
X41876Y162898D01*
X41621Y162954D01*
X41361Y162989D01*
X41100Y163000D01*
X34900Y163000D01*
X34639Y162989D01*
X34379Y162954D01*
X34124Y162898D01*
X33874Y162819D01*
X33632Y162719D01*
X33400Y162598D01*
X33179Y162457D01*
X32972Y162298D01*
X32779Y162121D01*
X32602Y161928D01*
X32443Y161721D01*
X32302Y161500D01*
X32181Y161268D01*
X32081Y161026D01*
X32002Y160776D01*
X31946Y160521D01*
X31911Y160261D01*
X31900Y160000D01*
X31911Y159739D01*
X31946Y159479D01*
X32002Y159224D01*
X32081Y158974D01*
X32181Y158732D01*
X32302Y158500D01*
X32443Y158279D01*
X32602Y158072D01*
X32779Y157879D01*
X32972Y157702D01*
X33179Y157543D01*
X33400Y157402D01*
X33632Y157281D01*
X33874Y157181D01*
X34124Y157102D01*
X34379Y157046D01*
X34639Y157011D01*
X34900Y157000D01*
X74250Y243400D02*
X85250Y243400D01*
X85511Y243411D01*
X85771Y243446D01*
X86026Y243502D01*
X86276Y243581D01*
X86518Y243681D01*
X86750Y243802D01*
X86971Y243943D01*
X87178Y244102D01*
X87371Y244279D01*
X87548Y244472D01*
X87707Y244679D01*
X87848Y244900D01*
X87969Y245132D01*
X88069Y245374D01*
X88148Y245624D01*
X88204Y245879D01*
X88239Y246139D01*
X88250Y246400D01*
X88239Y246661D01*
X88204Y246921D01*
X88148Y247176D01*
X88069Y247426D01*
X87969Y247668D01*
X87848Y247900D01*
X87707Y248121D01*
X87548Y248328D01*
X87371Y248521D01*
X87178Y248698D01*
X86971Y248857D01*
X86750Y248998D01*
X86518Y249119D01*
X86276Y249219D01*
X86026Y249298D01*
X85771Y249354D01*
X85511Y249389D01*
X85250Y249400D01*
X74250Y249400D01*
X73989Y249389D01*
X73729Y249354D01*
X73474Y249298D01*
X73224Y249219D01*
X72982Y249119D01*
X72750Y248998D01*
X72529Y248857D01*
X72322Y248698D01*
X72129Y248521D01*
X71952Y248328D01*
X71793Y248121D01*
X71652Y247900D01*
X71531Y247668D01*
X71431Y247426D01*
X71352Y247176D01*
X71296Y246921D01*
X71261Y246661D01*
X71250Y246400D01*
X71261Y246139D01*
X71296Y245879D01*
X71352Y245624D01*
X71431Y245374D01*
X71531Y245132D01*
X71652Y244900D01*
X71793Y244679D01*
X71952Y244472D01*
X72129Y244279D01*
X72322Y244102D01*
X72529Y243943D01*
X72750Y243802D01*
X72982Y243681D01*
X73224Y243581D01*
X73474Y243502D01*
X73729Y243446D01*
X73989Y243411D01*
X74250Y243400D01*
X34900Y243400D02*
X41100Y243400D01*
X41361Y243411D01*
X41621Y243446D01*
X41876Y243502D01*
X42126Y243581D01*
X42368Y243681D01*
X42600Y243802D01*
X42821Y243943D01*
X43028Y244102D01*
X43221Y244279D01*
X43398Y244472D01*
X43557Y244679D01*
X43698Y244900D01*
X43819Y245132D01*
X43919Y245374D01*
X43998Y245624D01*
X44054Y245879D01*
X44089Y246139D01*
X44100Y246400D01*
X44089Y246661D01*
X44054Y246921D01*
X43998Y247176D01*
X43919Y247426D01*
X43819Y247668D01*
X43698Y247900D01*
X43557Y248121D01*
X43398Y248328D01*
X43221Y248521D01*
X43028Y248698D01*
X42821Y248857D01*
X42600Y248998D01*
X42368Y249119D01*
X42126Y249219D01*
X41876Y249298D01*
X41621Y249354D01*
X41361Y249389D01*
X41100Y249400D01*
X34900Y249400D01*
X34639Y249389D01*
X34379Y249354D01*
X34124Y249298D01*
X33874Y249219D01*
X33632Y249119D01*
X33400Y248998D01*
X33179Y248857D01*
X32972Y248698D01*
X32779Y248521D01*
X32602Y248328D01*
X32443Y248121D01*
X32302Y247900D01*
X32181Y247668D01*
X32081Y247426D01*
X32002Y247176D01*
X31946Y246921D01*
X31911Y246661D01*
X31900Y246400D01*
X31911Y246139D01*
X31946Y245879D01*
X32002Y245624D01*
X32081Y245374D01*
X32181Y245132D01*
X32302Y244900D01*
X32443Y244679D01*
X32602Y244472D01*
X32779Y244279D01*
X32972Y244102D01*
X33179Y243943D01*
X33400Y243802D01*
X33632Y243681D01*
X33874Y243581D01*
X34124Y243502D01*
X34379Y243446D01*
X34639Y243411D01*
X34900Y243400D01*
X180442Y292290D02*
X180962Y292222D01*
X181469Y292086D01*
X181953Y291885D01*
X182407Y291623D01*
X182823Y291304D01*
X183194Y290933D01*
X183513Y290517D01*
X183775Y290063D01*
X183976Y289579D01*
X184112Y289072D01*
X184180Y288552D01*
X184180Y288028D01*
X184112Y287508D01*
X183976Y287001D01*
X183775Y286517D01*
X183513Y286063D01*
X183194Y285647D01*
X182823Y285276D01*
X182407Y284957D01*
X181953Y284695D01*
X181469Y284494D01*
X180962Y284358D01*
X180442Y284290D01*
X179918Y284290D01*
X179398Y284358D01*
X178891Y284494D01*
X178407Y284695D01*
X177953Y284957D01*
X177537Y285276D01*
X177166Y285647D01*
X176847Y286063D01*
X176585Y286517D01*
X176384Y287001D01*
X176248Y287508D01*
X176180Y288028D01*
X176180Y288552D01*
X176248Y289072D01*
X176384Y289579D01*
X176585Y290063D01*
X176847Y290517D01*
X177166Y290933D01*
X177537Y291304D01*
X177953Y291623D01*
X178407Y291885D01*
X178891Y292086D01*
X179398Y292222D01*
X179918Y292290D01*
X180442Y292290D01*
X74237Y228850D02*
X73815Y228906D01*
X73403Y229016D01*
X73009Y229179D01*
X72641Y229392D01*
X72303Y229651D01*
X72001Y229953D01*
X71742Y230291D01*
X71529Y230659D01*
X71366Y231053D01*
X71256Y231465D01*
X71200Y231887D01*
X71200Y232313D01*
X71256Y232735D01*
X71366Y233147D01*
X71529Y233541D01*
X71742Y233909D01*
X72001Y234247D01*
X72303Y234549D01*
X72641Y234808D01*
X73009Y235021D01*
X73403Y235184D01*
X73815Y235294D01*
X74237Y235350D01*
X74663Y235350D01*
X75085Y235294D01*
X75497Y235184D01*
X75891Y235021D01*
X76259Y234808D01*
X76597Y234549D01*
X76899Y234247D01*
X77158Y233909D01*
X77371Y233541D01*
X77534Y233147D01*
X77644Y232735D01*
X77700Y232313D01*
X77700Y231887D01*
X77644Y231465D01*
X77534Y231053D01*
X77371Y230659D01*
X77158Y230291D01*
X76899Y229953D01*
X76597Y229651D01*
X76259Y229392D01*
X75891Y229179D01*
X75497Y229016D01*
X75085Y228906D01*
X74663Y228850D01*
X74237Y228850D01*
X74237Y171050D02*
X73815Y171106D01*
X73403Y171216D01*
X73009Y171379D01*
X72641Y171592D01*
X72303Y171851D01*
X72001Y172153D01*
X71742Y172491D01*
X71529Y172859D01*
X71366Y173253D01*
X71256Y173665D01*
X71200Y174087D01*
X71200Y174513D01*
X71256Y174935D01*
X71366Y175347D01*
X71529Y175741D01*
X71742Y176109D01*
X72001Y176447D01*
X72303Y176749D01*
X72641Y177008D01*
X73009Y177221D01*
X73403Y177384D01*
X73815Y177494D01*
X74237Y177550D01*
X74663Y177550D01*
X75085Y177494D01*
X75497Y177384D01*
X75891Y177221D01*
X76259Y177008D01*
X76597Y176749D01*
X76899Y176447D01*
X77158Y176109D01*
X77371Y175741D01*
X77534Y175347D01*
X77644Y174935D01*
X77700Y174513D01*
X77700Y174087D01*
X77644Y173665D01*
X77534Y173253D01*
X77371Y172859D01*
X77158Y172491D01*
X76899Y172153D01*
X76597Y171851D01*
X76259Y171592D01*
X75891Y171379D01*
X75497Y171216D01*
X75085Y171106D01*
X74663Y171050D01*
X74237Y171050D01*
M02*
